<?xml version="1.0" standalone="no"?>
<!DOCTYPE svg PUBLIC "-//W3C//DTD SVG 1.1//EN" "http://www.w3.org/Graphics/SVG/1.1/DTD/svg11.dtd" >
<svg xmlns="http://www.w3.org/2000/svg">
<metadata></metadata>
<defs>
<font id="snowtop_capsregular" horiz-adv-x="1126" >
<font-face units-per-em="2048" ascent="1638" descent="-410" />
<missing-glyph horiz-adv-x="569" />
<glyph horiz-adv-x="0" />
<glyph unicode="&#xd;" horiz-adv-x="2048" />
<glyph unicode=" "  horiz-adv-x="569" />
<glyph unicode="&#x09;" horiz-adv-x="569" />
<glyph unicode="&#xa0;" horiz-adv-x="569" />
<glyph unicode="!" horiz-adv-x="573" d="M70 1149v358q0 34 43 86q46 52 77 52q30 0 58 -25l41 -35q12 12 51 35q11 7 63 37q101 0 101 -273q4 -32 4 -45q0 -297 -146 -876l103 -96l4 -351q-56 -16 -279 -16h-100q-14 49 -14 213v90q0 46 2 64q61 102 112 96zM111 1501q0 -36 20 -65q28 -14 100 -205 q21 176 70 176q31 0 31 -115v-53q-2 -23 -2 -53q0 -21 4 -33q0 68 43 123l72 92q3 57 12 119q0 90 -58 127q-9 -8 -25 -21t-22 -18q-48 -39 -63 -39q-16 0 -98 61l-76 -53q-8 -16 -8 -43zM152 391q-9 -41 32 -76q15 -13 29 -25.5t20 -17.5t7 -6q15 27 24 33q21 18 45 18 q32 0 49 -38q15 -53 25 -76l20 155q-19 51 -88 54q-15 0 -59 -9q-101 -21 -104 -12z" />
<glyph unicode="&#x22;" horiz-adv-x="860" d="M61 1538q27 49 66 49l23 -4q20 0 67 29q53 38 66 43q100 -72 100 -252l-47 -373h-203l-51 381q0 15 -14 64q-9 49 -7 63zM90 1499q0 -17 19 -63l53 -125q23 6 57 75q36 73 68 76q6 -2 20 8q29 29 29 54q0 14 -27 61q-3 7 -26 43q-10 0 -54 -41q-43 -40 -55 -43 q-18 0 -37 25q-47 0 -47 -70zM469 1536q27 49 66 49l22 -4q21 0 68 29q54 39 65 43q101 -73 101 -252l-48 -373h-202l-52 381q0 15 -14 64q-9 46 -6 63zM498 1497q0 -19 18 -63l53 -125q24 6 58 75q36 73 67 76q7 -2 21 8q28 28 28 54q0 16 -26 61q-3 5 -7 12t-10 16l-10 15 q-9 0 -53 -41q-43 -40 -55 -43q-18 0 -37 25q-47 0 -47 -70z" />
<glyph unicode="#" horiz-adv-x="1157" d="M33 475v166h254l37 236h-232v167h260l62 449h161l-63 -449h233l66 449h168l-66 -449h209v-167h-233l-33 -236h209v-166h-236l-69 -475h-170l69 475h-231l-76 -475h-164l72 475h-227zM455 641h229l37 236h-234z" />
<glyph unicode="$" horiz-adv-x="1040" d="M61 379q62 90 101 133q35 38 82 53q16 26 45 29q21 0 59 -14q44 -15 60 -15q7 -23 36 -41q12 5 34.5 16.5t33.5 16.5q10 6 16 16q-411 71 -426 310q-2 17 7 82q10 72 10 88l-13 84q-3 28 19 80q19 40 45 69q43 0 113 55q72 58 84 66q-7 25 -7 35q0 24 48 151q10 10 94 19 q78 9 92 45q4 2 14 2q26 0 54 -31q-5 -15 -5 -31v-34q0 -116 13 -199q76 0 149 -98l99 -129q-47 -121 -82 -162q-39 -18 -84 -43q-28 36 -54 53q-76 55 -178 55q-63 0 -84 -24q-12 -15 -12 -58q0 -13 143 -53q175 -47 267 -108q145 -95 145 -244q0 -163 -70 -250.5 t-231 -132.5q-18 -11 -21 -84q-3 -71 -18 -86h-147q-101 0 -101 57q0 8 6 34.5t6 33.5q0 65 -120 108q-156 56 -222 146zM150 1206q-6 -121 32 -121q5 0 41 19q33 20 45 20q29 0 99 -149q17 28 26 96q18 132 39 135q10 0 31 -18q56 -47 57 -47q3 3 37 49q27 41 61 41 q11 0 20 -4t18 -14.5t16 -21t17 -33t17.5 -39.5t21.5 -50t24 -57q0 3 -3 18.5t-11 56t-15 78.5q15 35 98 41q-9 36 -51 78q-40 43 -76 43q-34 0 -61 -35q-29 -44 -31 -49l-63 115q-11 4 -21 -17q-24 -43 -51 -43q-3 0 -36 25.5t-52 28.5q-11 2 -51 -27q-88 -70 -107 -70 q-15 9 -26 9q-51 0 -45 -58zM285 516q0 -32 90 -154q10 18 22 29q28 32 39 29q23 -4 29 -8q38 -30 55 -41q0 24 25 24q29 0 59 -35q18 -25 35 -45q31 91 31 115q0 26 -49 47q-50 21 -56 39q-24 3 -67 -16q-44 -21 -62 -21q-4 0 -51 35q-43 37 -72 37q-28 0 -28 -35z M412 1479q0 -72 53 -131q12 4 31 26q24 27 32 27q37 0 52 -68q9 -39 22 -47q25 48 25 121q0 26 -6 88l-15 111l-20 -25l16 -16l-24 -17q-16 29 -33 29q-13 0 -45.5 -17.5t-40.5 -17.5q-13 0 -31 6q-14 -39 -16 -69zM473 1511q5 -1 12 -1.5t11 -1t6 -1.5l18 -8l-4 -20 q-11 0 -29 12zM614 545l9 -29q6 -2 14 -2q14 0 14 10q-16 12 -18 13z" />
<glyph unicode="%" horiz-adv-x="1685" d="M57 938q0 131 49 418q3 7 7.5 16t5.5 12q16 29 26 29l17 -4q18 -4 41 4q7 0 16 6q18 0 29 -20q3 1 31 26q30 23 32 23q5 0 48 -4.5t53 -3.5l39 -39q18 -18 28 -51q8 3 22.5 12.5t22.5 9.5q22 0 31 -69q16 -83 27 -97q0 -40 6 -114q14 -164 14 -209q0 -159 -59 -230 q-68 -80 -221 -80q-160 0 -222 111q-43 79 -43 254zM117 1284l10 2q10 -10 25 -20q27 -21 36 -21q15 0 35 33q24 35 37 35q18 0 68 -68q0 80 28 80q54 0 66 -41q11 19 35 29q20 0 26 -21q62 -35 62 -145q4 12 4 33q0 20 -17 114l5 37q0 15 -17 15l-24 -13l-23 -10 q-26 69 -57 86q-27 18 -103 18q-8 0 -28 -26q-21 -27 -37 -27q-9 12 -35 21q-30 -7 -43 -4l-20 4q-18 0 -33 -111zM268 -29l940 1418h135l-937 -1418h-138zM276 829q0 -133 54 -133q51 0 51 78v438l-21 33q-4 0 -18 -22.5t-18 -22.5q-11 0 -21 17q0 6 -2 10l-8 -4 q-14 -123 -14 -250v-72q-3 -47 -3 -72zM1102 369q0 80 20 211q21 141 21 211q2 5 5 11.5t4.5 10t2.5 6.5q16 29 27 29l16 -4q18 -4 41 4q7 0 16 6q18 0 29 -20q3 2 31 26q30 23 33 23q6 0 48 -5t52 -4l39 -38q19 -19 29 -52q8 3 22.5 13t22.5 10q21 0 30 -70q15 -81 27 -96 q0 -41 6 -115q14 -164 14 -209q0 -158 -59 -229q-68 -80 -221 -80q-256 0 -256 361zM1153 719l10 2q13 -13 25 -21q26 -20 37 -20q15 0 35 33q24 35 36 35q18 0 68 -68q0 80 29 80q53 0 65 -41q11 19 35 29q21 0 27 -21q61 -34 61 -145q4 12 4 32q0 27 -16 115l4 37 q0 14 -17 14l-24 -12l-23 -10q-26 69 -57 86q-27 18 -102 18q-9 0 -29 -26q-21 -27 -37 -27q-8 11 -35 20q-30 -7 -43 -4l-20 4q-18 0 -33 -110zM1313 264q0 -133 53 -133q51 0 51 78v438l-20 33q-4 0 -18.5 -22.5t-18.5 -22.5q-11 0 -21 16q0 7 -2 11l-8 -5 q-14 -123 -14 -249v-72q-2 -31 -2 -72z" />
<glyph unicode="&#x26;" horiz-adv-x="1239" d="M59 455q0 165 95 268q25 29 96 70q-166 102 -166 276q0 60 37 221q0 13 -10 58q-1 6 -11 41q-3 45 74 104q14 12 80 51q13 0 41 31t51 31q10 0 24 -4.5t15 -4.5q9 0 94 21q36 0 51 -41q3 1 8 2t7 2h10q13 0 66 -16q18 8 61 57q30 35 68 35q125 0 217 -133q16 -26 67 -97 q-6 -21 -6 -47q0 -53 25 -172q26 -110 26 -170q0 -35 -8 -51l-371 -8q-3 137 -8 170q-18 119 -80 119q-76 0 -88 -64q-7 -43 -10 -92q-3 -82 14 -102q36 4 39 4q32 0 41 -31q-25 3 -43 -2q-43 -15 -43 -82q0 -43 21 -98q-3 30 53 86q-5 23 2.5 49.5t24.5 26.5l6 -318 q-34 -7 -45 -12q-46 -18 -62 -47l-20 -160q3 -10 20 0q5 3 18.5 13t22.5 16q80 -56 117 -56q10 17 10 156v86q0 31 -2 45q15 3 33 43t33 43l-9 -63q0 -42 46 -88q48 -48 88 -48q11 0 29.5 8.5t33.5 17.5l14 9q49 0 70 -37q26 -45 55 -55q-2 4 -2 14q0 19 8 43l27 89 q0 45 -139 83q-106 26 -193 80q0 5 60 33q118 -40 168 -63q115 -53 141 -101h8q34 0 31 -49l-16 -278l-39 4q-20 0 -58 -97q-48 -123 -114 -178q-116 -96 -330 -96q-281 0 -414 86q-160 109 -160 369zM133 1380q0 -51 51 -57l140 16q30 0 57 -12q18 35 27 47q34 49 51 49 q24 0 57 -39q38 -38 47 -41q12 37 70 37q99 0 174 -90q3 41 6 56q15 55 45 55q15 0 86 -160q42 -89 78 -125q3 18 -4 62q-21 129 -21 157q0 42 9 66q-48 75 -93 137q-62 86 -184 86l-121 -117q-6 25 -33 25q-7 0 -30 -6t-27 -6q-18 34 -65 34q-54 -4 -58 -4q-15 0 -30 6 l-142 -81q-90 -56 -90 -95zM510 266q0 -29 29 -108l24 12q23 12 49 16q7 -28 37 -69q-3 15 6 53q13 44 13 49q0 12 -6.5 51.5t-6.5 51.5q0 8 4 24q-6 0 -45 25q-38 24 -47 24q-25 0 -43 -53q-14 -43 -14 -76zM850 1264q0 -29 61 -66q-13 38 -28.5 54.5t-32.5 11.5z" />
<glyph unicode="'" horiz-adv-x="454" d="M61 1520q0 20 22.5 40.5t45.5 20.5l23 -4q22 0 51 20q73 49 82 52q100 -69 100 -234q2 -3 -23 -201q-6 -48 -24 -190h-203l-51 381q0 11 -11.5 56.5t-11.5 58.5zM92 1507q0 -32 19 -75q49 -106 53 -127q26 9 57 81q28 67 68 70q17 -1 33 20.5t16 41.5q0 14 -27 61 q-3 7 -26 43q-17 0 -58 -41q-39 -39 -51 -43q-18 0 -37 25q-47 0 -47 -56z" />
<glyph unicode="(" horiz-adv-x="663" d="M25 684q0 267 98 508q76 193 254 453l-39 57q-23 41 -23 72q0 13 26 31t44 18l23 -4q17 0 81 49q33 23 52 26q67 -46 67 -145q0 -91 -76 -240q-103 -204 -141 -317q-76 -229 -76 -508q0 -483 293 -967h-223q-179 257 -260 455q-100 244 -100 512zM377 1767q2 -8 4 -19 t5 -28.5t5 -29.5q14 -75 37 -140q21 5 57 72q27 58 68 55q41 24 41 62q0 20 -27 63q-13 23 -26 41q-21 -12 -49 -43q-16 -16 -64 -16h-22q-26 0 -29 -17z" />
<glyph unicode=")" horiz-adv-x="663" d="M53 -283q293 487 293 967q0 277 -76 506q-39 111 -141 317q-76 149 -76 242q0 57 10 84q15 34 58 61q15 -10 133 -75l22 4q18 0 44 -18t26 -31t-3 -26.5t-11 -28.5t-13 -23.5t-18 -27t-16 -23.5q172 -254 252 -455q100 -244 100 -506q0 -271 -100 -512 q-73 -185 -261 -455h-223zM68 1739q0 -38 41 -62q40 3 67 -55q36 -67 57 -72q20 52 37 138q3 15 15 79q-3 17 -29 17h-23q-52 0 -63 14q-32 36 -49 45q-25 -35 -27 -39q-26 -42 -26 -65z" />
<glyph unicode="*" horiz-adv-x="782" d="M35 1167l59 181l201 -66v211h190v-211l201 66l59 -181l-200 -75l123 -164l-152 -111l-127 172l-125 -172l-151 111l123 164z" />
<glyph unicode="+" horiz-adv-x="1026" d="M18 614v205h41v35q0 74 70 74q11 0 56 -8.5t61 -8.5q3 0 33 6.5t43 6.5q47 0 73 -39q7 -10 17 -39v352h200v-352q14 33 25 55q15 27 33 27q14 0 58 -8.5t56 -8.5q63 13 78 13l53 -2q28 -3 33 -11l25 -57h33v-240h-394v-383h-200v383h-394zM84 848q93 -72 133 -72 q0 2 -12 49q0 7 14.5 15t22.5 8q13 0 53.5 -10.5t48.5 -10.5q30 0 33 35q0 35 -70 35q-37 -12 -69 -12q-14 0 -62.5 9t-60.5 9q-6 0 -19 -10l-4 -3q-4 -3 -8 -7v-35zM641 846q22 -6 72 -41q43 -29 73 -29q0 2 -12 49q0 23 37 23q8 0 49 -10.5t53 -10.5q33 0 33 35 q0 25 -24 31q-1 0 -6 0.5t-15.5 1.5t-23.5 2q-38 -12 -70 -12q-17 0 -65 9t-58 9q-17 0 -33 -29l-4 -10q-4 -10 -6 -18z" />
<glyph unicode="," horiz-adv-x="376" d="M61 -158q0 5 7 52l6 49l92 98q-47 4 -92 16l4 285q0 16 31 61q30 43 45 43q13 0 34 -34q20 -33 27 -33q4 0 31.5 16.5t32.5 16.5q32 0 47 -47q3 -9 8 -29t8 -29v-182q0 -58 -4 -78q-10 -25 -45 -59l-203 -199q-20 11 -29 53zM102 295q0 -14 20 -42.5t32 -29.5 q19 24 32 35q13 3 31 -31q21 -34 27 -37q54 42 57 113q3 68 -27 68q-3 -3 -32 -19q-20 -10 -27 -10q-27 0 -61 70q-52 -15 -52 -117z" />
<glyph unicode="-" horiz-adv-x="811" d="M72 752q-3 54 59 90q55 30 111 30q19 0 55 -8q88 -18 102 -18q10 0 57.5 9t65.5 9q4 -2 29 -2h31q66 0 77 -14q15 -36 64 -62q22 -13 22 -20l-16 -156h-625l-24 8zM166 821q1 -1 4.5 -6t10 -14t12.5 -19q14 -20 14 -26q0 -11 -8 -19q100 -69 166 -69l8 14q0 -4 -3 3 q-6 12 -14 44q0 11 21 24t35 13q26 0 82 -16q56 -15 77 -15q20 0 36 16.5t16 36.5q0 38 -39 50q-9 3 -70 6q-52 -19 -106 -19q-49 0 -193 27q-21 0 -49 -31z" />
<glyph unicode="." horiz-adv-x="471" d="M70 219q0 42 16 111q24 82 59 82q21 0 58 -27q20 -14 28 -14q28 28 60 28q67 0 84 -32q-6 -21 -6 -37q0 -15 17 -47t17 -39l-8 -244h-309l-12 12zM117 328q0 -22 20 -101q0 -16 -4 -28q12 -18 35 -68q14 -33 47 -43q4 8 4 23q0 8 -3 35.5t-3 35.5q0 39 23 62l36 -25 q34 -24 45 -24q25 31 25 84q0 51 -4 63q-9 22 -51 25q-25 -31 -51 -31q-16 0 -95 43q-24 -18 -24 -51z" />
<glyph unicode="/" horiz-adv-x="686" d="M47 -139l416 1911h176l-416 -1911h-176z" />
<glyph unicode="0" horiz-adv-x="1157" d="M61 928q9 62 56 250q41 166 41 245v56q27 58 30 65q20 45 43 45q6 1 18.5 -3.5t14.5 -4.5q23 -4 107 16q43 0 57 -36q27 9 72 51l45 45q20 0 82 -10q59 -9 86 -9q18 0 22 2q29 -31 72 -71q37 -42 53 -99q2 0 43 21q38 19 62 16q30 -34 45 -147q14 -119 47 -166 q39 -403 39 -573q0 -315 -111 -459q-125 -162 -424 -162q-259 0 -379 135q-112 127 -112 389q0 94 -9 404zM178 1343q16 0 21 5l4 -5q28 -23 39 -32q48 -39 75 -39q16 0 76 84q27 41 58 41q24 0 47 -23q2 -2 10 -13t26.5 -37t38.5 -52q0 60 7 84q9 37 49 67 q19 -7 35.5 -13.5t25 -10t10.5 -4.5q42 -20 56 -52q35 54 71 54q26 0 41 -41q63 -34 90 -117q12 -37 29 -154l8 64q0 31 -10 96l-24 119q0 8 6 34.5t6 33.5q0 20 -39 26q-7 -7 -29 -18q-37 -21 -53 -21q-76 168 -174 180q-14 1 -56.5 6.5t-68.5 8.5q-100 -103 -125 -103 q-12 15 -16 19q-18 18 -54 22l-79 -8q-8 2 -17 2q-15 3 -22 10q-46 -27 -52 -92zM483 535q0 -304 95 -304q104 0 104 218q0 3 -4 151l-4 125v481q-5 16 -12 27q-14 28 -25 39q-21 0 -39 -43t-29 -43q-18 0 -45 53l-12 -12q-25 -217 -25 -469q0 -64 -2 -123z" />
<glyph unicode="1" horiz-adv-x="745" d="M23 1356q-3 119 83 119q37 0 66 -13q38 85 39 86q35 60 90 60q31 0 51 -17q7 -4 13 -18q16 0 30 20q0 2 2 4q5 -20 -9 -46.5t-32 -26.5q-9 0 -32 26.5t-31 26.5q-45 0 -72 -55q-9 -25 -27.5 -71.5t-21.5 -53.5q-2 0 -29 24q-23 26 -37 23q-35 -8 -45 -41q-6 -18 -6 -68 q0 -125 76 -186l17.5 35t15 29t8.5 16q35 53 57 61q14 -48 25 -67q21 -37 51 -37q63 0 90 92q30 94 74 94q57 -113 94 -145q0 270 -65 397q-46 -16 -70 -16q-13 0 -16 6q3 28 110 43l49 -150q49 -6 68 -22q33 -26 33 -84v-1401h-383l4 995q0 13 -82 13q-47 0 -109 -4 q-67 0 -67 53l8 45q0 56 -8 127q-8 84 -12 127z" />
<glyph unicode="2" horiz-adv-x="1216" d="M68 211q0 172 168 315q167 131 311 250q168 143 168 297q0 199 -107 199q-61 0 -88 -70q-13 -29 -28 -137q-1 -7 -2 -16.5t-2 -16t-1 -10.5q0 -34 13 -107h-418l-12 80q0 629 225 629q50 0 72 -31q82 64 149 64q25 0 84 -41q25 -18 53 -43q81 63 215 63q39 0 78 -20 q127 -68 127 -289q78 -132 78 -283q0 -255 -186 -374q-2 -1 -18.5 -10.5t-46 -27t-68.5 -40.5l-97.5 -57.5t-120.5 -71.5q87 -9 101 -12q44 -12 65 -56q52 43 109 43q27 0 82 -22q53 -21 61 -21q13 0 21 8q77 -35 80 -176q3 -98 18 -227h-1065l-16 174q-2 14 -2 37z M133 1315q0 -27 21 -76t45 -49q9 0 73 94q66 96 86 96q23 0 82 -77q32 -40 35 -64q14 58 43 127q44 92 84 92q35 0 92 -57l9 -9t11.5 -12.5t15.5 -17t18 -19.5q23 0 51 31q7 7 45 62q89 0 123 -125q47 -175 57 -187l12 131q0 17 -6 58l-10 51q0 4 8 30t8 33q0 38 -71 109 q-70 70 -113 70q-46 0 -125 -39q-68 -34 -90 -47q-124 86 -145 86q-19 0 -66 -35q-44 -35 -72 -35q-17 0 -45 25q-27 24 -41 24q-68 0 -108 -106q-27 -77 -27 -164zM459 274q-2 -16 2.5 -39.5t13.5 -23.5l41 37q21 18 37 18q28 0 55 -43q10 -13 21 -45q20 6 55 53 q36 48 64 48q59 0 86 -74q10 -30 30 -80q26 69 43 92q30 49 66 49q25 0 39 -39q3 -3 12 -41q29 110 29 154q0 17 -160 55q-13 3 -37 -12q-65 -41 -92 -41q-8 0 -21 23q-26 51 -198 51q-29 0 -56 -58q-24 -46 -30 -84z" />
<glyph unicode="3" horiz-adv-x="1173" d="M59 463q0 77 27 160q34 110 94 110q17 0 150 -71q24 12 35 12q6 0 36 -12q0 51 2 86q6 178 23 239q-86 12 -188 12q-5 0 -24 -2t-24 -2q-122 0 -122 103q0 41 20 114l39 152q0 8 -6 38t-6 38q0 36 51 104q49 67 80 92q32 0 168 -59q89 77 133 80q36 3 100 -55 q171 0 211 -9q0 -11 115 -141q55 -61 55 -113q0 -16 -2 -20q47 -103 47 -221q0 -178 -108 -252q-20 -13 -54 -25q207 -121 207 -370q0 -260 -162 -367q-131 -84 -405 -84q-492 0 -492 463zM100 586q-3 -35 97 -174h32q0 95 64 125q13 -13 47 -150q15 -64 37 -80l22 105 q11 64 11 88q0 73 -33 129q-24 -6 -43 -6q-40 0 -80 34q-40 37 -57 37q-27 0 -62 -41t-35 -67zM147 1393q0 -32 43 -66q44 -33 76 -33q21 0 68 92q21 46 43 46q14 0 72 -64q29 -33 57 -33q24 0 74 92q12 23 20.5 34t13.5 9q17 -3 56 -71q40 -72 47 -88q31 16 37 88l12 28 q71 15 127 -112q7 -17 31.5 -76t42.5 -102l28 161q0 53 -69 140q-18 22 -53 64t-52 63q-2 2 -57 2q-12 -3 -113 -6q-20 -3 -49 20q-28 25 -47 25q-37 0 -78 -41t-59 -41q-133 53 -164 53q-58 0 -107 -184zM422 649q0 -84 63 -84q0 -142 2 -162q9 -98 52 -145q19 -8 49 -8 q46 0 67 37q0 10 4 84q7 65 7 82v45q-6 21 -9 30q9 90 -75 111l-18 1q-17 1 -56.5 3.5t-85.5 5.5zM453 954q0 -12 24 -47q27 -39 29 -45q8 14 29 17q10 0 26 -13q1 -1 43 -32q3 13 21 53q14 32 14 55q0 37 -39 37q-5 0 -17 -12.5t-16 -12.5q-14 -3 -35 35q-20 39 -38 39 q-10 0 -25.5 -30.5t-15.5 -43.5zM477 1147q0 -27 8 -66q24 0 86 -45q13 13 29 13t35 -13q1 2 4 70l4 113q-16 20 -22 30q-26 34 -33 37q-52 -37 -56 -37q-5 0 -8 6l-14 13q-33 -44 -33 -121z" />
<glyph unicode="4" horiz-adv-x="1200" d="M23 350v295q358 391 358 801q0 45 -8 110q34 101 129 101q13 0 49 -39q40 -37 55 -37q13 3 37 33q25 31 33 31q127 15 215 -166q-174 -375 -518 -707q56 -33 143 -33q31 0 57 11l13 170q137 143 364 503q2 -26 8 -71q5 -34 23 -70v-528q0 -22 33 -25l35 -4 q5 -1 17.5 -2.5t18 -3t14.5 -6t15.5 -13t13.5 -22.5q0 -62 29 -62v-266h-176v-354h-395v332l-23 22h-540zM268 604l4 -96q6 3 18 8.5t15 7.5q36 16 51 21q56 0 76 -45q16 19 35 35q34 32 47 38q10 0 45 -24q43 -34 55 -37q-9 104 -63 178q-8 -8 -29 -8q-50 0 -129 27 q-38 0 -61 -39h-19q-48 -9 -45 -66zM424 1581q3 -22 6 -55q0 -12 -2 -46t-2 -46q0 -82 55 -103q0 67 105 119l37 -98q5 9 14 26.5t14 26.5q26 45 78 45q57 0 72 -61q41 59 41 118q-118 95 -150 95q-10 0 -22 -31q-15 -37 -27 -43q-56 12 -115 53q-39 24 -43 25q-11 2 -28 -2 q-5 -3 -16 -11.5t-17 -11.5zM989 637q35 -9 35 -76q0 -31 4 -43q11 -18 41 -26q31 42 31 94q1 9 2 19.5t1.5 15.5t0.5 8q0 22 -103 69z" />
<glyph unicode="5" horiz-adv-x="1153" d="M66 354q0 83 20 162l35 37l-23 29l8 938q47 54 50 57q33 33 75 33q35 0 88 -39l56 -43q4 0 49 39q48 41 88 47l78 -4q64 -82 129 -82q4 1 15.5 4t35 10t43.5 12q50 15 80 15q27 -117 92 -117q12 0 16 2q13 -83 13 -143q0 -71 -21 -154q-24 12 -51 12q-9 0 -35 -57 q-27 -55 -55 -55q-12 0 -18 20q-15 55 -70 80l-293 -4q-14 -25 -14 -63q0 -40 22 -62l82 84q35 -30 101 -39q18 -3 61 -6q18 -11 29 -47l24 8q3 0 39 -31t49 -34q3 3 8.5 7t17.5 11t19 6q115 0 115 -84q-8 -19 -8 -37q0 -32 24 -78q56 -109 56 -313q0 -271 -120 -391.5 t-390 -120.5q-246 0 -369 72q-151 89 -151 319zM133 467q0 -41 49 -59l17 8q4 0 45 -62q41 -59 75 -59q5 36 13 55q21 58 63 58q6 18 6 30q0 56 -57 56q-10 0 -38 -11.5t-34 -11.5q-19 0 -118 45q-11 3 -16 -9t-5 -40zM145 1487q0 -45 35 -92q38 -47 80 -47q75 0 117 22 q50 40 63 49q11 -5 17 -16q0 -1 3 -6t7 -8q0 -28 37 -62q86 -80 94 -92q15 68 33 96q38 53 121 53q28 -35 112 -247q54 187 54 243q0 86 -58 144q-24 0 -82 -23q-65 -28 -80 -31q-4 2 -19 10t-22 12l-21 12t-22.5 14t-19 14.5t-19 17.5t-14.5 19q-80 -9 -131 -49 q-53 -41 -55 -41q-40 -3 -82 39q-38 44 -86 47q-28 0 -45 -23.5t-17 -54.5zM240 557h71q-12 -12 -32 -12q-15 0 -39 12zM354 557q37 -12 43 -16q49 -28 52 -68l14 -131q10 4 22 8q30 12 35 12q12 0 64 -30q56 -29 69 -29l9 330q0 30 -38.5 53t-76.5 23q-80 0 -80 -97 q5 -29 -13 -44t-59 -15q-25 0 -41 4zM475 266q0 -13 29 -53q69 -87 76 -117q49 0 49 21q0 5 -21 57q-14 28 -14 45q0 4 4 8q-16 6 -25 47q-9 33 -53 33q-24 0 -35.5 -10.5t-9.5 -30.5zM492 946q0 -30 28.5 -57t59.5 -27q14 0 29 4t27.5 10t22.5 12.5t17 10.5l6 4 q39 0 66 -80q15 -45 43 -61l3 57t3 58q9 47 43 65q-14 5 -64 10q-47 6 -63 31q-14 26 -152 61zM496 1450l24 12l74 -8q2 -10 2 -22q0 -56 -51 -56q-26 0 -41 49q-1 2 -2 5.5t-2.5 9t-3.5 10.5zM893 895q0 -12 20 -51q53 -95 56 -115q0 93 24 154l-43 59q-51 0 -57 -47z" />
<glyph unicode="6" horiz-adv-x="1208" d="M68 528l8 467q0 61 20 142l39 182q0 8 -4 39t-4 39q0 16 10 43q12 40 15 43q13 55 26 80q20 39 68 39q24 0 88 -25q30 -12 43 -12q15 0 39 18q64 46 114 49q14 0 158 -26q48 0 80 32q4 2 14 19q6 -2 49.5 -18.5t75.5 -28.5q23 -42 56 -94q61 -101 79 -148q52 -46 64 -172 l12 -160l-20 -24l-252 -4q58 -49 109.5 -92.5t74 -62t23.5 -19.5q98 -104 98 -236v-45q-2 -20 -2 -45v-16q0 -262 -143 -381q-132 -111 -400 -111q-250 0 -375 98q-169 132 -163 430zM168 1407q8 -3 35 -55q28 -54 63 -54q10 0 74 58q34 30 53 33q18 0 150 -191q29 0 32 -24 q2 -12 -9.5 -18.5t-35.5 -6.5l-8 -137q53 50 86 47q33 -2 51 -2q12 0 33 -27q24 -24 39 -24q8 0 10 2q-21 27 -30 104q-12 90 -25 119q-21 55 -74 55q-19 0 -22 -26q-3 -27 -15 -33q-45 74 -45 129q0 18 52 94l24 37q60 0 125 -62q64 -61 74 -61q9 0 22 29q12 30 39 30 t76 -100q25 -57 45 -104q9 25 12 43q13 54 13 81q0 38 -76 148q-82 123 -143 123q-98 -58 -125 -58q-20 0 -70 13q-47 12 -72 12q-37 0 -65 -22q-62 -53 -80 -56q-5 0 -84 31q-44 16 -59 14q-41 0 -41 -61l4 -29q-3 -41 -33 -51zM254 1444l4 6q36 -6 52 -18t12 -29 q-6 -2 -17 -2q-32 0 -44.5 10.5t-6.5 32.5zM502 414q0 -26 8 -78q15 24 37 51q46 49 80 43q64 -12 73 -68q13 76 13 152q0 168 -107 168q-104 0 -104 -221v-47zM530 942q0 -38 48 -98q51 -60 86 -60q32 0 59 27q14 14 31 14q18 0 61 -73l84 -144q25 214 25 266 q-20 25 -41 46q-51 45 -99 45q-39 -31 -67 -23q-8 2 -53 35q-34 24 -66 24q-43 0 -57 -20q-6 -13 -11 -39zM551 262q0 -27 29 -90q30 -65 55 -68q20 -3 45 70q20 61 20 92q0 35 -32 70q-31 38 -62 35q-55 -3 -55 -109z" />
<glyph unicode="7" horiz-adv-x="1155" d="M55 1190q0 396 62 467q130 0 192 -33q4 -2 36 -18.5t56 -28.5q30 0 142 47q13 0 56 6t56 6q27 0 78 -39q26 -20 53 -20l50 19q50 18 79 18q150 0 185 -92q6 -17 16 -152q0 -5 6 -131q-166 -205 -252 -387q-100 -205 -127 -440q-18 -150 -18 -412h-508q0 556 516 1157 h-657zM94 1503q0 -2 2 -4q99 -30 146 -98q42 -67 84 -129q30 0 129 108q46 52 100 52q15 3 76 -58q62 -59 96 -59q10 0 55 45q47 47 80 47q50 0 105 -141q27 -68 63 -68q22 0 25 117v184q0 66 -107 66q-26 0 -84 -15q-55 -14 -82 -14q-9 0 -51 31q-41 30 -72 30 q-32 0 -114 -36q-81 -37 -127 -37q-22 0 -113 45t-141 45q-70 0 -70 -90v-21z" />
<glyph unicode="8" horiz-adv-x="1198" d="M59 455q0 203 195 295q-170 132 -170 290q0 189 76 283q-4 20 -8 61l-2 35q0 149 104 158q9 0 34.5 -8t28.5 -8q15 0 54 22q88 53 106 57q36 0 88 -14q55 -15 82 -12q19 0 55 28q18 15 35 15q23 0 56 -39q18 -21 36 -21q47 0 115 -102q33 -51 78 -63q0 -16 61 -187 q31 -88 31 -147q0 -220 -166 -314q193 -123 193 -354q0 -220 -172 -334q-149 -96 -377 -96h-25q-229 0 -364 111q-144 120 -144 344zM176 1458q0 -22 49 -86q24 -30 51 -61q25 0 76 45q53 47 66 47q45 0 82 -64q37 -61 67 -67q3 0 27 80q27 80 65 80q17 0 46 -29 q28 -28 40 -31q31 25 52 25q49 0 90 -80q42 -119 71 -197h13l16 240q3 22 -37 65l-100 115l-113 78q-17 0 -30 -10q-35 -27 -76 -27q-15 0 -66 6t-67 6q-57 0 -109 -43t-61 -43q-8 0 -49 13q-35 12 -46 12q-45 0 -57 -74zM502 1008q0 -29 2 -37q14 21 18 26q26 30 45 27 q44 -10 113 -70q6 62 6 111q0 190 -63 199q-8 1 -21.5 -20t-17.5 -21q-5 0 -27 6t-27 6q-9 1 -15 -16.5t-9.5 -54.5t-3.5 -93v-63zM514 496q0 -24 4 -134q27 38 49 41q10 -10 24.5 -23.5t18.5 -17.5q49 -44 78 -47q17 112 17 162q0 172 -105 172q-86 0 -86 -153zM530 942 q2 -28 33 -88l7 -10l10 -15q0 16 34 37q37 21 37 37q0 20 -33 53q-30 35 -51 35q-19 1 -28 -11t-9 -38zM535 319q0 -15 24 -49q34 -46 35 -49q9 -21 12 -57q3 -38 21 -35q17 0 32 57q0 17 -14 60q-9 40 -6 61q-23 3 -43 29t-29 26q-26 -9 -32 -43z" />
<glyph unicode="9" horiz-adv-x="1148" d="M59 1008q0 134 52 274q-15 50 -15 57q0 97 76 185q94 108 238 108h47v-4q1 0 38.5 14.5t63.5 14.5q9 0 111 -29q100 -29 127 -31q9 -23 86 -61q67 -34 61 -78q24 -11 34.5 -37t10.5 -86q76 -122 94 -313q7 -72 7 -131q0 -532 -89 -696q-109 -195 -471 -195 q-203 0 -319 98q-125 107 -125 308q0 44 6 94q99 6 184 6h93q69 -3 125 -19v-108l32 16l43 -37q46 -37 70 -34l20 292l-45 9q-23 0 -75 -19q-53 -16 -74 -16q-406 0 -406 418zM127 1343q0 -43 47 -67q40 -21 88 -21q8 0 45 9q47 92 86 92q21 0 62 -56q26 -36 80 -61v33 q0 139 38 139q25 0 66 -20q46 -19 66 -19q4 4 20 12q3 0 21 -6t24 -6q3 0 27 17q109 -160 157 -291q9 21 9 71v33q0 64 14 72l-35 135q-22 55 -78 94q-62 45 -76 62h-43q-29 0 -69 16q-81 37 -113 37q-31 0 -63 -14q-56 -24 -88 -35q-3 0 -17 9.5t-18 10.5q-98 -41 -125 -59 q-125 -82 -125 -187zM483 1073q0 -75 6 -115q0 -1 5 -26q15 30 18 35q21 37 27 37q11 0 47 -31q41 -30 45 -31q14 0 37 29q0 142 -4 188q-12 96 -91 96q0 -49 -2 -53q-3 -33 -32 -33q-4 0 -37 33q-19 -40 -19 -129zM510 287q0 -43 39 -105q21 -37 31 -37q12 3 12 17 q-1 8 -2 29.5t-2 31.5q3 4 8 11.5t9.5 14.5t8.5 13q-24 30 -30 37q-34 37 -56 37q-18 0 -18 -49zM510 866q0 -27 20.5 -62t42.5 -36q11 -2 20.5 9t18.5 34q17 46 27 88q-16 -16 -31 -16q-16 0 -38 25l-23 24q-11 0 -24 -25.5t-13 -40.5z" />
<glyph unicode=":" horiz-adv-x="475" d="M61 172q0 39 2 49q9 62 31 137q34 105 70 105q24 0 80 -53q29 -26 53 -23l22 4q21 0 43.5 -15.5t22.5 -33.5q21 -138 21 -338l-21 -20l-301 8q-23 125 -23 180zM72 750q0 60 26 139q34 102 74 102q25 0 61 -39q40 -37 72 -37l23 5q14 0 39.5 -18.5t25.5 -31.5 q21 -138 21 -338l-21 -20l-301 8zM111 307q2 -6 5 -14.5t13.5 -22.5t22.5 -14q44 0 79 -92q18 -52 54 -68q4 27 59 113q27 43 27 70q0 22 -15 43l-18 28q-9 12 -29 12q-4 0 -18.5 -12t-18.5 -12q-25 0 -55 41q-27 43 -53 43q-12 0 -33 -53q-22 -55 -20 -62zM119 836 q2 -6 5 -14.5t13.5 -23t22.5 -14.5q45 0 80 -92q18 -52 53 -67q3 27 39 94q35 65 35 104q0 21 -2 27q-11 25 -15 29q-12 12 -33 12q-4 0 -18 -12.5t-18 -12.5q-26 0 -56 41q-27 43 -53 43q-12 0 -33 -53q-22 -55 -20 -61z" />
<glyph unicode=";" horiz-adv-x="452" d="M66 -225q0 16 8 57q9 45 6 59l110 113q-5 5 -53 8q-46 3 -57 11l6 331q0 20 35 70q36 51 55 51q22 0 43 -41q23 -39 31 -39q6 0 35 19q29 20 41 20q35 0 53 -57l22 -64v-211q0 -69 -6 -90q-9 -29 -53 -69l-242 -230q-25 11 -34 62zM74 768q0 42 16 111q24 82 60 82 q20 0 57 -27q20 -14 29 -14q28 28 59 28q67 0 84 -33q-6 -21 -6 -36t17.5 -47t17.5 -39l-9 -244h-309l-12 12zM115 299q0 -13 22 -49q22 -32 39 -35q10 8 27 31q7 10 12 10q16 3 43 -47q16 -28 27 -31q67 49 67 131q0 78 -30 78l-14 -9q-15 -8 -32.5 -16t-25.5 -8 q-33 0 -74 80q-61 -18 -61 -135zM121 877q0 -22 20 -101q0 -16 -4 -28q12 -18 35 -68q14 -33 47 -43q4 8 4 22q0 8 -3 36t-3 36q0 39 23 62l36 -25q36 -25 46 -25q24 30 24 84q0 52 -4 64q-9 21 -51 24q-24 -30 -51 -30q-16 0 -95 43q-24 -18 -24 -51z" />
<glyph unicode="&#x3c;" horiz-adv-x="1036" d="M4 659v111l989 444v-157l-788 -342l788 -338v-158z" />
<glyph unicode="=" horiz-adv-x="1110" d="M63 461v188h988v-188h-988zM63 786v189h140q0 43 2 49q21 106 147 106q37 0 92 -14q59 -12 84 -12l123 18q137 0 137 -16q0 -23 58 -53q28 -16 28 -29q3 -9 0 -25q-1 -4 -2 -12.5t-2 -11.5h181v-189h-988zM295 1057q1 -7 21 -31.5t20 -34.5q-8 -8 -8 -18q3 -20 174 -84 q11 16 -17 76q0 27 56 36q23 3 100 -18q40 -12 59 -12q20 0 36 16.5t16 36.5q0 55 -109 55q-11 0 -52 -9t-54 -9q-32 0 -76 8q-111 18 -117 18q-11 0 -30 -11.5t-19 -18.5z" />
<glyph unicode="&#x3e;" horiz-adv-x="1069" d="M76 219v158l788 338l-788 342v157l989 -444v-111z" />
<glyph unicode="?" horiz-adv-x="1138" d="M41 1462q12 31 54.5 62.5t74.5 31.5l49 -24q67 125 180 125q22 0 43 -11.5t32 -23.5t9 -12q20 -4 111 35q29 0 49 -33q26 -32 51 -35q28 -3 70 25q40 30 45 30q69 0 109 -98q15 -40 79 -131q54 -81 68 -137q39 -160 39 -217q0 -162 -107 -263l-200 -143 q-111 -79 -111 -176q0 -57 29 -86q8 -8 28 -14v-367h-385v412q33 20 33 96v49q0 79 170 279q80 92 80 186q0 27 -23 117q-27 92 -47 92q-7 0 -27 -26.5t-30 -26.5q-4 0 -14 10t-13 10q-26 0 -26 -266h-404q-5 54 -8 201zM70 1393q0 -139 137 -166q21 0 78 69q63 72 73 72 q73 0 107 -61q39 -74 51 -76q21 176 86 176q26 0 84 -55t74 -58q-2 21 2 39q12 39 61 39q54 0 54 -78q0 -30 118 -374l13 282q3 97 -35 166q-40 9 -86 113q-43 98 -103 98q-10 -12 -30 -35q-29 -33 -43 -33q-29 0 -90 52q-29 26 -52 26q-17 0 -45 -22q-30 -23 -37 -23 q-78 66 -120 66q-49 0 -80 -60q-30 -59 -84 -59q-5 0 -28 6t-30 6q-29 0 -52 -37.5t-23 -72.5zM395 379q0 -16 25 -47q24 -30 41 -33q6 -2 18 2q15 6 21 6q42 0 71 -39q7 -12 15.5 -25t19.5 -28.5t17 -24.5q70 82 67 129q-2 28 -20 62.5t-37 34.5q-3 -1 -37 -7t-51 -10 q-4 1 -29 11t-41 10q-6 -1 -18 -2t-17 -2q-10 3 -20 10q-10 0 -25 -47z" />
<glyph unicode="@" horiz-adv-x="1615" d="M51 735q0 325 232 551q229 223 559 223q293 0 497 -168q224 -181 224 -464q0 -221 -150 -402q-156 -194 -373 -194q-50 0 -83 29.5t-33 78.5q-108 -108 -219 -108q-143 0 -236 106q-94 107 -94 250q0 200 119 346q127 160 319 160q162 0 248 -133l26 108h181l-119 -522 q-12 -53 -12 -100q0 -29 28 -29q112 0 176 131q56 109 56 229q0 247 -158 387q-150 132 -401 132q-265 0 -424 -175q-160 -174 -160 -440q0 -270 170 -440q169 -166 442 -166q252 0 430 166h183q-222 -330 -625 -330q-333 0 -569 219q-234 220 -234 555zM596 668 q0 -183 160 -183q106 0 178 90q65 83 65 195q0 78 -44 126t-119 48q-100 0 -172 -90q-68 -83 -68 -186z" />
<glyph unicode="A" horiz-adv-x="1140" d="M39 0q0 33 76 371q59 268 147 639l90 387q-33 26 -33 73q0 123 95 123q33 0 45 -4q20 -12 30 -16q6 -3 24.5 20t33.5 23q14 0 24.5 10t15.5 20l5 11q17 -3 90 -6q56 -1 80 -17t24 -49l-4 -29q0 -24 39 -77q21 -30 21 -52q-3 -120 -13 -237q13 -61 68 -289 q76 -317 127 -555q71 -321 74 -346h-361l-69 254h-230l-73 -254h-326zM356 1511q0 -19 11 -45q39 -79 39 -161v-39q-3 -24 -3 -37q0 -31 11 -31q24 0 24 82v63q6 41 35 41q12 0 39 -79q28 -80 35 -82q0 141 20 141q6 0 27 -104q21 -103 53 -103q10 10 21 51q1 5 16 52 q0 8 -10 29t-10 26q0 31 12 28q1 0 14 -22t15 -27q13 -17 40 -135q27 -119 33 -119l7.5 45t7 45t4.5 31q20 137 20 195q0 94 -31 125q-16 16 -16 22l4 29q0 31 -22 61.5t-47 30.5q-12 -10 -29 -14l-30 14q-27 13 -37 12h-1q-14 -4 -22 -34q-9 -33 -19 -33l-20 4 q-7 0 -17 -10q-18 -27 -28 -27q-19 0 -60 20q-26 13 -32 13q-54 0 -54 -58zM477 557q0 -7 10 -92q12 -78 15 -78q2 0 37 35q35 38 49 41q2 0 18 -4q2 0 10 -4q0 16 2 26q-3 24 -14 43l-20 -4q-10 0 -43 23q-31 22 -43 22q-10 0 -21 -8zM485 612q89 -54 123 -54q8 0 13 3 l-50 377q-13 -19 -61 -211q-24 -108 -25 -115zM612 1546q0 27 39 27q41 0 41 -8q0 -13 -33 -13q-7 -3 -21.5 -8t-21.5 -8q-4 4 -4 10z" />
<glyph unicode="B" horiz-adv-x="1144" d="M68 1380q0 181 73 181q18 0 36.5 -6.5t30 -12.5t13.5 -6q68 121 111 121q134 -96 252 -96q171 0 299 -88q188 -129 188 -404q0 -156 -65 -233q-26 -30 -66 -48q145 -62 145 -276v-264q0 -113 -57 -176q-63 -72 -170 -72h-702l-50 18l-2 1055q-36 239 -36 307zM84 1401 q0 -33 8 -90q21 -156 21 -170l20 -43q74 138 96 233q9 41 45 41q14 0 35 -61q22 -60 31 -60q23 0 94 121l25 -31q27 -30 39 -30l59 55q27 27 51 27q8 0 37.5 -14.5t38.5 -14.5l21 8q8 -3 34 -59q27 -58 60 -58q59 0 59 72q-12 27 -16 39q1 1 2 4.5t2 5.5q46 0 80 -55 q14 -36 55 -133l4 49l2 35q3 52 -98 131q-23 17 -72 49.5t-72 48.5q-22 16 -139 31q-102 12 -151 12q-2 0 -10.5 -14.5t-14.5 -13.5q-8 14 -25 36.5t-20 26.5q-33 45 -49 45q-51 -3 -72 -76t-22 -73q-20 0 -60 30q-42 31 -69 31q-12 0 -21 -59q-8 -47 -8 -76zM498 1028v-7 q0 -63 49 -63q11 0 43 20.5t55 20.5q2 0 6.5 -0.5t13 -1.5t15.5 -2l-12 150q-15 41 -82 41q-38 0 -84 -21zM510 612l4 -217q25 31 45 31q6 0 51 -39q46 -37 67 -37h3q20 50 20 105q0 87 -28 166q-34 12 -92 12q-49 0 -70 -21zM512 885q0 -92 27 -92q8 0 26.5 24.5t26.5 24.5 q10 0 26 -29q15 -28 27 -25q15 3 21 66q0 17 2 29q0 32 -35 67q-6 -30 -41 -39q-8 0 -41 13q-28 14 -37 14v-23q-2 -10 -2 -30zM514 203q20 -26 33 -29q2 -1 4 -1q18 0 57 44q43 49 60 49q6 2 15.5 -12t21.5 -43l4 37q0 24 -74 59q-71 38 -80 72q-11 -14 -27 -82 q-14 -60 -14 -94z" />
<glyph unicode="C" horiz-adv-x="1132" d="M63 733q0 93 21 369q21 307 37 330q34 46 121 88q59 27 65 77q83 56 139 56q59 0 109 -33q54 -31 70 -31q7 0 33 6.5t34 6.5q55 0 107 -64q83 -118 100 -141q11 0 45 15t45 15q74 0 74 -141q0 -22 -10 -67q-9 -39 -11 -37q17 -192 17 -299h-367q-13 23 -16 55v14 q0 25 2 37q0 254 -107 254q-51 0 -77 -69l4 -719q21 37 65 37q23 0 64 -27q39 -26 32 -49l13 -17q10 24 37 234h368v-162q0 -245 -100 -354q-105 -117 -344 -117q-234 0 -359 70q-149 88 -190 295q-21 111 -21 368zM117 1137q0 -85 63 -133q9 73 19 129q27 129 75 129 q35 0 35 -66v-25q0 -6 -2 -10h1q13 0 36 105q24 106 74 106q8 1 27.5 -3.5t21.5 -4.5q15 0 31 31q17 32 49 32q17 0 51 -51q34 -49 39 -49q11 0 45 37t47 37q6 0 43 -119q37 -117 82 -117q8 0 28.5 18.5t28.5 18.5q22 0 52 -76q20 -46 43 -106q-2 12 -2 35v24q0 47 8 80 q20 84 20 105q0 29 -22 84q-21 53 -49 53q-50 0 -50 -76q4 -28 4 -33q0 -57 -28 -57q-12 0 -21 25q8 16 8 30q0 9 -10 39t-10 39l8 25q-6 33 -84 114q-54 54 -82 54l-4 -3l-12.5 -7.5t-16 -8.5t-19 -7t-19.5 -3q-15 0 -86 47q-70 49 -93 49q-56 0 -102 -49 q-68 -100 -74 -109q-15 9 -32 9q-48 0 -82 -105q-39 -118 -39 -237zM317 1462q1 3 11 29q23 26 45 29q24 0 28 -4q0 -15 -39 -35q-38 -21 -45 -19zM471 248q0 -43 31 -103l67 58q3 -27 45 -47q41 -19 58 -27q33 20 33 100v29q0 55 -54 115q-52 57 -108 69q-72 -97 -72 -194z M535 295v6q3 20 36 23q9 -9 9 -19q0 -5 -5 -8.5t-8 -3.5q-14 -3 -16 -10zM596 1470l4 9q2 2 6 2q7 0 17 -13q0 -8 2 -10h-9q-16 0 -20 12zM707 1440q9 15 26 18q34 0 37 -14q0 -23 -14 -23q-4 0 -18 7.5t-17 7.5l-12 -4q-3 1 -3 4q0 2 1 4z" />
<glyph unicode="D" horiz-adv-x="1210" d="M66 1528q0 51 36.5 88t87.5 37q27 0 91 -49q70 -48 77 -48q35 0 50 41q4 1 10 1q23 0 71 -9q75 -16 89 -16q31 0 69 41q40 43 72 43q48 0 88 -37q13 -16 38.5 -46t39.5 -46q5 -1 35.5 5.5t33.5 6.5q47 0 105 -110q50 -92 53 -127q29 -50 29 -674v-248l-2 -174 q-12 -99 -76 -148q-74 -59 -211 -59h-725v1239q0 2 -8 9.5t-8 15.5q0 40 -23 137q-22 93 -22 127zM127 1516l4 -109q37 -27 37 -129v-35q0 -8 -2 -14q6 61 53 61q37 0 47 -2q9 0 15 -2q0 27 45 72t73 45q11 0 78 -55q5 0 31 26q27 27 49 27q5 0 76 -53q40 -29 61 -29 q18 0 33 49q15 51 29 51q20 0 41 -30q23 -29 24 -29q8 -3 47 22q21 15 29 15q26 0 61 -54q5 -9 28.5 -54.5t37.5 -69.5l4 133v13q0 41 -16 83q-21 59 -66 59q-11 1 -31.5 -7.5t-21.5 -8.5q-40 0 -80 61q-42 63 -111 72q-15 0 -55 -49q-38 -47 -69 -47q-26 0 -84 12 q-59 12 -86 12q-18 -53 -54 -53q-11 0 -82 53q-73 54 -98 54q-22 0 -34.5 -29t-12.5 -61zM528 1219l9 -824l110 6q67 3 88 15l-16 749q-12 66 -109 66q-30 0 -82 -12zM541 244q0 -16 22 -58q23 -36 41 -36q15 0 39 94q18 0 57 -45q42 -42 60 -49q-1 4 -2 9l-1.5 7.5 t-0.5 3.5q0 8 7 38t7 38q0 23 -33 43q-40 27 -43 35q-80 22 -100 22q-12 0 -16 -4v-6q0 -25 -23 -57q-14 -17 -14 -35z" />
<glyph unicode="E" horiz-adv-x="1220" d="M63 1536q35 30 64 57q45 39 86 39q19 0 84 -33q67 -30 92 -30q20 0 103 59q34 25 48 25h3q109 -21 153 -80q123 0 197 22q90 35 145 54q24 0 80 -35q0 -345 -28 -412l-365 -8q-45 -45 -66 -45q-32 37 -71 37q-64 0 -64 -99q0 -36 15 -141q27 49 98 49q61 0 78 -20 q9 -12 18 -12q51 45 74 45q2 0 18 -4q3 0 13 -5q8 -91 8 -241v-58l-2 -12l-1.5 -9t-0.5 -5q-10 -13 -66 -19q-14 0 -26 -2q-7 -7 -21 -67q-15 -65 -33 -74l-30 88q-14 34 -25 53l-63 -4q-35 -3 -48 -16l13 -162q27 0 37 2l79 10q80 0 115 -53q30 12 68 12q14 0 135 -26 q63 -13 78 -13q4 -4 24 -43q20 -38 43 -38q13 0 17 2q3 -128 12 -299l-29 -25h-977l-20 20v895q0 340 -62 621zM117 1479q0 -73 45 -215q47 -149 47 -207q-1 5 -2 18.5t-2 20.5q-6 58 -6 88q0 123 51 123q2 0 27 -8.5t34 -8.5h2q22 0 43 64q24 65 56 65q54 0 69 -69 q6 -51 13 -103q34 137 61 137q32 0 66 -69q8 -21 24.5 -59t18.5 -42q47 158 94 158q22 0 51 -20l33 -21l20 60q18 59 33 59q68 0 104 -39q50 52 66 74q25 42 25 96q0 7 -25 19q-22 11 -29 10h-2q-168 -82 -309 -82q-50 0 -98 31q-47 30 -54 30q-51 0 -100 -37 q-48 -36 -72 -36q-29 0 -82 30q-54 31 -90 31q-77 0 -100 -29q-12 -15 -12 -69zM555 336q0 -141 51 -141q49 0 84 38q38 41 35 41q2 0 59 -69q59 -68 78 -68q30 0 82 107q4 1 8 1q36 0 66 -52l37 -80q-6 15 -6 32q0 32 14 60l31 65q0 34 -107 86q-87 41 -125 47l-10 -10 q-17 -14 -78 -14q-11 0 -65 31q-49 32 -93 32q-22 0 -43 -41q-18 -41 -18 -65zM563 850q12 -57 66 -66l67 -184q105 176 105 324q0 16 -2 26q-18 -35 -62 -35q-7 0 -47 19q-29 16 -51 16h-6q-32 -6 -54 -38q-17 -25 -17 -49q0 -6 1 -13z" />
<glyph unicode="F" horiz-adv-x="1124" d="M72 1477q0 43 55 98q22 22 72 57q21 -4 65 -12l66 -12q98 -22 119 -43q28 0 159 61q67 31 90 31l97 -27q21 -8 41 -8q12 0 16 2q12 -59 49 -59q15 0 62 12q16 4 32.5 8t23.5 5.5t9 2.5q31 1 53 -27q17 -21 16 -44q0 -7 -1 -15l-19 -321l-20 -21h-422q-3 -3 -23 -71 q-9 -35 -22 -45q-36 45 -74 104q-8 -33 -8 -86q0 -14 4 -57.5t4 -55.5q9 21 45 21q61 0 90 -19l56 -49q6 -2 22 11l14 14q3 0 21 -6t24 -6q10 -23 13 -125l8 -203h-285l-12 -27v-565h-414v1411q-26 14 -26 66zM115 1483q0 -31 78 -88q80 -56 112 -56q16 0 66 10.5t63 10.5 q34 0 90 -111q28 -58 49 -112q8 77 19 127q27 130 59 133q9 3 25 -29q16 -29 26 -29q72 0 191 64q27 -2 65 -35l58 -74q0 17 26 133q11 55 11 72q0 49 -54 49q-20 0 -61 -14q-38 -14 -57 -14q-6 21 -15 30q-53 68 -176 68q-46 0 -147 -70q-43 -32 -82 -32q-21 0 -41 14 q-53 35 -58 35q-6 0 -24 -4.5t-21 -4.5q-17 0 -62.5 10.5t-51.5 10.5q-29 0 -58.5 -32t-29.5 -62zM516 805q0 -19 45 -25q25 0 45 -2q44 -64 56 -76q22 -17 45 -17q6 0 12 1q20 3 41 59q20 53 20 82q0 22 -7.5 31t-24.5 8q-36 -4 -41 -4q-14 0 -29 6q-35 23 -62 35 q-40 21 -59 21q-17 0 -29 -52q-12 -44 -12 -67z" />
<glyph unicode="G" horiz-adv-x="1198" d="M66 1036l32 346q0 140 199 140h20q0 -2 2 -2l68 79q54 54 82 54q36 0 70 -43q35 -41 55 -41q68 24 108 24q34 0 68 -24q80 -56 107 -56q14 0 20 3q207 -242 207 -472q0 -41 -8 -65l-381 -4q0 -21 57 -39q53 -16 76 -16q21 0 92 14q50 9 72 9q8 0 12 -1q47 -15 82 -74 t35 -110q0 -33 -25 -119q-7 -24 -24 -74v-532q-23 -23 -74 -23q-25 0 -55 6q-16 39 -33 68q-23 38 -53 45q-129 -129 -324 -129q-471 0 -471 520v164v72q2 35 2 67v35q0 117 -18 178zM119 1243q0 -87 12 -272q78 196 119 303q46 123 96 123q51 0 51 -123q0 -62 2 -64 q29 0 60 72q35 74 57 74q43 0 64 -47q20 -45 22 -45q8 -2 16 9t17 34q31 74 41 88q34 49 80 49q74 0 92 -131q6 -49 51 -94q44 -41 51 -66q21 61 21 119q0 44 -31 117q-27 72 -72 90q-71 26 -112 41q-60 32 -113 32q-4 0 -34 -7.5t-40 -4.5q-2 3 -6 11t-6.5 12t-8 10 t-11 9.5t-14.5 8t-21.5 7t-28.5 4.5q-37 0 -106 -72q-66 -72 -103 -72q-2 0 -25 11t-32 10q-53 0 -74 -119q-1 -8 -14 -117zM428 1532q0 17 21 20l32 -4v-8q0 -12 -32 -12h-17zM512 311q0 -31 26.5 -51t63.5 -20q103 0 103 217q0 63 -3 84q0 4 -4 16l-129 29q-6 49 -6 92 q0 73 19 119q112 141 112 178q0 284 -24 293q-4 2 -14.5 -7t-24.5 -19.5t-25 -10.5q-6 0 -25 27.5t-28 27.5q-41 0 -41 -112v-863zM639 805q0 -25 14 -74q15 -57 29 -61q18 -6 31 16q34 55 51 55q37 0 61 -55q10 -27 47 -211q49 230 95 230q24 0 53 -29q10 -15 37 -51h4 q31 0 51 147q0 79 -76 131q-13 10 -32 10t-72 -26q-30 -15 -49 -15q-15 0 -19 2q-17 3 -61 21q-41 20 -68 20q-34 0 -62.5 -35.5t-33.5 -74.5z" />
<glyph unicode="H" horiz-adv-x="1179" d="M72 1450q0 49 49 125t96 82q25 0 70 -39q46 -37 71 -37q14 9 31 12q5 1 10 1l84 -70q8 -47 17 -262q3 -52 6 -189q8 0 34.5 3t34.5 3q97 0 121 -84l9 475q15 35 71 84q56 47 94 50q54 4 68 4q164 0 164 -84v-1524h-389v629q0 61 -56 61q-11 0 -20 -45q-21 -122 -37 -145 q-9 14 -18 75q-15 107 -47 107q-29 0 -29 -53v-629h-414v1389q0 3 -9.5 31t-10.5 30zM113 1466q0 -35 28 -133q34 -102 55 -102h1q8 8 26 53q23 51 56 51q24 0 51 -121q2 -7 10.5 -48t15.5 -72q111 261 111 317q0 35 -12 82q-15 59 -43 59q-6 0 -17.5 -4t-20 -8t-9.5 -4 q-12 0 -64 37t-88 37q-51 0 -78 -49q-22 -42 -22 -95zM303 1464q1 2 2 7t2 8q1 -1 31 -21q20 -14 31 -14q3 1 10 3t10 3q4 -4 4 -18q0 -3 -4 -19l-4 -12q-42 9 -82 63zM496 846q104 -82 104 -160q66 87 76 156q0 198 -96 198q-51 0 -72 -96q-6 -24 -12 -98zM745 1450 q0 -17 43 -145q28 -82 43 -127q5 32 13 57q21 59 55 59q26 -4 41 -16q6 -4 41 -39q19 47 28 68t28.5 55.5t39.5 52.5q13 41 13 66q0 92 -138 92q-60 0 -129 -29q-78 -38 -78 -94zM899 1360q-5 2 -5 6t5 10q2 4 21 23l36 20q-9 -6 -24 -33q-14 -28 -27 -28q-3 0 -6 2z" />
<glyph unicode="I" horiz-adv-x="532" d="M76 1475q0 49 28 110q35 68 80 68l49 -8q13 0 63 6t64 6q63 0 93 -68l-2 -1589h-373zM115 1503q0 -40 32 -176q27 -15 33 -72q0 -25 -20 -122q0 -43 45 -76q16 22 16 71q0 32 -4 86q0 46 37 89q25 0 49 -37q8 -17 23.5 -46.5t21.5 -41.5q90 128 90 387q-12 59 -78 59 q-11 0 -52 -7t-54 -7q-16 0 -41 14l20 -47q-37 -15 -49 -12q-16 0 -16 16l4 29q-57 -23 -57 -107zM258 1491q10 13 31 16q38 0 63 -32v-9q-52 0 -94 25z" />
<glyph unicode="J" horiz-adv-x="1067" d="M16 625q3 32 54 71q53 41 80 41q18 0 77 -59q29 -29 58 -29q11 0 22.5 6.5t18.5 12.5l8 6q55 0 90 -72q27 -56 27 -119q0 -42 -2 -73q-3 -58 -3 -74v-10q0 -144 82 -144q32 0 47 31q8 23 9 33v1118q-5 63 -6 76q15 101 94 135q53 19 123 63q29 19 45 19q82 0 123 -123 q28 -89 28 -191v-1097q0 -140 -194 -205q-131 -41 -305 -41q-451 0 -451 358v84q0 31 -3 60t-5.5 44.5t-8.5 42t-8 36.5zM45 586q0 -36 78 -99q10 -6 39 -49q24 -35 37 -35q24 0 47 29q21 30 39 27q23 -3 94 -105q15 0 24 80q3 27 3 47v47q1 9 1 18q0 32 -15 60 q-19 35 -54 39q-9 0 -34.5 -10t-29.5 -10q-7 0 -65 28q-56 30 -76 33q-32 0 -60 -32t-28 -68zM137 528l68 -10q14 -3 10 -14q-3 -8 -29 -8q-20 0 -47 24q-2 2 -2 8zM606 1475q0 -26 25 -99q17 -51 35 -69q21 12 41 12q46 0 73 -90l56 -185q2 0 8 43q9 44 12 50 q96 140 96 274q0 207 -112 207q-10 0 -54 -29q-32 -23 -47 -28q-28 -6 -77 -31q-56 -30 -56 -55zM756 1489l63 35q-2 -4 27 -37q11 -11 16 -14z" />
<glyph unicode="K" horiz-adv-x="1300" d="M70 1436q0 55 39 123q54 95 136 95q7 0 15 -1q27 -47 156 -113q92 -47 92 -172q0 -16 -4 -66t-4 -65v-39q0 -21 8 -57l57 57q36 28 70 37q57 164 84 217q74 154 153 154q4 0 22.5 -6.5t23.5 -6.5q1 0 43 31q39 33 75 33q90 0 117 -166h35q-34 -115 -117 -254 q-61 -101 -61 -201l6 -20q-40 0 -56.5 -11.5t-35.5 -50.5l-52 -116l367 -838h-465l-258 594l-16 -21v-573h-144q-63 0 -176 -2q-68 0 -78 2v1360q-32 38 -32 76zM106 1462q0 -28 60 -133q58 -102 82 -102l33 4q28 0 51 -45q7 -19 47 -117q24 17 41 55q23 71 37 103v59 q0 29 2 80v55l-6 52q-3 9 -86 47q-86 42 -111 108h-25q-25 0 -36 -14q-9 -13 -33 -48t-39 -57q-17 -24 -17 -47zM199 1532q0 24 24 33q28 0 37 -33h-61zM524 1016v-8q0 -84 58 -203l71 227q35 111 70 142q31 -25 53 -25q11 0 51 88q43 88 82 94l66 -250l24 60q-4 16 -4 22 q0 45 60 174q61 125 61 150q0 137 -88 137q-24 0 -51 -35q-26 -34 -47 -37q-15 -1 -47.5 6t-34.5 7q-42 0 -107 -144q-55 -124 -73 -211q0 -39 -54 -45h-16q-65 0 -74 -149zM1016 1561l16 36l12 -4l13 -37z" />
<glyph unicode="L" horiz-adv-x="1114" d="M78 -6l2 1509q73 98 153 107q42 0 89 -41q34 -32 59 -32q4 0 8 1q16 4 17 4q18 -4 45 -41q6 -9 18 -26.5t18 -26.5v-987q28 22 60 22q29 0 43 -2l45 -4q18 0 22 4q40 -32 72 -32q28 0 143 65q56 33 105 33q15 0 43 -4q4 0 12 -4q66 -144 66 -373q0 -107 -11 -164 q-35 -12 -167 -12h-125q-62 0 -82 -4q-13 -29 -60 -29q-8 0 -35 18q-2 1 -5 3.5t-9 7t-12 8.5h-514zM113 1473q61 -124 84 -209q6 0 38 19.5t39 21.5q29 10 29 -17q0 -84 6 -119q12 -68 60 -96q24 177 77 367q-6 61 -96 61q-19 0 -78 62q-20 22 -45 22h-6q-62 -9 -102 -78 q-7 -11 -7 -25q0 -4 1 -9zM172 1534q3 33 53 33h25q15 -3 12 -13t-47 -18q-14 -2 -43 -2zM492 383l8 -107q55 -40 104 -159q6 -15 23.5 -59.5t29.5 -75.5l31 32q-1 5 -1 11q0 39 56 100q66 72 111 72q29 0 84 -64q28 -31 55 -31q28 0 43 103q11 83 11 123q0 125 -41 178 q-51 0 -150 -51q-101 -52 -123 -52q-25 0 -43 15l-33 22q-11 -8 -20 -8q-8 0 -39 12.5t-39 12.5q-58 0 -67 -74zM604 268l8 21q15 -14 29.5 -25.5t21 -17t7.5 -6.5q40 -40 43 -60q-30 0 -109 88zM911 360q0 12 12.5 25.5t24.5 13.5q28 0 37 -47q1 -11 4 -33t4 -34 q0 12 -41 39q-37 27 -41 36z" />
<glyph unicode="M" horiz-adv-x="1492" d="M74 1440q0 46 57 129q58 88 96 88q60 0 107 -47l69 -107l18.5 18.5t26.5 27t27 26.5q77 74 119 74q59 0 92 -45q29 -44 29 -101q-17 -39 -17 -71q0 -44 37 -168l37 4q16 93 25 123q21 84 51 108q2 25 35 88q35 66 59 66q82 0 141 -27l91 -61q30 0 65 14l76 31 q100 0 100 -271v-1341h-387v752l-147 -752h-275l-162 752v-750h-346v1368q-24 30 -24 72zM119 1444q0 -22 22 -64q21 -37 45 -37q64 37 90 37q18 0 48 -49q33 -45 70 -45h5l109 4q13 -13 57 -102q23 -45 41 -60q17 39 17 62q19 31 28 141q9 97 31 119q-9 71 -18 92 q-20 51 -70 51q-43 0 -107 -67q-66 -66 -77 -66q-19 0 -78 74t-113 80q-15 3 -18 0q-23 -10 -35 -49q-47 -53 -47 -121zM199 1556v6q0 27 28 27q27 0 33 -18v-19q-20 10 -41 17q-17 0 -20 -13zM561 1532q0 13 21 16q19 0 32 -16h-53zM731 1169q0 -127 62 -174l8 138 q-4 4 -25 47q-18 43 -28 43q-17 0 -17 -54zM881 1466l8 -151h8q0 9 7 26t17 30.5t17 12.5q39 -3 45 -53q37 -21 49 -104q15 -113 21 -125q0 301 71 301q31 0 58 -103q27 -102 67 -102q24 0 78 66q0 55 51 198q0 34 -24 74q-21 41 -51 41q-16 0 -37 -18q-52 -43 -82 -43 q-20 0 -97 57t-104 57q-46 0 -76 -59q-26 -56 -26 -97v-8zM954 1567q0 5 8 9q10 6 29 9h19q-9 -21 -19 -24q-37 -10 -37 6zM1253 1532l41 4v-12z" />
<glyph unicode="N" horiz-adv-x="1159" d="M76 0l2 1372q0 277 92 277q18 0 47 -29q27 -27 45 -27l13 13l22 18q37 30 78 33q35 0 61 -33q3 -16 53 -63q53 -44 56 -56q1 -13 3 -31.5t5.5 -47t5.5 -50.5q15 -115 55 -170q26 33 70 33q29 0 39 -16l16 20v60q-2 27 -2 59q0 270 131 270q18 0 32.5 -4.5t28.5 -17 t20 -19.5t20.5 -27t17.5 -24l53 12q41 0 41 -12v-1536h-399l-236 600v-604h-370zM111 1487q0 -66 49 -252q19 19 67 117q16 -3 90 -109q9 9 21 57q24 99 53 115q103 -65 103 -151l18 4q25 48 25 96q0 63 -35 147q-25 0 -72 56q-45 57 -59 57q-15 0 -60 -39q-46 -37 -47 -37 q-7 0 -49 31t-55 31q-24 0 -39 -51q-10 -45 -10 -72zM248 1475q-3 36 53 36v-8q-9 -16 -14 -18q-15 -12 -27 -12q-8 0 -12 2zM635 1044l8 -174h12q-1 5 -1 9q0 47 85 47h23q6 0 10 -2v30q0 -4 0.5 5.5t0.5 18t1 19.5v10q0 69 -39 140q-35 54 -71 59q-14 -14 -17 -20 q-4 -6 6.5 -23t10.5 -18q-32 -77 -29 -101zM772 1462q43 -55 113 -139q49 -72 86 -166q0 61 37 168q36 104 36 145q0 28 -8 41q-3 -2 -8 -4.5t-6 -3.5q-13 -8 -27 -8q-21 0 -65 53q-39 46 -65 46q-4 0 -9 -1q-29 -3 -53 -53q-5 -14 -15.5 -39t-15.5 -39z" />
<glyph unicode="O" horiz-adv-x="1159" d="M63 627q0 212 9 268q0 209 53 324q0 14 -19 79q-18 62 -18 86q0 50 51 101q52 55 99 55q19 -8 32 -8q45 45 105 45q12 0 23 -5t18.5 -12.5t13 -14.5t8.5 -12l4 -5h3q20 0 65 39t56 39h1q6 -1 20 -7t25.5 -12t12.5 -6q18 0 73 37q56 36 72 39q53 0 109 -33q57 -34 69 -80 q5 -5 68 -237q53 -196 57 -209q23 -232 23 -400q0 -439 -156 -589q-112 -109 -373 -109q-504 0 -504 627zM117 1393q-1 -6 -1 -13q0 -28 19 -75q24 -60 53 -66q7 -2 48 25q41 28 51 30q27 0 43 -22q21 6 59 59q41 53 62 53q25 0 73 -36q49 -37 68 -37q24 0 33 51q9 53 32 53 q60 0 113 -90q2 -3 61 -106q21 92 56 92q25 0 114 -391l-8 237q19 16 19 45q-1 5 -4.5 16.5t-10.5 33.5t-12 40q-11 38 -8 51q-29 15 -45 97q-14 96 -19 106q-11 25 -73 51q-67 31 -90 31q-9 -10 -27 -30.5t-27 -30.5q-41 -47 -55 -47l-4 5q-4 5 -10 12t-14 14.5t-18 12.5 t-20 5q-12 0 -65 -47q-46 -43 -68 -47q-27 49 -69 49q-11 0 -66 -19q-49 -18 -69 -18l-25 8q-20 -6 -59 -45q-37 -40 -37 -57zM242 1401l4 14q14 0 33.5 -13.5t19.5 -25.5q-8 -4 -14 -4q-11 0 -21 10zM510 233q0 -31 8 -47q4 2 14 2q33 0 62 -45q14 -21 31 -59q9 46 24 135 q3 86 -102 143q-15 -3 -27 -59q-10 -52 -10 -70zM510 399q14 14 37 17q15 0 125 -101v887q0 49 -27 49q-5 0 -22 -26q-18 -27 -33 -27q-5 -2 -9.5 6t-7.5 23q-6 34 -14 37q-18 6 -33.5 -17t-15.5 -45v-803zM709 1495h8q8 -14 37 -33l45 21l-6 -27q-12 -24 -35 -24l-8 4 q-14 4 -23 14z" />
<glyph unicode="P" horiz-adv-x="1118" d="M76 2v1464q78 129 137 152q22 0 131 -53q92 92 148 92q55 0 90 -35q19 -19 39 -63q15 -35 28 -35q27 0 88 43q36 22 62 22q146 0 229 -219q66 -173 66 -342q0 -383 -353 -383q-217 0 -258 -8v-635h-407zM100 1427v-5q0 -30 31 -64q23 -23 41 -23q7 0 24.5 24.5t24.5 24.5 q47 0 68 -63q5 -28 15 -82.5t15 -81.5q18 57 80 141q72 96 119 100q23 0 53 -36q7 -9 22.5 -27.5t22.5 -27.5q80 48 86 51q65 35 89 35h2q52 0 116 -168q39 -111 97 -181q-15 147 -27 297q-38 203 -168 203q-25 0 -174 -61q-13 -3 -29 33q-20 44 -41 65q-34 37 -88 37 q-26 0 -78 -64q-27 -30 -57 -30q-10 0 -68 22q-15 5 -34.5 12t-29.5 10.5t-15 4.5q-3 -9 -64 -88q-30 -41 -33 -58zM492 1044q41 50 55 50q9 0 45 -45t61 -45q22 0 43 65q21 59 21 88q0 54 -35 72q-19 11 -70 14q-4 1 -11 1q-31 0 -105 -13zM492 1479q0 17 14 20h2 q9 0 16 -6q8 -7 6 -18q0 -19 -14 -19q-21 0 -24 23zM496 911v-10q0 -65 34 -143q23 7 43 45q4 4 19 39q36 0 45 -66q0 16 12 60q4 14 8 30t6 23t3 10q0 17 -13 43q-4 -2 -12 -2q-16 0 -37 18l-65 74q-40 -46 -43 -121z" />
<glyph unicode="Q" horiz-adv-x="1107" d="M59 616l13 478q0 27 34 120q-4 12 -4 15q-6 21 -6 26q0 100 31 185q43 116 127 116l94 -20q36 0 80 53q49 56 64 58q24 4 36 4q9 0 45 -4l50 -11q17 -3 20 -51t21 -45l94 41q4 1 9 1q41 0 73 -54q52 -92 67 -105q82 -67 103 -133q20 -53 20 -170q21 -56 21 -463 q0 -480 -289 -618q-67 -31 -103 -31q160 -80 215 -178h-380q28 54 28 78q0 54 -119 100q-151 58 -223 148q-122 154 -122 422q0 19 1 38zM127 1327q0 -41 12 -56.5t54 -33.5q43 -16 64 -16q8 0 13 2q28 8 82 96q22 36 41 33q31 -3 78 -72q4 -6 59 -98q4 17 13 50t10 38 q12 94 55 94q51 0 86 -84q34 -82 39 -82q23 0 23 33q0 23 -2 35l-4 37q0 36 28 36q49 0 86 -94q5 -14 51 -178q28 -97 48 -100q6 34 14 65q4 78 4 228q0 35 -96 157q-95 123 -127 123q-19 0 -45 -16l-49 -33q-52 123 -101 123q-69 0 -139 -82q-38 -41 -76 -41q-40 0 -102 16 q-55 0 -90 -65q-29 -56 -29 -115zM422 1440q0 23 31 26q21 0 24 -8q3 -5 -18 -20q-6 -3 -27 0q-6 0 -10 2zM473 434l15 10l10 7q29 16 49 16q35 0 55 -45q17 -47 29 -76l20 791l-8 53q-9 40 -51 49q0 -102 -45 -102q-5 0 -51 24q-3 1 -9.5 2t-9.5 2zM489 291q0 -23 41 -144 q40 -110 41 -114q0 15 31 94q33 73 33 121q0 3 -4 35q-21 9 -58 67q-6 8 -17 28.5t-17 29.5h-19q-4 -2 -31 -29v-88z" />
<glyph unicode="R" horiz-adv-x="1128" d="M78 0v1483q0 47 45 104q47 62 88 62q58 0 92 -52q36 -50 51 -53q74 39 195 84q2 0 4 1q26 0 72 -75q23 -38 41 -38q12 0 73 94q30 47 66 47h3q35 0 79 -72q47 -74 92 -74q33 -71 45 -133q2 -12 12 -67q37 -101 37 -221v-56q0 -91 -22 -137q-34 -64 -146 -129 q91 -51 117 -174q15 -74 18 -223l4 -271q0 -49 -36.5 -74.5t-94.5 -25.5l-229 2q-27 0 -39 21l2 593l-162 9l-12 -21v-604h-395zM102 1458q115 -115 115 -227q0 -33 -6 -41h12q147 203 185 203q32 0 88 -74q6 -8 18.5 -25t37.5 -52t46 -64q12 48 31 104q39 111 66 111h3 q25 -6 52 -50q7 -10 47 -92q8 3 28 41q21 40 43 43h6q37 0 70 -65l62 -185q3 16 12 89q1 5 2 19t3 31.5t5 35.5q-15 18 -29 100q-15 89 -36 110q-3 -1 -7 -1q-33 0 -75 67q-47 74 -76 74q-37 0 -80 -76t-74 -76q-16 0 -53 64q-34 64 -53 67q-4 1 -9 1q-38 0 -98 -44 q-65 -47 -84 -47q-7 0 -61 51q-55 52 -82 52q-47 0 -68 -37q-1 -1 -5 -11.5t-14.5 -39t-21.5 -56.5zM276 1427v35q14 -4 19 -6q17 -8 14 -14q-12 -6 -33 -15zM485 963q15 35 60 41q105 -33 123 -33h2q32 6 32 63v31q1 12 1 23q0 56 -25 90q-2 -4 -4.5 -8.5t-7 -12 l-7.5 -12.5q-20 -33 -45 -33q-7 0 -51 41q-37 37 -73 37h-5v-227zM512 821q1 0 20 25q20 23 39 20q13 -3 25 -18q4 -4 10 -19q3 39 21 91q-5 0 -25 10q-46 24 -53 24q-37 0 -37 -112v-21z" />
<glyph unicode="S" horiz-adv-x="1386" d="M70 262v29l190 250q21 -9 45 -9q42 0 66 41q75 -12 110 -24q63 -21 76 -70q19 0 76 31t69 31q33 0 97 -58q36 -28 53 -28q29 0 29 20q0 44 -201 88q-263 56 -373 117q-201 112 -201 324q0 59 25 165q-37 70 -37 134q0 91 43 161q50 80 135 80q24 0 84 60q54 54 93 54 q4 0 8 -1q58 -9 73 -33q10 -13 15 -10q22 16 69 31h5q24 0 65 -23q45 -25 55 -25q110 39 187 39q45 0 151 -145q78 -113 144 -143q-9 -70 -82 -177q-9 -12 -34.5 -48.5t-43.5 -61.5q-119 12 -119 63q-101 39 -145 52q-82 26 -138 26q-139 0 -139 -78q0 -84 205 -133 q316 -75 385 -110q207 -103 207 -316q0 -270 -147.5 -417.5t-417.5 -147.5q-402 0 -682 262zM121 1325q0 -60 14 -82q6 12 27 12l78 -12q42 57 73 60q16 0 68 -107q51 -105 80 -115q16 32 37 191q18 135 47 135q21 -21 49 -45q59 -47 84 -47q6 0 27 67q21 68 55 68 q83 0 147 -125q14 -34 40.5 -100.5t39.5 -100.5q0 35 -31 250q0 37 23 37q32 0 76 -29q11 -9 32 -27.5t33 -27.5q7 0 7 11q0 4 -1 8q-2 10 -2 26q0 23 -90 119t-116 102h-4q-18 0 -70 -18q-64 -24 -80 -27q-35 0 -154 58q-7 0 -32 -19t-33 -22q-15 -3 -41 26q-14 20 -27 33 q-5 -1 -19 -5t-20 -5q-32 -9 -67 -29q-10 -3 -25 -49q-10 -32 -78 -41q-147 -21 -147 -170zM338 463l139 -227q3 7 27 47q34 49 65 49q43 0 58 -37q0 -3 24 -76q15 0 33 43q17 45 35 45q32 0 78 -49q35 -50 84 -113q-13 41 -13 68q0 26 11 76l22 82q0 28 -39 37 q-56 11 -65 16q-7 4 -35 45q-18 27 -55 27q-8 0 -138 -62q-31 0 -55 37q-21 40 -53 43l-90 14q-33 -47 -33 -65zM362 1397q-1 2 -1 4q0 3 4 5q6 3 20 3q34 0 31 -16q-6 -14 -33 -17q-18 0 -21 21z" />
<glyph unicode="T" horiz-adv-x="1214" d="M2 1503q0 60 51 94q48 31 107 31q1 -3 14 -29q15 -30 72 -30q38 0 88 41q52 43 84 43q18 0 49 -25q46 -37 72 -51q7 -20 15.5 -29.5t16.5 -7.5q17 3 70 51q58 49 78 49q24 -8 43 -8q16 8 31 8q22 0 61 -51q40 -49 53 -53l17 9q16 9 37.5 18.5t33.5 9.5q183 0 183 -234 v-161q-12 -4 -33 -72q-21 -67 -47 -70q-5 15 -29 74q-21 52 -49 68h-227v-1178h-371v1165h-395v293q-22 9 -25 45zM43 1511q0 -19 37 -71q39 -51 55 -51q15 0 41 20q17 10 25 10q41 0 147 -112q2 0 30 17.5t44 18.5q103 0 164 -174q15 -43 61 -178l25 162q21 133 100 133 q8 0 28 -21.5t29 -21.5q35 145 103 154q54 0 72 -49q10 -26 19.5 -53t14 -40.5t6.5 -17.5q15 -37 54 -104l18 45q-20 36 -26 69q0 21 12 70l26 102q0 105 -108 105q-25 0 -49 -8q-65 -21 -76 -21q-30 -3 -51 27q-54 72 -90 75h-4q-42 0 -105 -57t-86 -57q-4 0 -88 84 q-43 43 -57 43q-29 0 -70 -35t-78 -35q-8 1 -22 -3.5t-15 -4.5q-21 0 -67 22q-48 23 -68 23q-51 0 -51 -66zM539 1432l12 4q11 0 37 -33q4 -4 10 -4q16 0 29 8l24 4q-1 -13 -23.5 -28t-39.5 -15q-37 0 -49 64zM664 1444q10 17 20 0v-12q-2 -2 -6 -2t-6 2q-9 5 -9 9q0 2 1 3z M736 1511q0 2 1 5l8 8q17 0 39.5 -20t20.5 -34l-8 -8q-1 -1 -3 -1q-10 0 -34 30q-2 2 -6.5 5l-7.5 5t-6.5 5t-3.5 5z" />
<glyph unicode="U" horiz-adv-x="1116" d="M76 1454q0 48 12 113q18 90 49 90q117 0 117 -68q0 -33 4 -33q27 68 74 68q32 0 55 -45q24 -43 64 -43q20 0 20 -45v-975l12 -121q15 37 19 49q15 43 47 43q60 0 80 -36l47 -76v1083q0 20 45 88q47 72 61 72q105 0 105 -45q0 -59 20 -62q7 9 21 25q20 26 33 29 q29 0 57 -72q24 -64 24 -100v-1182q0 -110 -186 -168q-133 -43 -272 -43q-146 0 -295 41q-211 58 -211 170zM117 1520q0 -7 4 -33t4 -33q-4 -50 -4 -61q5 -36 16 -68q2 -2 8 -2q0 57 7 74q9 39 53 39q27 0 49 -25q26 -37 65 -80q4 -5 8.5 -10t6.5 -7t2 -3l-4 -21 q0 -16 16 -45q20 -35 23 -45q9 -21 10 -22q14 -3 21 5.5t8 30.5l8 285q-31 9 -43 31q-2 4 -5 12t-5.5 14t-6 12t-7 9.5t-7.5 3.5q-41 0 -53 -27q-12 -26 -37 -26q-36 0 -45 33q4 16 4 20q-9 43 -49 43h-4q-16 0 -27 -23q-12 -26 -16 -81zM311 1470q41 0 41 -26q0 -5 -16 -8 q-5 -1 -15.5 2.5t-18.5 9.5q-7 5 -7 9q0 13 16 13zM496 315l47 -104q10 -3 30 -47q21 -43 39 -43q33 141 33 178q0 13 -31 80q-2 4 -30 59h-25q-19 0 -37 -55q-20 -62 -26 -68zM733 1491q0 -43 80 -135q43 -49 55 -76q27 -152 52 -152q24 0 24 158q0 28 19 74l18 43q1 1 1 3 q0 11 -13 52q-7 50 -9 52t-4 1q-2 0 -19 -20.5t-26 -20.5q-33 0 -56.5 28t-16.5 58q0 21 -31 21h-8q-66 -12 -66 -86z" />
<glyph unicode="V" horiz-adv-x="1130" d="M45 1505q0 46 37 92q48 60 82 60q23 0 72 -43q53 -41 57 -41q10 0 20.5 8.5t16.5 16.5l6 8q16 0 57 -23q38 -20 41 -39l-4 -12q10 -53 47 -117l58 -317l8 -4q3 0 19 9t22 9q19 0 39 -33q4 -4 20 -35q16 68 92 412q3 13 14.5 62.5t20.5 87.5q6 20 56 20h14l47 -2 q9 0 18 -20q21 -53 39 -56q22 -3 45 35q27 41 41 41q55 0 55 -68q0 -20 -10 -43l-18 -43q0 -14 28 -30l-327 -1440h-398q-24 108 -96 451l-217 1032q-2 8 -2 22zM90 1503q0 -8 3 -35.5t3 -35.5q0 -20 54 -86q49 -60 62 -60h1q3 4 12 29q9 28 29 28q34 0 74 -122 q31 -119 32 -123q13 47 13 92q0 40 26 119q15 47 15 80q0 46 -13 100q-21 72 -57 72l-3 -4q-3 -4 -8 -9t-11 -10.5t-15 -9.5t-18 -4t-62 41t-84 41q-32 -3 -47 -64q-6 -21 -6 -29v-10zM555 1057q20 -146 20 -307q0 -63 -8 -142l33 -76l43 101q-35 140 -35 325q-11 48 -14 58 q-12 42 -27 45zM774 1454q30 -34 33 -106q1 -6 1 -15q0 -26 -5 -73q-6 -58 -6 -84q0 -70 20 -70q14 0 17 96q1 18 2 53t2 52q2 12 12 22q21 18 24 27q-4 16 -4 20q0 22 5 31.5t16 7.5q11 -4 45 -94q7 -14 21.5 -41t21.5 -41v8q4 26 8 37q47 146 47 232q0 16 2 34q1 7 1 12 q0 16 -7 19q-7 -9 -21.5 -26.5t-21.5 -26.5q-26 -33 -55 -33q-22 0 -49 49t-54 49q-22 0 -34 -39q-3 -19 -10.5 -52t-10.5 -48z" />
<glyph unicode="W" horiz-adv-x="1878" d="M55 1454q4 0 31 82q24 74 66 74q23 0 75 -37q24 -17 29 -17q22 3 43 37q19 31 31 35q24 0 127 -158q22 -54 73 -256q2 -9 8 -32.5t15.5 -63t19.5 -78.5q10 -2 23 -2l70 -10q12 0 26 33q2 4 6 16l90 402q-19 5 -28 49q-4 21 16 49q40 63 72 63q17 0 88 -47q12 11 37 29 q42 31 92 31q64 0 76 -56l116 -536q7 7 29 18q36 19 60 19t28 -4q60 153 74 243q8 44 8 179q0 21 29 71q29 45 55 45q50 0 59 -45q15 -52 27 -55h2q13 0 55 31q49 36 68 39q50 0 64 -39q6 -21 6 -84q0 -40 -35 -162q-35 -119 -35 -168l-240 -1133l-22 -12h-389l-17 29 q-49 285 -141 657l-141 -678l-301 -12h-10q-130 0 -130 145v21q0 4 2 8q-49 185 -139 629q-33 160 -59 262q-25 0 -31 -12q-13 13 -22 63v25q0 9 4 67l2 43q0 132 -62 203zM104 1475l31 -123q23 -97 23 -119q2 -6 2 -16v-15q0 -38 -8 -43v2q26 3 41 123q15 119 38 119 q17 0 39 -14q10 -7 13 -19q21 -179 36 -266q5 -17 35 -100q4 4 13 43q2 11 9.5 49t11.5 56t12.5 46.5t17.5 50.5q18 41 18 74q0 47 -39 145q-41 111 -75 111q-18 0 -33 -31q-21 -41 -41 -41q-22 0 -49 37q-26 39 -47 33q-48 -12 -48 -102zM602 995q0 -198 60 -309 q45 39 45 152q0 95 -52 135q-18 14 -53 22zM809 1552q0 -111 80 -176q8 -41 37 -94q1 0 22 43q20 44 33 47h1q13 0 50 -131q38 -132 51 -135q1 5 23 102q18 170 18 283q0 30 -16 76q-20 51 -49 51q-42 0 -72 -41t-49 -41q-17 0 -45 31t-45 22q-21 -6 -27 -12q-12 -9 -12 -25 zM1282 971q0 -9 29 -131l30 -111q25 48 25 115q0 37 -2 47q-1 6 -16 100q-5 25 -15 70q-51 -26 -51 -90zM1493 1495q0 -29 12 -88t23 -55q12 3 24 30q6 15 13 15q38 0 59 -127q4 -28 12.5 -84t12.5 -84q22 53 75 198q55 143 60 191q0 61 -29 61q-26 -23 -47 -36 q-43 -27 -74 -27q-8 0 -16 2q-27 10 -47 55q-21 47 -31 47q-23 0 -37 -39q-10 -33 -10 -59z" />
<glyph unicode="X" horiz-adv-x="1331" d="M76 1491q0 162 100 162q27 0 57 -58q34 -55 54 -55q67 33 94 33q36 0 82 -43q49 -40 55 -43q0 -41 27 -109q5 -9 55 -123q20 13 41 13q17 0 43 -13q0 3 53 109q25 48 25 68q0 7 -10.5 31t-10.5 32q0 49 21 86q24 47 69 47q30 0 39 -39q12 -38 25 -41q14 -3 41 21t57 24 q51 0 103 -67q55 -67 55 -119q0 -8 -6 -38t-6 -38q0 -51 2 -92q2 -39 2 -90q0 -105 -21 -105q-35 0 -53 60q0 1 -3 14.5t-7 33t-8 42.5q-117 -193 -201 -397l405 -760v-37h-440l-170 346l-174 -346h-375v37l334 704l-342 686q-12 35 -12 64zM113 1536q0 -27 18 -80 q17 -50 37 -63q16 8 29 8q12 2 25 -12t26 -43t24.5 -41t22.5 -7q10 3 22 37q9 28 23 25q36 -6 94 -70l80 -92q-6 27 -14 78q-17 122 -17 174l-45 45q-51 45 -64 45h-1q-8 -1 -42.5 -19t-39.5 -18q-43 0 -84 53q-42 54 -43 54q-51 0 -51 -74zM625 1145q4 -33 16 -66l21 -63 q5 11 10 37q12 47 12 80q0 31 -13 62.5t-34 35.5q-13 -52 -13 -77q0 -5 1 -9zM782 1520q0 -22 11 -44t22.5 -35t11.5 -14q-2 -4 -3.5 -8.5t-2.5 -9t-2 -6.5q-2 -18 10 -47t25 -33q10 -3 55 16q43 21 64 21q53 0 88 -80l53 -182q8 0 8 26q0 46 -2 62l-10 127q0 17 -4 71.5 t-4 67.5q0 24 -43 64q-40 40 -66 40q-24 0 -51 -30q-28 -31 -51 -31q-21 0 -39 53q-8 26 -18 38q-7 8 -13 9q-3 0 -6 -2q-33 -14 -33 -73z" />
<glyph unicode="Y" horiz-adv-x="1234" d="M33 1368q0 69 28 148q40 94 99 94q34 0 55 -35l37 -80q68 102 94 102q72 0 119 -102q37 -88 84 -192q5 0 38 8.5t46 7.5q30 -3 49 -35q5 -9 14.5 -28.5t14.5 -28.5q20 0 55 78q33 67 33 102q0 38 41 131q52 119 110 119q30 0 68 -47q36 -45 45 -45q1 0 8 4t17 8t16 4 q37 0 67 -61q1 -12 11 -50q3 -4 5.5 -8t4 -6t2.5 -4t2 -2q0 -50 -27 -170q-26 -112 -49 -160l-53 25l-244 -475v-672h-391l4 684l-282 541q-18 -18 -39 -21q-33 0 -60 70q-22 61 -22 96zM66 1376v-7q0 -20 8 -56q12 -45 32 -45q3 10 12 31.5t13 33.5q27 64 45 64h2 q31 -3 62 -60q14 -26 24 -26q24 0 37 8q50 24 53 24q50 0 74 -67q9 -23 18 -47.5t12.5 -33t4.5 -9.5q8 96 8 203q-22 45 -39 75q-49 79 -90 88q-11 2 -22 -10t-21 -37q-20 -51 -55 -51q-5 0 -49 80q-20 39 -45 39q-28 0 -58 -86q-23 -67 -26 -111zM594 1227q52 -63 61 -144 q2 -43 11 -77q16 -42 45 -60q20 79 20 135q0 61 -24 113q-29 10 -43 41q-11 33 -27 39q-5 -3 -12 -8t-9 -6q-22 -19 -22 -33zM840 1432q0 -24 18 -91q18 -66 31 -69h1q9 0 42 57q38 60 61 60q32 0 62 -99q35 -96 53 -96q11 49 18 86q21 102 21 143q0 117 -55 117 q-8 0 -27.5 -12t-22.5 -12q-14 -2 -29 17t-28 56q-7 20 -15 29q-6 6 -13 6h-3q-22 -6 -69 -86q-45 -74 -45 -106z" />
<glyph unicode="Z" horiz-adv-x="1236" d="M72 0v324l532 766q31 31 45 79l-223 17q-20 -47 -20 -51q-16 -29 -46 -29q0 63 -63 78q-27 5 -111 8q-35 0 -53 6q-14 52 -14 125t22 186q30 148 80 148q25 0 58 -33q39 -31 61 -31q12 0 59 29q20 14 39 14q105 0 105 -49q0 -26 8 -26q18 0 78 45q65 47 125 47 q61 0 88 -43q27 -41 37 -41q41 25 90 45q10 2 37 2q96 0 131 -80q22 -55 22 -176v-86q0 -36 4 -76q-32 -25 -53 -194q-9 -78 -29 -105l-34 80q-64 -55 -191 -238l-135 -192q77 -129 129 -129q10 0 51 14l47 17q19 0 64 -31q68 -51 104 -51q8 0 10 2q15 -24 27 -195 q1 -20 4.5 -74.5t5.5 -89.5l-20 -12h-1071zM186 1468q0 -6 2 -10q62 -3 103 -90q20 -48 86 -190q20 -3 33 20q-15 43 -17 62q0 41 23 102q27 70 67 70q23 0 78 -64q28 -32 47 -29q2 1 10.5 12.5t23.5 22t34 10.5q6 0 59 -24q55 -25 76 -25q19 0 57 47q21 27 43 33 q9 2 26.5 -25t43.5 -83q9 -23 31 -78t35 -84q-3 -21 -3 -31q0 -65 37 -74q3 21 5.5 46.5t6 58t5.5 51.5q16 197 16 266q0 48 -32 83.5t-76 35.5q-28 0 -70 -31q-40 -30 -62 -30q-8 0 -77 57q-40 29 -72 29q-122 -90 -176 -90q-40 0 -64 47t-26 47q-29 0 -70 -47t-67 -47 q-38 37 -52 53q-23 26 -45 20q-39 -12 -39 -98v-23zM575 307q9 -24 33 -51q26 -33 49 -33q17 0 29 31q15 34 27 37q4 1 8 1q28 0 57 -56q33 -62 40 -62h1q17 2 53 64q34 61 80 61q17 -7 84 -51q42 -25 58 -25q7 0 16 33q6 27 6 39q0 30 -14 33q-15 4 -90 41q-67 34 -76 34 q-26 0 -62 -20q-34 -21 -36 -21q-60 0 -119 93q-30 46 -62 49q-24 0 -59 -84q-26 -62 -26 -94q0 -11 3 -19z" />
<glyph unicode="[" horiz-adv-x="673" d="M63 1651q0 47 37.5 81.5t87.5 34.5q21 0 76 -10t64 -10q57 14 98 14q174 0 180 -80l-10 -67q-4 -36 -4 -55v-158h-201v-1407h201v-252h-488v1817q-41 41 -41 92zM137 1694q0 -5 16 -27t17 -27l-6 -14q3 -17 59 -43q59 -27 80 -24q4 0 4 6l-18 55q0 17 45 29q19 5 78 -19 q27 -12 49 -6q38 9 41 43q0 45 -86 45q-9 0 -43 -7t-43 -7q-16 0 -56 6q-85 14 -98 14q-39 0 -39 -24z" />
<glyph unicode="\" horiz-adv-x="593" d="M12 1591h176l392 -1603h-177z" />
<glyph unicode="]" horiz-adv-x="671" d="M63 1681q9 80 181 80q27 0 98 -14q5 -2 64 8q58 12 75 12q50 0 87.5 -34.5t37.5 -81.5q0 -44 -14 -64q-8 -8 -17 -17.5t-10 -10.5v-1817h-487v252h201v1407h-201v158q-5 40 -15 122zM168 1667q3 -34 41 -43q20 -6 78 18q29 13 49 7q45 -12 45 -29q-13 -29 -14 -35v-26 q18 -3 77 24t62 43l-6 14l32 54q0 24 -38 24q-20 0 -78 -10t-76 -10q-9 0 -43 7t-43 7q-86 0 -86 -45z" />
<glyph unicode="^" horiz-adv-x="673" d="M35 1040l244 457h114l244 -457h-127l-174 312l-174 -312h-127z" />
<glyph unicode="_" horiz-adv-x="1298" d="M80 -178h1137v-158h-1137v158z" />
<glyph unicode="`" horiz-adv-x="485" d="M43 1769q0 57 25 146q30 110 75 110q18 0 62 -38q46 -37 71 -37l23 4q26 0 47 -21t21 -47q0 -11 -23 -108l115 -209h-203zM90 1890q0 -61 49 -61q21 0 74 -103q24 -49 51 -49q1 3 2 10t2 9q15 29 58 127q4 10 10 43q9 69 -47 69l-6 -12q-9 -12 -31 -12q-18 0 -59 41 q-37 43 -50 43q-4 0 -28 -47q-25 -48 -25 -58z" />
<glyph unicode="a" horiz-adv-x="1144" d="M41 0q0 33 76 371q59 268 147 639l90 387q-32 25 -32 73q0 123 94 123q33 0 45 -4q18 -11 31 -16q6 -3 24 20t33 23q14 0 24.5 10t15.5 20l5 11q17 -3 90 -6q56 -1 80 -17t24 -49l-4 -29q0 -24 39 -77q21 -30 21 -52q-3 -120 -13 -237q13 -61 68 -289q76 -317 127 -555 q71 -321 74 -346h-361l-69 254h-230l-73 -254h-326zM358 1511q0 -19 11 -45q39 -79 39 -161v-39q-2 -16 -2 -37q0 -31 10 -31q24 0 24 82v63q6 41 35 41q12 0 39 -79q28 -80 35 -82q0 141 20 141q6 0 27 -104q21 -103 53 -103q10 10 21 51q1 5 16 52q0 8 -10 29t-10 26 q0 31 12 28q1 0 14 -22t15 -27q15 -18 41 -135q27 -119 32 -119l7.5 45t7 45t4.5 31q20 137 20 195q0 94 -31 125q-16 16 -16 22l4 29q0 31 -22 61.5t-47 30.5q-12 -10 -29 -14l-30 14q-27 13 -37 12h-1q-14 -4 -22 -34q-9 -33 -19 -33l-20 4q-7 0 -17 -10q-18 -27 -28 -27 q-19 0 -60 20q-26 13 -32 13q-54 0 -54 -58zM479 557q0 -7 10 -92q12 -78 15 -78q2 0 37 35q35 38 49 41q2 0 18 -4q2 0 10 -4q0 11 3 26q-2 22 -15 43l-20 -4q-10 0 -43 23q-31 22 -43 22q-10 0 -21 -8zM487 612q89 -54 123 -54q8 0 13 3l-50 377q-13 -19 -61 -211 q-24 -108 -25 -115zM614 1546q0 27 39 27q41 0 41 -8q0 -13 -32 -13q-7 -3 -22 -8t-22 -8q-4 4 -4 10z" />
<glyph unicode="b" horiz-adv-x="1153" d="M72 1380q0 181 73 181q18 0 36.5 -6.5t30 -12.5t13.5 -6q68 121 111 121q134 -96 252 -96q171 0 299 -88q188 -129 188 -404q0 -156 -65 -233q-26 -30 -66 -48q146 -62 146 -276v-264q0 -112 -58 -176q-63 -72 -170 -72h-702l-49 18l-2 1055q-37 246 -37 307zM88 1401 q0 -33 8 -90q21 -156 21 -170l20 -43q74 138 96 233q9 41 46 41q13 0 34 -61q22 -60 31 -60q23 0 94 121l25 -31q27 -30 39 -30l59 55q27 27 51 27q8 0 37.5 -14.5t38.5 -14.5l21 8q8 -3 34 -59q27 -58 60 -58q59 0 59 72q-12 27 -16 39q1 1 2 4.5t2 5.5q46 0 80 -55 q14 -36 55 -133l4 49l2 35q3 52 -98 131q-24 17 -71.5 49t-71.5 49q-22 16 -140 31q-102 12 -151 12q-2 0 -10.5 -14.5t-14.5 -13.5q-8 14 -25 36.5t-20 26.5q-33 45 -49 45q-51 -3 -72 -76t-22 -73q-20 0 -60 30q-42 31 -69 31q-12 0 -21 -59q-8 -47 -8 -76zM502 1028v-7 q0 -63 49 -63q11 0 43 20.5t55 20.5q2 0 6.5 -0.5t13 -1.5t15.5 -2l-12 150q-15 41 -82 41q-38 0 -84 -21zM514 612l4 -217q25 31 45 31q6 0 51 -39q46 -37 67 -37h3q21 52 21 105q0 84 -29 166q-34 12 -92 12q-49 0 -70 -21zM516 885q0 -92 27 -92q8 0 26.5 24.5t26.5 24.5 q11 0 27 -29q15 -28 26 -25q15 3 21 66q0 17 2 29q0 32 -35 67q-6 -30 -41 -39q-8 0 -41 13q-28 14 -37 14v-23q-2 -10 -2 -30zM518 203q20 -26 33 -29q2 -1 4 -1q18 0 57 44q43 49 60 49q6 2 15.5 -12t21.5 -43l4 37q0 24 -74 59q-71 38 -80 72q-11 -14 -27 -82 q-14 -60 -14 -94z" />
<glyph unicode="c" horiz-adv-x="1140" d="M68 733q0 106 20 369q21 307 37 330q34 46 121 88q59 27 65 77q83 56 140 56q58 0 108 -33q54 -31 70 -31q7 0 33 6.5t34 6.5q55 0 107 -64q83 -118 100 -141q11 0 45 15t45 15q74 0 74 -141q0 -22 -10 -67l-10 -37q16 -181 16 -299h-367q-13 23 -16 55v14q0 25 2 37 q0 254 -107 254q-51 0 -77 -69l4 -719q21 37 65 37q23 0 64 -27q39 -26 33 -49l12 -17q10 24 37 234h368v-162q0 -245 -100 -354q-105 -117 -344 -117q-233 0 -358 70q-150 89 -191 295q-20 106 -20 368zM121 1137q0 -85 63 -133q9 73 19 129q27 129 76 129q34 0 34 -66v-25 q0 -6 -2 -10h1q13 0 36 105q24 106 74 106q8 1 27.5 -3.5t21.5 -4.5q15 0 31 31q17 32 49 32q17 0 51 -51q34 -49 39 -49q11 0 45 37t47 37q6 0 43 -119q37 -117 82 -117q8 0 28.5 18.5t28.5 18.5q22 0 52 -76q20 -46 43 -106q-2 12 -2 35v24q0 47 8 80q20 84 20 105 q0 29 -22 84q-21 53 -49 53q-50 0 -50 -76q1 -5 2 -12.5t2 -12t1 -8.5q0 -57 -29 -57q-12 0 -21 25q9 18 9 30q0 9 -10.5 39t-10.5 39l8 25q-6 33 -84 114q-54 54 -82 54l-4 -3l-12.5 -7.5t-16 -8.5t-19 -7t-19.5 -3q-15 0 -86 47q-70 49 -92 49q-57 0 -103 -49 q-68 -100 -74 -109q-15 9 -32 9q-48 0 -82 -105q-39 -118 -39 -237zM322 1462q2 8 10 29q23 26 45 29q25 0 29 -4q0 -15 -39 -35q-38 -21 -45 -19zM475 248q0 -43 31 -103l67 58q3 -27 45 -47q41 -19 58 -27q33 20 33 100v29q0 55 -54 115q-52 57 -108 69q-72 -97 -72 -194z M539 295v6q3 20 36 23q9 -9 9 -19q0 -5 -5 -8.5t-8 -3.5q-14 -3 -16 -10zM600 1470l4 9q2 2 6 2q7 0 17 -13q0 -8 2 -10h-8q-17 0 -21 12zM711 1440q9 15 26 18q34 0 37 -14q0 -23 -14 -23q-4 0 -18 7.5t-17 7.5l-12 -4q-3 1 -3 4q0 2 1 4z" />
<glyph unicode="d" horiz-adv-x="1218" d="M70 1528q0 51 37 88t88 37q26 0 90 -49q70 -48 77 -48q35 0 50 41q4 1 11 1q23 0 71 -9q75 -16 88 -16q31 0 69 41q40 43 72 43q48 0 88 -37q13 -16 39 -46t39 -46q5 -1 35.5 5.5t33.5 6.5q47 0 105 -110q50 -92 53 -127q29 -50 29 -674v-248l-2 -174q-12 -99 -76 -148 q-74 -59 -211 -59h-725v1239q0 2 -8 9.5t-8 15.5q0 40 -23 137q-22 93 -22 127zM131 1516l4 -109q37 -27 37 -129v-35q0 -8 -2 -14q6 61 53 61q37 0 47 -2q9 0 15 -2q0 27 45 72t73 45q11 0 78 -55q5 0 31 26q27 27 49 27q5 0 76 -53q40 -29 61 -29q18 0 33 49q15 51 29 51 q20 0 41 -30q23 -29 24 -29q8 -3 47 22q21 15 29 15q27 0 62 -54q8 -16 30 -58.5t35 -65.5l4 133v13q0 41 -16 83q-21 59 -66 59q-11 1 -31.5 -7.5t-21.5 -8.5q-40 0 -80 61q-42 63 -110 72q-16 0 -56 -49q-38 -47 -69 -47q-26 0 -84 12t-86 12q-18 -53 -54 -53 q-11 0 -82 53q-73 54 -98 54q-22 0 -34.5 -29t-12.5 -61zM532 1219l9 -824l110 6q67 3 88 15l-16 749q-12 66 -109 66q-30 0 -82 -12zM545 244q0 -16 22 -58q23 -36 41 -36q15 0 39 94q19 0 58 -45q42 -42 59 -49q-1 4 -2 9l-1.5 7.5t-0.5 3.5q0 8 7 38t7 38q0 23 -33 43 q-40 27 -43 35q-80 22 -100 22q-12 0 -16 -4v-6q0 -25 -23 -57q-14 -17 -14 -35z" />
<glyph unicode="e" horiz-adv-x="1226" d="M66 1536q22 19 63 57q45 39 86 39q19 0 84 -33q68 -30 92 -30q20 0 103 59q34 25 48 25h3q109 -21 153 -80q123 0 197 22q90 35 145 54q24 0 80 -35q0 -345 -28 -412l-365 -8q-45 -45 -65 -45q-33 37 -72 37q-64 0 -64 -99q0 -36 15 -141q27 49 98 49q61 0 78 -20 q9 -12 18 -12q51 45 74 45q2 0 18 -4q3 0 13 -5q8 -91 8 -241v-58l-2 -12l-1.5 -9t-0.5 -5q-10 -13 -66 -19q-14 0 -26 -2q-7 -7 -21 -67q-15 -65 -33 -74l-30 88q-14 34 -25 53l-63 -4q-35 -3 -48 -16l13 -162q27 0 37 2l80 10q79 0 114 -53q30 12 68 12q14 0 135 -26 q63 -13 78 -13q4 -4 24 -43q20 -38 43 -38q13 0 17 2q3 -128 12 -299l-29 -25h-977l-20 20v895q0 344 -61 621zM119 1479q0 -73 45 -215q47 -149 47 -207q-1 5 -2 18.5t-2 20.5q-6 58 -6 88q0 123 51 123q2 0 27 -8.5t34 -8.5h2q22 0 43 64q24 65 56 65q54 0 69 -69 q6 -51 13 -103q34 137 61 137q32 0 66 -69q8 -21 24.5 -59t18.5 -42q47 158 94 158q22 0 51 -20l33 -21l20 60q18 59 33 59q68 0 104 -39q50 52 66 74q25 42 25 96q0 7 -25 19q-22 11 -29 10h-2q-168 -82 -309 -82q-50 0 -98 31q-47 30 -54 30q-51 0 -100 -37 q-48 -36 -72 -36q-29 0 -81 30q-54 31 -91 31q-77 0 -100 -29q-12 -15 -12 -69zM557 336q0 -141 51 -141q49 0 84 38q38 41 35 41q2 0 59 -69q59 -68 78 -68q30 0 82 107q4 1 8 1q36 0 66 -52l37 -80q-6 15 -6 32q0 32 14 60l31 65q0 34 -107 86q-87 41 -125 47l-10 -10 q-17 -14 -78 -14q-11 0 -65 31q-49 32 -93 32q-22 0 -43 -41q-18 -41 -18 -65zM565 850q12 -57 66 -66l67 -184q105 176 105 324q0 16 -2 26q-18 -35 -62 -35q-7 0 -47 19q-29 16 -51 16h-6q-32 -6 -54 -38q-17 -25 -17 -49q0 -6 1 -13z" />
<glyph unicode="f" horiz-adv-x="1128" d="M74 1477q0 43 55 98q23 22 72 57q21 -4 65.5 -12t65.5 -12q98 -22 119 -43q28 0 159 61q67 31 90 31l97 -27q21 -8 41 -8q12 0 16 2q12 -59 49 -59q15 0 62 12q16 4 32.5 8t23.5 5.5t9 2.5q31 0 53 -27q17 -21 17 -44q0 -8 -2 -15l-19 -321l-20 -21h-422q-3 -3 -23 -71 q-9 -35 -22 -45q-36 45 -74 104q-8 -33 -8 -86q0 -14 4 -57.5t4 -55.5q9 21 45 21q61 0 90 -19l56 -49q6 -2 22 11l14 14q3 0 22 -6t24 -6q9 -21 12 -125l8 -203h-285l-12 -27v-565h-414v1411q-26 14 -26 66zM117 1483q0 -31 78 -88q80 -56 112 -56q16 0 66 10.5t63 10.5 q34 0 90 -111q28 -58 49 -112q8 77 19 127q27 130 59 133q9 3 25 -29q16 -29 27 -29q71 0 190 64q29 -2 66 -35l57 -74q0 17 26 133q11 55 11 72q0 49 -54 49q-20 0 -61 -14q-38 -14 -57 -14q-6 21 -15 30q-53 68 -176 68q-46 0 -147 -70q-43 -32 -82 -32q-21 0 -41 14 q-53 35 -57 35q-5 0 -24 -4.5t-22 -4.5q-17 0 -62.5 10.5t-51.5 10.5q-29 0 -58.5 -32t-29.5 -62zM518 805q0 -19 45 -25q25 0 45 -2q44 -64 56 -76q22 -17 45 -17q6 0 12 1q20 3 41 59q20 53 20 82q0 22 -7.5 31t-24.5 8q-36 -4 -41 -4q-14 0 -29 6q-35 23 -62 35 q-41 21 -59 21q-17 0 -29 -52q-12 -44 -12 -67z" />
<glyph unicode="g" horiz-adv-x="1202" d="M68 1036l32 346q0 140 199 140h20q0 -2 3 -2l67 79q54 54 82 54q36 0 70 -43q35 -41 55 -41q67 24 109 24q32 0 67 -24q80 -56 107 -56q14 0 20 3q207 -242 207 -472q0 -41 -8 -65l-381 -4q0 -21 57 -39q53 -16 76 -16q21 0 92 14q50 9 72 9q8 0 12 -1q47 -15 82 -74 t35 -110q0 -33 -25 -119q-7 -24 -24 -74v-532q-23 -23 -74 -23q-25 0 -55 6q-16 39 -33 68q-23 38 -53 45q-129 -129 -324 -129q-471 0 -471 520v164v72q2 35 2 67v35q0 117 -18 178zM121 1243q0 -87 12 -272q78 196 119 303q46 123 96 123q51 0 51 -123q0 -62 2 -64 q29 0 60 72q35 74 57 74q43 0 64 -47q20 -45 22 -45q8 -2 16 9t17 34q31 74 41 88q34 49 80 49q74 0 92 -131q6 -49 51 -94q44 -41 51 -66q21 61 21 119q0 44 -31 117q-27 72 -72 90q-71 26 -112 41q-60 32 -113 32q-4 0 -34 -7.5t-40 -4.5q-2 3 -6 11t-6.5 12t-8 10 t-11 9.5t-14.5 8t-21.5 7t-28.5 4.5q-37 0 -106 -72q-66 -72 -103 -72q-2 0 -25 11t-32 10q-53 0 -74 -119q-1 -8 -14 -117zM430 1532q0 17 21 20l32 -4v-8q0 -12 -32 -12h-17zM514 311q0 -31 26.5 -51t63.5 -20q103 0 103 217q0 70 -2 84q0 1 -5 16l-129 29q-6 49 -6 92 q0 73 19 119q112 141 112 178q0 284 -24 293q-4 2 -14.5 -7t-24.5 -19.5t-25 -10.5q-6 0 -25 27.5t-28 27.5q-41 0 -41 -112v-863zM641 805q0 -25 14 -74q15 -57 29 -61q18 -6 31 16q34 55 51 55q37 0 61 -55q10 -27 47 -211q49 230 95 230q24 0 53 -29q10 -15 37 -51h4 q31 0 51 147q0 79 -76 131q-13 10 -32 10t-72 -26q-30 -15 -49 -15q-15 0 -19 2q-17 3 -61 21q-41 20 -68 20q-34 0 -62.5 -35.5t-33.5 -74.5z" />
<glyph unicode="h" horiz-adv-x="1183" d="M74 1450q0 49 49 125t96 82q25 0 70 -39q46 -37 71 -37q15 9 31 12q5 1 10 1l84 -70q8 -47 17 -262q3 -52 6 -189q8 0 35 3t35 3q96 0 120 -84l9 475q15 35 71 84q56 47 94 50q54 4 68 4q164 0 164 -84v-1524h-389v629q0 61 -56 61q-11 0 -20 -45q-21 -122 -37 -145 q-9 14 -18 75q-15 107 -47 107q-29 0 -29 -53v-629h-414v1389q0 3 -9.5 29.5t-10.5 31.5zM115 1466q0 -35 28 -133q34 -102 55 -102h1q8 8 26 53q23 51 56 51q24 0 51 -121q2 -7 10.5 -48t15.5 -72q111 261 111 317q0 35 -12 82q-15 59 -43 59q-6 0 -17.5 -4t-20 -8t-9.5 -4 q-12 0 -64 37t-88 37q-51 0 -78 -49q-22 -42 -22 -95zM305 1464q1 2 2 7t2 8q1 -1 31 -21q20 -14 31 -14q3 1 10 3t10 3q4 -4 4 -18q0 -3 -4 -19l-4 -12q-42 9 -82 63zM498 846q104 -82 104 -160q66 87 76 156q0 198 -96 198q-51 0 -72 -96q-6 -24 -12 -98zM748 1450 q0 -17 43 -145q28 -82 43 -127q6 38 12 57q21 59 55 59q26 -4 41 -16q6 -4 41 -39q19 47 28 68t28.5 55.5t39.5 52.5q13 41 13 66q0 92 -138 92q-60 0 -129 -29q-77 -38 -77 -94zM901 1360q-5 2 -5 6t5 10q2 4 21 23l36 20q-9 -6 -24 -33q-14 -28 -27 -28q-3 0 -6 2z" />
<glyph unicode="i" horiz-adv-x="538" d="M78 1475q0 49 28 110q35 68 80 68l50 -8q14 0 63 6t63 6q63 0 93 -68l-2 -1589h-373zM117 1503q0 -35 33 -176q26 -15 32 -72q0 -25 -20 -122q0 -43 45 -76q16 22 16 71q0 32 -4 86q0 46 37 89q25 0 49 -37q8 -17 23.5 -46.5t21.5 -41.5q90 128 90 387q-12 59 -78 59 q-11 0 -52 -7t-54 -7q-16 0 -41 14l21 -47q-38 -15 -50 -12q-16 0 -16 16l4 29q-57 -23 -57 -107zM260 1491q10 13 31 16q38 0 63 -32v-9q-52 0 -94 25z" />
<glyph unicode="j" horiz-adv-x="1069" d="M16 625q3 32 54 71q53 41 80 41q18 0 77 -59q29 -29 58 -29q11 0 22.5 6.5t18.5 12.5l8 6q55 0 90 -72q27 -56 27 -119q0 -42 -2 -73q-3 -58 -3 -74v-10q0 -144 82 -144q32 0 47 31q8 23 9 33v1118q-5 63 -6 76q15 101 94 135q53 19 123 63q29 19 45 19q82 0 123 -123 q28 -89 28 -191v-1097q0 -140 -194 -205q-131 -41 -305 -41q-451 0 -451 358v84q0 31 -3 60t-5.5 44.5t-8.5 42t-8 36.5zM45 586q0 -36 78 -99q10 -6 39 -49q24 -35 37 -35q24 0 47 29q21 30 39 27q23 -3 94 -105q15 0 24 80q3 27 3 47v47q1 9 1 18q0 32 -15 60 q-19 35 -54 39q-9 0 -34.5 -10t-29.5 -10q-7 0 -65 28q-56 30 -76 33q-32 0 -60 -32t-28 -68zM137 528l68 -10q14 -3 10 -14q-3 -8 -29 -8q-20 0 -47 24q-2 2 -2 8zM606 1475q0 -26 25 -99q17 -51 35 -69q21 12 41 12q46 0 73 -90l56 -185q2 0 8 43q9 44 12 50 q96 140 96 274q0 207 -112 207q-10 0 -54 -29q-32 -23 -47 -28q-28 -6 -77 -31q-56 -30 -56 -55zM756 1489l63 35q-2 -4 27 -37q11 -11 16 -14z" />
<glyph unicode="k" horiz-adv-x="1304" d="M72 1436q0 55 39 123q54 95 136 95q7 0 15 -1q27 -47 156 -113q92 -47 92 -172q0 -16 -4 -66t-4 -65v-39q0 -21 8 -57l57 57q36 28 70 37q57 164 84 217q74 154 153 154q4 0 22.5 -6.5t23.5 -6.5q1 0 43 31q39 33 75 33q90 0 117 -166h35q-34 -115 -117 -254 q-61 -101 -61 -201l6 -20q-40 0 -56.5 -11.5t-35.5 -50.5l-52 -116l367 -838h-465l-258 594l-16 -21v-573h-144q-63 0 -176 -2q-68 0 -78 2v1360q-32 38 -32 76zM109 1462q0 -30 59 -133q58 -102 82 -102l33 4q28 0 51 -45q7 -19 47 -117q24 17 41 55q23 71 37 103v59 q0 29 2 80v55l-6 52q-3 9 -86 47q-86 42 -111 108h-25q-25 0 -36 -14q-9 -13 -33 -48t-39 -57q-16 -22 -16 -47zM201 1532q0 24 24 33q28 0 37 -33h-61zM526 1016v-8q0 -84 58 -203l71 227q35 111 70 142q31 -25 53 -25q11 0 51 88q43 88 82 94l66 -250l24 60q-4 16 -4 22 q0 45 60 174q61 125 61 150q0 137 -88 137q-24 0 -51 -35q-26 -34 -47 -37q-15 -1 -47.5 6t-34.5 7q-42 0 -107 -144q-55 -124 -73 -211q0 -39 -54 -45h-16q-65 0 -74 -149zM1018 1561l16 36l13 -4l12 -37z" />
<glyph unicode="l" horiz-adv-x="1116" d="M80 -6l2 1509q73 98 154 107q41 0 88 -41q34 -32 59 -32q4 0 8 1q16 4 17 4q18 -4 45 -41q6 -9 18 -26.5t18 -26.5v-987q28 22 60 22q29 0 43 -2l45 -4q18 0 22 4q40 -32 72 -32q28 0 143 65q56 33 105 33q15 0 43 -4q4 0 12 -4q66 -144 66 -373q0 -112 -10 -164 q-34 -12 -168 -12h-125q-62 0 -82 -4q-13 -29 -60 -29q-7 0 -34 18q-1 1 -27 19h-514zM115 1473q61 -124 84 -209q6 0 38 19.5t39 21.5q29 10 29 -17q0 -84 6 -119q12 -68 60 -96q23 170 78 367q-6 61 -97 61q-19 0 -78 62q-20 22 -45 22h-6q-62 -9 -102 -78q-7 -11 -7 -25 q0 -4 1 -9zM174 1534q3 33 53 33h25q15 -3 12 -13t-47 -18q-14 -2 -43 -2zM494 383l8 -107q55 -40 104 -159q6 -15 23.5 -59.5t29.5 -75.5l31 32q-1 5 -1 11q0 39 56 100q66 72 111 72q29 0 84 -64q28 -31 55 -31q28 0 43 103q11 83 11 123q0 125 -41 178q-51 0 -150 -51 q-101 -52 -123 -52q-25 0 -43 15l-33 22q-11 -8 -20 -8q-8 0 -39 12.5t-39 12.5q-58 0 -67 -74zM606 268l8 21q15 -14 29.5 -25.5t21 -17t7.5 -6.5q40 -40 43 -60q-30 0 -109 88zM913 360q0 12 12.5 25.5t24.5 13.5q28 0 37 -47q1 -11 4 -33t4 -34q0 12 -41 39 q-37 27 -41 36z" />
<glyph unicode="m" horiz-adv-x="1495" d="M74 1440q0 46 57 129q58 88 96 88q60 0 107 -47l69 -107l18.5 18.5t26.5 27t27 26.5q77 74 119 74q59 0 92 -45q29 -44 29 -101q-17 -39 -17 -71q0 -44 37 -168l37 4q16 93 25 123q21 84 51 108q2 25 35 88q35 66 59 66q82 0 141 -27l91 -61q30 0 65 14l76 31 q100 0 100 -271v-1341h-387v752l-147 -752h-275l-162 752v-750h-346v1368q-24 30 -24 72zM119 1444q0 -22 22 -64q21 -37 45 -37q64 37 90 37q18 0 48 -49q33 -45 70 -45h5l109 4q13 -13 57 -102q23 -45 41 -60q17 39 17 62q19 31 28 141q9 97 31 119q-9 71 -18 92 q-20 51 -70 51q-43 0 -107 -67q-66 -66 -77 -66q-19 0 -78 74t-113 80q-15 3 -18 0q-23 -10 -35 -49q-47 -53 -47 -121zM199 1556v6q0 27 28 27q27 0 33 -18v-19q-20 10 -41 17q-17 0 -20 -13zM561 1532q0 13 21 16q19 0 32 -16h-53zM731 1169q0 -127 62 -174l8 138 q-4 4 -25 47q-18 43 -28 43q-17 0 -17 -54zM881 1466l8 -151h8q0 9 7 26t17 30.5t17 12.5q39 -3 45 -53q37 -21 49 -104q15 -113 21 -125q0 301 71 301q31 0 58 -103q27 -102 67 -102q24 0 78 66q0 55 51 198q0 34 -24 74q-21 41 -51 41q-16 0 -37 -18q-52 -43 -82 -43 q-20 0 -97 57t-104 57q-46 0 -76 -59q-26 -56 -26 -97v-8zM954 1567q0 5 8 9q10 6 29 9h19q-9 -21 -19 -24q-37 -10 -37 6zM1253 1532l41 4v-12z" />
<glyph unicode="n" horiz-adv-x="1163" d="M78 0l2 1372q0 277 92 277q18 0 47 -29q27 -27 45 -27l13 13l22 18q37 30 78 33q35 0 61 -33q2 -15 54 -63q52 -43 55 -56q1 -13 3 -31.5t5.5 -47t5.5 -50.5q15 -115 55 -170q26 33 70 33q29 0 39 -16l16 20v60q-2 27 -2 59q0 270 131 270q18 0 32.5 -4.5t28.5 -17 t20 -19.5t20.5 -27t17.5 -24l53 12q41 0 41 -12v-1536h-399l-235 600v-604h-371zM113 1487q0 -66 49 -252q19 19 67 117q16 -3 90 -109q9 9 21 57q24 99 53 115q103 -65 103 -151l18 4q25 48 25 96q0 63 -35 147q-25 0 -72 56q-45 57 -59 57q-15 0 -60 -39q-46 -37 -47 -37 q-7 0 -49 31t-55 31q-24 0 -39 -51q-10 -45 -10 -72zM250 1475q-3 36 53 36v-8q-9 -16 -14 -18q-15 -12 -27 -12q-8 0 -12 2zM637 1044l8 -174h12q-1 5 -1 9q0 47 85 47h23q6 0 10 -2v30q0 -4 0.5 5.5t0.5 18t1 19.5v10q0 69 -39 140q-35 54 -71 59q-14 -14 -17 -20 q-4 -6 6.5 -23t10.5 -18q-32 -77 -29 -101zM774 1462q43 -55 113 -139q49 -72 86 -166q0 61 37 168t37 145q0 26 -9 41q-3 -2 -8 -4.5t-6 -3.5q-13 -8 -27 -8q-21 0 -65 53q-39 46 -65 46q-4 0 -9 -1q-29 -3 -53 -53q-5 -14 -15.5 -39t-15.5 -39z" />
<glyph unicode="o" horiz-adv-x="1163" d="M66 627q0 219 8 268q0 209 53 324q0 17 -18 79q-19 65 -19 86q0 50 51 101q52 55 99 55q19 -8 32 -8q45 45 105 45q12 0 23 -5t18.5 -12.5t13 -14.5t8.5 -12l4 -5h3q20 0 65 39t56 39h1q6 -1 20 -7t25.5 -12t12.5 -6q18 0 73 37q56 36 72 39q53 0 109 -33q57 -34 69 -80 q5 -5 68 -237q53 -196 57 -209q23 -232 23 -400q0 -439 -156 -589q-112 -109 -373 -109q-503 0 -503 627zM119 1393q-1 -6 -1 -13q0 -28 19 -75q24 -60 53 -66q7 -2 48 25q41 28 51 30q27 0 43 -22q21 6 59 59q41 53 62 53q25 0 73 -36q49 -37 68 -37q24 0 33 51q9 53 32 53 q60 0 113 -90q20 -32 62 -106q21 92 55 92q26 0 115 -391l-9 237q19 16 19 45q-1 5 -4.5 16.5t-10.5 33.5t-12 40q-11 38 -8 51q-29 15 -45 97q-14 96 -19 106q-11 25 -73 51q-67 31 -90 31q-9 -10 -27 -30.5t-27 -30.5q-41 -47 -55 -47l-4 5q-4 5 -10 12t-13.5 14.5 t-17.5 12.5t-20 5q-13 0 -66 -47q-46 -43 -68 -47q-27 49 -69 49q-11 0 -66 -19q-50 -18 -69 -18l-25 8q-20 -6 -59 -45q-37 -40 -37 -57zM244 1401l4 14q14 0 33.5 -13.5t19.5 -25.5q-8 -4 -14 -4q-11 0 -21 10zM512 233q0 -31 8 -47q4 2 15 2q32 0 61 -45q14 -21 31 -59 q9 46 24 135q3 86 -102 143q-15 -3 -27 -59q-10 -52 -10 -70zM512 399q14 14 37 17q15 0 125 -101v887q0 49 -27 49q-5 0 -22 -26q-18 -27 -33 -27q-5 -2 -9.5 6t-7.5 23q-6 34 -14 37q-18 6 -33.5 -17t-15.5 -45v-803zM711 1495h8q8 -14 37 -33l45 21l-6 -27 q-12 -24 -35 -24l-8 4q-14 4 -23 14z" />
<glyph unicode="p" horiz-adv-x="1120" d="M78 2v1464q78 129 137 152q22 0 131 -53q92 92 148 92q55 0 90 -35q19 -19 39 -63q15 -35 28 -35q27 0 88 43q36 22 62 22q146 0 229 -219q66 -173 66 -342q0 -383 -353 -383q-217 0 -258 -8v-635h-407zM102 1427v-5q0 -30 31 -64q23 -23 41 -23q7 0 24.5 24.5t24.5 24.5 q47 0 68 -63q5 -28 15.5 -82.5t15.5 -81.5q18 60 79 141q72 96 119 99q23 0 53 -35q7 -9 22.5 -27.5t22.5 -27.5q75 45 87 51q65 35 88 35h2q52 0 116 -168q39 -111 97 -181q-15 147 -27 297q-38 203 -168 203q-25 0 -174 -61q-13 -3 -29 33q-20 44 -41 65q-34 37 -88 37 q-26 0 -78 -64q-27 -30 -57 -30q-9 0 -67 22q-78 27 -80 27q-3 -9 -64 -88q-30 -41 -33 -58zM494 1044q41 50 55 50q9 0 45 -45t61 -45q22 0 43 65q21 59 21 88q0 54 -35 72q-19 11 -70 14q-4 1 -11 1q-31 0 -105 -13zM494 1479q0 17 14 20h3q9 0 15 -6q8 -7 6 -18 q0 -19 -14 -19q-21 0 -24 23zM498 911v-10q0 -65 34 -143q23 7 43 45q4 4 19 39q36 0 45 -66q0 16 12 60q4 14 8 30t6 23t3 10q0 17 -13 43q-4 -2 -12 -2q-16 0 -37 18l-65 74q-40 -46 -43 -121z" />
<glyph unicode="q" horiz-adv-x="1110" d="M61 616l13 478q0 24 35 120l-5 15q-6 21 -6 26q0 100 31 185q43 116 127 116l94 -20q36 0 80 53q49 56 64 58q24 4 36 4q9 0 45 -4l50 -11q17 -3 20 -51t21 -45l94 41q4 1 9 1q41 0 73 -54q52 -92 67 -105q82 -67 103 -133q20 -53 20 -170q21 -56 21 -463 q0 -480 -289 -618q-67 -31 -102 -31q160 -80 215 -178h-381q28 54 28 78q0 54 -118 100q-153 58 -224 148q-122 154 -122 422q0 19 1 38zM129 1327q0 -41 12 -56.5t54 -33.5q43 -16 64 -16q8 0 13 2q28 8 82 96q22 36 41 33q31 -3 78 -72q4 -6 59 -98q4 17 13 50t10 38 q12 94 55 94q51 0 86 -84q34 -82 39 -82q23 0 23 33q0 23 -2 35l-4 37q0 36 28 36q49 0 86 -94q10 -29 52 -178q28 -97 47 -100q6 34 14 65q4 78 4 228q0 35 -96 157q-95 123 -127 123q-19 0 -45 -16l-49 -33q-52 123 -101 123q-69 0 -139 -82q-38 -41 -76 -41 q-40 0 -102 16q-55 0 -90 -65q-29 -56 -29 -115zM424 1440q0 23 31 26q21 0 24 -8q3 -5 -18 -20q-6 -3 -27 0q-6 0 -10 2zM475 434l15 10l10 7q29 16 49 16q35 0 55 -45q18 -47 29 -76l20 791l-8 53q-9 40 -51 49q0 -102 -45 -102q-5 0 -51 24q-3 1 -9.5 2t-9.5 2zM492 291 q0 -25 40 -144q40 -110 41 -114q0 15 31 94q33 73 33 121q0 3 -4 35q-21 9 -58 67q-6 8 -17 28.5t-17 29.5h-19q-2 -1 -30 -29v-88z" />
<glyph unicode="r" horiz-adv-x="1128" d="M78 0v1483q0 47 45 104q47 62 88 62q58 0 92 -52q36 -50 51 -53q74 39 195 84q2 0 4 1q26 0 72 -75q23 -38 41 -38q12 0 73 94q30 47 66 47h3q35 0 79 -72q47 -74 92 -74q33 -71 45 -133q2 -12 12 -67q37 -101 37 -221v-56q0 -91 -22 -137q-34 -64 -146 -129 q91 -51 117 -174q15 -74 18 -223l4 -271q0 -49 -36.5 -74.5t-94.5 -25.5l-229 2q-27 0 -39 21l2 593l-162 9l-12 -21v-604h-395zM102 1458q115 -115 115 -227q0 -33 -6 -41h12q147 203 185 203q32 0 88 -74q6 -8 18.5 -25t37.5 -52t46 -64q12 48 31 104q39 111 66 111h3 q25 -6 52 -50q7 -10 47 -92q8 3 28 41q21 40 43 43h6q37 0 70 -65l62 -185q3 16 12 89q1 5 2 19t3 31.5t5 35.5q-15 18 -29 100q-15 89 -36 110q-3 -1 -7 -1q-33 0 -75 67q-47 74 -76 74q-37 0 -80 -76t-74 -76q-16 0 -53 64q-34 64 -53 67q-4 1 -9 1q-38 0 -98 -44 q-65 -47 -84 -47q-7 0 -61 51q-55 52 -82 52q-47 0 -68 -37q-1 -1 -5 -11.5t-14.5 -39t-21.5 -56.5zM276 1427v35q14 -4 19 -6q17 -8 14 -14q-12 -6 -33 -15zM485 963q15 35 60 41q105 -33 123 -33h2q32 6 32 63v31q1 12 1 23q0 56 -25 90q-2 -4 -4.5 -8.5t-7 -12 l-7.5 -12.5q-20 -33 -45 -33q-7 0 -51 41q-37 37 -73 37h-5v-227zM512 821q1 0 20 25q20 23 39 20q13 -3 25 -18q4 -4 10 -19q3 39 21 91q-5 0 -25 10q-46 24 -53 24q-37 0 -37 -112v-21z" />
<glyph unicode="s" horiz-adv-x="1390" d="M72 262v29l190 250q21 -9 45 -9q42 0 66 41q75 -12 110 -24q63 -21 76 -70q19 0 76 31t70 31q32 0 96 -58q36 -28 53 -28q29 0 29 20q0 44 -201 88q-263 56 -373 117q-200 111 -200 324q0 63 24 165q-37 70 -37 134q0 91 43 161q50 80 135 80q24 0 84 60q54 54 93 54 q4 0 8 -1q58 -9 73 -33q10 -13 15 -10q22 16 69 31h5q24 0 65 -23q45 -25 55 -25q110 39 187 39q45 0 151 -145q78 -113 144 -143q-9 -70 -82 -177q-9 -12 -34.5 -48.5t-43.5 -61.5q-119 12 -119 63q-101 39 -145 52q-82 26 -137 26q-140 0 -140 -78q0 -84 205 -133 q316 -75 385 -110q207 -103 207 -316q0 -270 -147.5 -417.5t-417.5 -147.5q-402 0 -682 262zM123 1325q0 -60 14 -82q6 12 27 12l78 -12q42 57 73 60q16 0 68 -107q51 -105 80 -115q16 32 37 191q18 135 47 135q21 -21 49 -45q59 -47 84 -47q6 0 27 67q21 68 55 68 q83 0 147 -125q14 -34 40 -100.5t40 -100.5q0 35 -31 250q0 37 23 37q33 0 76 -29q11 -9 32.5 -27.5t32.5 -27.5q7 0 7 11q0 4 -1 8q-2 10 -2 26q0 23 -90 119t-116 102h-4q-18 0 -70 -18q-64 -24 -80 -27q-35 0 -154 58q-7 0 -32 -19t-33 -22q-15 -3 -41 26q-14 20 -27 33 q-5 -1 -19 -5t-20 -5q-32 -9 -67 -29q-10 -3 -25 -49q-10 -32 -78 -41q-147 -21 -147 -170zM340 463l139 -227q3 7 27 47q34 49 65 49q43 0 58 -37q0 -3 24 -76q15 0 33 43q17 45 35 45q32 0 78 -49q35 -50 84 -113q-13 41 -13 68q0 26 11 76l22 82q0 28 -39 37 q-56 11 -65 16q-7 4 -35 45q-18 27 -55 27q-8 0 -138 -62q-31 0 -55 37q-21 40 -53 43l-90 14q-33 -47 -33 -65zM365 1397q-1 2 -1 4q0 8 23 8q34 0 31 -16q-6 -14 -33 -17q-17 0 -20 21z" />
<glyph unicode="t" horiz-adv-x="1214" d="M2 1503q0 60 51 94q48 31 107 31q1 -3 14 -29q15 -30 72 -30q38 0 88 41q52 43 84 43q18 0 49 -25q46 -37 72 -51q7 -20 15.5 -29.5t16.5 -7.5q17 3 70 51q58 49 78 49q24 -8 43 -8q16 8 31 8q22 0 61 -51q40 -49 53 -53l17 9q16 9 37.5 18.5t33.5 9.5q183 0 183 -234 v-161q-12 -4 -33 -72q-21 -67 -47 -70q-5 15 -29 74q-21 52 -49 68h-227v-1178h-371v1165h-395v293q-22 9 -25 45zM43 1511q0 -19 37 -71q39 -51 55 -51q15 0 41 20q17 10 25 10q41 0 147 -112q2 0 30 17.5t44 18.5q103 0 164 -174q15 -43 61 -178l25 162q21 133 100 133 q8 0 28 -21.5t29 -21.5q35 145 103 154q54 0 72 -49q10 -26 19.5 -53t14 -40.5t6.5 -17.5q15 -37 54 -104l18 45q-20 36 -26 69q0 21 12 70l26 102q0 105 -108 105q-25 0 -49 -8q-65 -21 -76 -21q-30 -3 -51 27q-54 72 -90 75h-4q-42 0 -105 -57t-86 -57q-4 0 -88 84 q-43 43 -57 43q-29 0 -70 -35t-78 -35q-8 1 -22 -3.5t-15 -4.5q-21 0 -67 22q-48 23 -68 23q-51 0 -51 -66zM539 1432l12 4q11 0 37 -33q4 -4 10 -4q16 0 29 8l24 4q-1 -13 -23.5 -28t-39.5 -15q-37 0 -49 64zM664 1444q10 17 20 0v-12q-2 -2 -6 -2t-6 2q-9 5 -9 9q0 2 1 3z M736 1511q0 2 1 5l8 8q17 0 39.5 -20t20.5 -34l-8 -8q-1 -1 -3 -1q-10 0 -34 30q-2 2 -6.5 5l-7.5 5t-6.5 5t-3.5 5z" />
<glyph unicode="u" horiz-adv-x="1120" d="M78 1454q0 48 12 113q18 90 49 90q117 0 117 -68q0 -33 4 -33q27 68 74 68q32 0 55 -45q24 -43 64 -43q20 0 20 -45v-975l12 -121q15 37 19 49q15 43 47 43q60 0 80 -36l47 -76v1083q0 20 45 88q47 72 61 72q105 0 105 -45q0 -59 20 -62q7 9 21 25q20 26 33 29 q29 0 57 -72q24 -64 24 -100v-1182q0 -110 -186 -168q-133 -43 -272 -43q-146 0 -295 41q-211 58 -211 170zM119 1520q0 -7 4 -33t4 -33q-4 -50 -4 -61q5 -36 16 -68q2 -2 8 -2q0 57 7 74q9 39 53 39q27 0 49 -25q23 -33 66 -80q16 -19 16 -20l-4 -21q0 -16 16 -45 q20 -35 23 -45q9 -21 10 -22q14 -3 21 5.5t8 30.5l8 285q-31 9 -43 31q-2 4 -5 12t-5.5 14t-6 12t-7 9.5t-7.5 3.5q-41 0 -53 -27q-12 -26 -37 -26q-36 0 -45 33q4 16 4 20q-9 43 -49 43h-4q-16 0 -27 -23q-12 -26 -16 -81zM313 1470q41 0 41 -26q0 -5 -16 -8 q-5 -1 -15.5 2.5t-18.5 9.5q-7 5 -7 9q0 13 16 13zM498 315l47 -104q10 -3 30 -47q21 -43 39 -43q33 141 33 178q0 13 -31 80q-2 4 -30 59h-25q-19 0 -37 -55q-20 -62 -26 -68zM735 1491q0 -43 80 -135q43 -49 55 -76q27 -152 52 -152q24 0 24 158q0 28 19 74l18 43q1 1 1 3 q0 11 -13 52q-7 50 -9 52t-4 1q-2 0 -19 -20.5t-26 -20.5q-33 0 -56.5 28t-16.5 58q0 21 -31 21h-8q-66 -12 -66 -86z" />
<glyph unicode="v" horiz-adv-x="1130" d="M45 1505q0 46 37 92q48 60 82 60q23 0 72 -43q53 -41 57 -41q10 0 20.5 8.5t16.5 16.5l6 8q16 0 57 -23q38 -20 41 -39l-4 -12q10 -53 47 -117l58 -317l8 -4q3 0 19 9t22 9q19 0 39 -33q4 -4 20 -35q16 68 92 412q3 13 14.5 62.5t20.5 87.5q6 20 56 20h14l47 -2 q9 0 18 -20q21 -53 39 -56q22 -3 45 35q27 41 41 41q55 0 55 -68q0 -20 -10 -43l-18 -43q0 -14 28 -30l-327 -1440h-398q-24 108 -96 451l-217 1032q-2 8 -2 22zM90 1503q0 -8 3 -35.5t3 -35.5q0 -20 54 -86q49 -60 62 -60h1q3 4 12 29q9 28 29 28q34 0 74 -122 q31 -119 32 -123q13 47 13 92q0 40 26 119q15 47 15 80q0 46 -13 100q-21 72 -57 72l-3 -4q-3 -4 -8 -9t-11 -10.5t-15 -9.5t-18 -4t-62 41t-84 41q-32 -3 -47 -64q-6 -21 -6 -29v-10zM555 1057q20 -146 20 -307q0 -63 -8 -142l33 -76l43 101q-35 140 -35 325q-11 48 -14 58 q-12 42 -27 45zM774 1454q30 -34 33 -106q1 -6 1 -15q0 -26 -5 -73q-6 -58 -6 -84q0 -70 20 -70q14 0 17 96q1 18 2 53t2 52q2 12 12 22q21 18 24 27q-4 16 -4 20q0 22 5 31.5t16 7.5q11 -4 45 -94q7 -14 21.5 -41t21.5 -41v8q4 26 8 37q47 146 47 232q0 16 2 34q1 7 1 12 q0 16 -7 19q-7 -9 -21.5 -26.5t-21.5 -26.5q-26 -33 -55 -33q-22 0 -49 49t-54 49q-22 0 -34 -39q-3 -19 -10.5 -52t-10.5 -48z" />
<glyph unicode="w" horiz-adv-x="1878" d="M55 1454q4 0 31 82q24 74 66 74q23 0 75 -37q24 -17 29 -17q22 3 43 37q19 31 31 35q24 0 127 -158q22 -54 73 -256q2 -9 8 -32.5t15.5 -63t19.5 -78.5q10 -2 23 -2l70 -10q12 0 26 33q2 4 6 16l90 402q-19 5 -28 49q-4 21 16 49q40 63 72 63q17 0 88 -47q12 11 37 29 q42 31 92 31q64 0 76 -56l116 -536q7 7 29 18q36 19 60 19t28 -4q60 153 74 243q8 44 8 179q0 21 29 71q29 45 55 45q50 0 59 -45q15 -52 27 -55h2q13 0 55 31q49 36 68 39q50 0 64 -39q6 -21 6 -84q0 -40 -35 -162q-35 -119 -35 -168l-240 -1133l-22 -12h-389l-17 29 q-49 285 -141 657l-141 -678l-301 -12h-10q-130 0 -130 145v21q0 4 2 8q-49 185 -139 629q-33 160 -59 262q-25 0 -31 -12q-13 13 -22 63v25q0 9 4 67l2 43q0 132 -62 203zM104 1475l31 -123q23 -97 23 -119q2 -6 2 -16v-15q0 -38 -8 -43v2q26 3 41 123q15 119 38 119 q17 0 39 -14q10 -7 13 -19q21 -179 36 -266q5 -17 35 -100q4 4 13 43q2 11 9.5 49t11.5 56t12.5 46.5t17.5 50.5q18 41 18 74q0 47 -39 145q-41 111 -75 111q-18 0 -33 -31q-21 -41 -41 -41q-22 0 -49 37q-26 39 -47 33q-48 -12 -48 -102zM602 995q0 -198 60 -309 q45 39 45 152q0 95 -52 135q-18 14 -53 22zM809 1552q0 -111 80 -176q8 -41 37 -94q1 0 22 43q20 44 33 47h1q13 0 50 -131q38 -132 51 -135q1 5 23 102q18 170 18 283q0 30 -16 76q-20 51 -49 51q-42 0 -72 -41t-49 -41q-17 0 -45 31t-45 22q-21 -6 -27 -12q-12 -9 -12 -25 zM1282 971q0 -9 29 -131l30 -111q25 48 25 115q0 37 -2 47q-1 6 -16 100q-5 25 -15 70q-51 -26 -51 -90zM1493 1495q0 -29 12 -88t23 -55q12 3 24 30q6 15 13 15q38 0 59 -127q4 -28 12.5 -84t12.5 -84q22 53 75 198q55 143 60 191q0 61 -29 61q-26 -23 -47 -36 q-43 -27 -74 -27q-8 0 -16 2q-27 10 -47 55q-21 47 -31 47q-23 0 -37 -39q-10 -33 -10 -59z" />
<glyph unicode="x" horiz-adv-x="1331" d="M76 1491q0 162 100 162q27 0 57 -58q34 -55 54 -55q67 33 94 33q36 0 82 -43q49 -40 55 -43q0 -41 27 -109q5 -9 55 -123q20 13 41 13q17 0 43 -13q0 3 53 109q25 48 25 68q0 7 -10.5 31t-10.5 32q0 49 21 86q24 47 69 47q30 0 39 -39q12 -38 25 -41q14 -3 41 21t57 24 q51 0 103 -67q55 -67 55 -119q0 -8 -6 -38t-6 -38q0 -51 2 -92q2 -39 2 -90q0 -105 -21 -105q-35 0 -53 60q0 1 -3 14.5t-7 33t-8 42.5q-117 -193 -201 -397l405 -760v-37h-440l-170 346l-174 -346h-375v37l334 704l-342 686q-12 35 -12 64zM113 1536q0 -27 18 -80 q17 -50 37 -63q16 8 29 8q12 2 25 -12t26 -43t24.5 -41t22.5 -7q10 3 22 37q9 28 23 25q36 -6 94 -70l80 -92q-6 27 -14 78q-17 122 -17 174l-45 45q-51 45 -64 45h-1q-8 -1 -42.5 -19t-39.5 -18q-43 0 -84 53q-42 54 -43 54q-51 0 -51 -74zM625 1145q4 -33 16 -66l21 -63 q5 11 10 37q12 47 12 80q0 31 -13 62.5t-34 35.5q-13 -52 -13 -77q0 -5 1 -9zM782 1520q0 -22 11 -44t22.5 -35t11.5 -14q-2 -4 -3.5 -8.5t-2.5 -9t-2 -6.5q-2 -18 10 -47t25 -33q10 -3 55 16q43 21 64 21q53 0 88 -80l53 -182q8 0 8 26q0 46 -2 62l-10 127q0 17 -4 71.5 t-4 67.5q0 24 -43 64q-40 40 -66 40q-24 0 -51 -30q-28 -31 -51 -31q-21 0 -39 53q-8 26 -18 38q-7 8 -13 9q-3 0 -6 -2q-33 -14 -33 -73z" />
<glyph unicode="y" horiz-adv-x="1234" d="M33 1368q0 69 28 148q40 94 99 94q34 0 55 -35l37 -80q64 102 94 102q72 0 119 -102q37 -88 84 -192q5 0 38 8.5t46 7.5q30 -3 49 -35q5 -9 14.5 -28.5t14.5 -28.5q20 0 55 78q33 67 33 102q0 38 41 131q52 119 110 119q30 0 68 -47q36 -45 45 -45q1 0 8 4t17 8t16 4 q37 0 67 -61q1 -12 11 -50q3 -4 5.5 -8t4 -6t2.5 -4t2 -2q0 -50 -27 -170q-26 -112 -49 -160l-53 25l-244 -475v-672h-391l4 684l-282 541q-18 -18 -39 -21q-33 0 -60 70q-22 61 -22 96zM66 1376v-7q0 -20 8 -56q12 -45 32 -45q3 10 12 31.5t13 33.5q27 64 45 64h2 q31 -3 62 -60q14 -26 24 -26q24 0 37 8q50 24 53 24q50 0 74 -67q9 -23 18 -47.5t12.5 -33t4.5 -9.5q8 96 8 203q-22 45 -39 75q-49 79 -90 88q-11 2 -22 -10t-21 -37q-20 -51 -55 -51q-5 0 -49 80q-20 39 -45 39q-28 0 -58 -86q-23 -67 -26 -111zM594 1227q52 -63 61 -144 q2 -43 11 -77q16 -42 45 -60q20 79 20 135q0 61 -24 113q-29 10 -43 41q-11 33 -27 39q-5 -3 -12 -8t-9 -6q-22 -19 -22 -33zM840 1432q0 -24 18 -91q18 -66 31 -69h1q9 0 42 57q38 60 61 60q32 0 62 -99q35 -96 53 -96q11 49 18 86q21 102 21 143q0 117 -55 117 q-8 0 -27.5 -12t-22.5 -12q-14 -2 -29 17t-28 56q-7 20 -15 29q-6 6 -13 6h-3q-22 -6 -69 -86q-45 -74 -45 -106z" />
<glyph unicode="z" horiz-adv-x="1236" d="M72 0v324l532 766q31 31 45 79l-223 17q-20 -47 -20 -51q-16 -29 -46 -29q0 63 -63 78q-27 5 -111 8q-35 0 -53 6q-14 52 -14 125t22 186q30 148 80 148q25 0 58 -33q39 -31 61 -31q12 0 59 29q20 14 39 14q105 0 105 -49q0 -26 8 -26q18 0 78 45q65 47 125 47 q61 0 88 -43q27 -41 37 -41q41 25 90 45q10 2 37 2q96 0 131 -80q22 -55 22 -176v-86q0 -36 4 -76q-32 -25 -53 -194q-9 -78 -29 -105l-34 80q-64 -55 -191 -238l-135 -192q77 -129 129 -129q10 0 51 14l47 17q19 0 64 -31q68 -51 104 -51q8 0 10 2q15 -24 27 -195 q1 -20 4.5 -74.5t5.5 -89.5l-20 -12h-1071zM186 1468q0 -6 2 -10q62 -3 103 -90q20 -48 86 -190q20 -3 33 20q-15 43 -17 62q0 41 23 102q27 70 67 70q23 0 78 -64q28 -32 47 -29q2 1 10.5 12.5t23.5 22t34 10.5q6 0 59 -24q55 -25 76 -25q19 0 57 47q21 27 43 33 q9 2 26.5 -25t43.5 -83q9 -23 31 -78t35 -84q-3 -21 -3 -31q0 -65 37 -74q3 21 5.5 46.5t6 58t5.5 51.5q16 197 16 266q0 48 -32 83.5t-76 35.5q-28 0 -70 -31q-40 -30 -62 -30q-8 0 -77 57q-40 29 -72 29q-122 -90 -176 -90q-40 0 -64 47t-26 47q-29 0 -70 -47t-67 -47 q-38 37 -52 53q-23 26 -45 20q-39 -12 -39 -98v-23zM575 307q9 -24 33 -51q26 -33 49 -33q17 0 29 31q15 34 27 37q4 1 8 1q28 0 57 -56q33 -62 40 -62h1q17 2 53 64q34 61 80 61q17 -7 84 -51q42 -25 58 -25q7 0 16 33q6 27 6 39q0 30 -14 33q-15 4 -90 41q-67 34 -76 34 q-26 0 -62 -20q-34 -21 -36 -21q-60 0 -119 93q-30 46 -62 49q-24 0 -59 -84q-26 -62 -26 -94q0 -11 3 -19z" />
<glyph unicode="{" horiz-adv-x="724" d="M20 657v189q80 0 132 37q61 43 61 118v410q0 127 79.5 204t207.5 77h170v-181h-92q-66 0 -90.5 -30t-24.5 -105v-401q0 -183 -234 -221q93 -14 162 -70q72 -63 72 -156v-401q0 -72 25 -103.5t90 -31.5h92v-180h-170q-125 0 -206 78t-81 202v410q0 73 -61 116 q-51 39 -132 39z" />
<glyph unicode="|" horiz-adv-x="395" d="M80 -39v1548h229v-1548h-229z" />
<glyph unicode="}" horiz-adv-x="724" d="M55 -8h92q65 0 90 31.5t25 103.5v401q0 184 234 222q-95 14 -162 69q-72 63 -72 156v401q0 72 -25 103.5t-90 31.5h-92v181h170q125 0 206 -78.5t81 -202.5v-410q0 -73 61 -116q51 -39 132 -39v-189q-82 0 -132 -36q-61 -43 -61 -119v-410q0 -127 -79.5 -203.5 t-207.5 -76.5h-170v180z" />
<glyph unicode="~" horiz-adv-x="886" d="M66 936q64 141 204 141q59 0 152 -37l199 -75q43 0 84 41q12 12 59 77l59 -147q-105 -141 -205 -141q-61 0 -174 55q-111 57 -182 57q-82 0 -137 -119z" />
<glyph unicode="&#xa1;" horiz-adv-x="477" d="M68 -29v394l84 749h176l84 -749l2 -394h-346zM74 1331q0 214 123 309q24 -32 36 -43q43 -43 68 -43l21 5q26 0 51.5 -27.5t25.5 -54.5q1 -1 4 -101v-174h-323q0 16 -3 66t-3 63zM150 1479q0 -29 24 -41q37 -19 51 -45q9 -15 27 -47l27 -48q7 0 34 76t27 103q0 14 -23 24 q-8 1 -22 -9.5t-16 -10.5q-11 0 -48 37q-34 40 -45 36q-8 -3 -22 -34q-14 -28 -14 -41z" />
<glyph unicode="&#xa2;" horiz-adv-x="1069" d="M41 514q0 294 131 449q142 170 391 155l92 -6l50 174h106l-57 -201q136 -45 213 -146t77 -239h-290q-15 91 -70 140l-178 -625q27 -6 51 -6q82 0 138.5 53.5t56.5 134.5h290q-18 -196 -157 -311t-340 -115q-47 0 -105 9l-63 -222h-107l70 246q-153 58 -229 205 q-70 128 -70 305zM336 561q0 -219 78 -297l86 305q4 15 16 51.5t37.5 110.5t46.5 139q-36 4 -45 4q-115 0 -172 -106q-47 -86 -47 -207z" />
<glyph unicode="&#xa3;" horiz-adv-x="1202" d="M76 657v123h119q-84 179 -84 291q0 182 157 297q138 102 332 102q231 0 362.5 -124t131.5 -349h-269q-19 137 -57 181q-48 63 -170 63q-88 0 -144.5 -51.5t-56.5 -136.5q0 -55 37 -142q10 -22 31 -66t31 -65h292v-123h-243q6 -59 6 -92q0 -94 -19 -143q-18 -47 -83 -121 q-26 -28 -99 -94q133 53 232 53q49 0 254 -51q94 0 206 74l84 -224q-160 -92 -311 -92q-75 0 -209 41t-188 41q-94 0 -223 -72l-111 199q61 24 139 117q88 104 88 182q0 93 -47 182h-188z" />
<glyph unicode="&#xa4;" horiz-adv-x="1353" d="M33 465l69 164h117q0 18 2 47v16h-184l67 164h142q50 208 198 332q154 133 365 133q273 0 485 -215l-69 -166q-187 217 -416 217q-136 0 -248 -86q-106 -81 -147 -215h772l-68 -164h-733l-2 -63h717l-68 -164h-618q48 -138 152.5 -220.5t242.5 -82.5q234 0 438 241v-239 q-200 -164 -438 -164q-211 0 -371 145q-144 132 -194 320h-211z" />
<glyph unicode="&#xa5;" horiz-adv-x="1036" d="M41 1214q0 59 25 123q30 80 84 74q28 -3 49 -49l20 -45q2 0 29 41q27 43 47 43q56 0 94 -80l72 -160q5 0 32 7.5t35 7.5q30 -3 45 -41q15 -35 19 -35q21 0 47 63q25 61 25 82q0 39 32 107q44 96 92 96q27 0 64 -49q19 -25 29 -25q18 12 32 12q29 0 56 -49l8 -41l12 -16 q0 -15 -10 -80q-23 -130 -53 -186l-43 20l-101 -192h146v-160h-228l-16 -33v-78h238v-159h-238v-308h-319l2 308h-238v159h240v88l-13 23h-221v160h137l-133 254q-13 -13 -33 -17q-26 0 -47 58q-18 47 -18 77zM68 1221q0 -88 32 -88l21 53q22 54 37 51q22 -3 43 -37 q20 -33 28 -33t36.5 13.5t35.5 13.5q43 0 64 -59l26 -68l6 164q-17 38 -30 61q-42 66 -74 72q-9 2 -18.5 -8t-18.5 -31q-18 -41 -45 -41q-5 0 -39 64q-14 32 -37 32q-24 0 -47 -69q-20 -56 -20 -90zM498 1100q46 -46 49 -117q3 -88 45 -111q16 69 16 111q0 47 -18 90 q-18 5 -35.5 34t-22.5 32q-12 -5 -18 -11q-19 -15 -16 -28zM698 1266q-3 -14 13 -72q14 -53 26 -57q7 -3 35 45q27 49 49 49q29 0 53 -78q24 -77 41 -80q3 10 17 70q16 88 16 117q0 94 -45 94q-5 0 -20.5 -10.5t-20.5 -10.5q-11 -2 -21.5 9t-19.5 34q-19 48 -30 45 q-19 -3 -56 -67t-37 -88z" />
<glyph unicode="&#xa6;" horiz-adv-x="391" d="M80 -8v624l229 123v-747h-229zM80 803v706h229v-583z" />
<glyph unicode="&#xa7;" horiz-adv-x="802" d="M51 758q0 140 133 229q-75 78 -75 203q0 133 79 221q81 90 211 90q289 0 289 -319h-182q0 135 -111 135q-43 0 -73.5 -28t-30.5 -70q0 -59 55 -93l232 -141q92 -59 131 -115q41 -65 41 -168q0 -62 -41 -133q-39 -68 -95 -100q88 -88 88 -223q0 -148 -84 -239t-225 -91 q-137 0 -219 94t-82 232h189q0 -142 127 -142q102 0 102 123q0 66 -84 119l-219 135q-87 54 -121.5 116t-34.5 165zM219 801q0 -60 68 -107l223 -147q63 45 63 115q0 63 -81 112l-211 129q-53 -15 -62 -102z" />
<glyph unicode="&#xa8;" horiz-adv-x="813" d="M74 1679v31q4 28 4 29q0 68 20 141q26 106 70 109q18 0 59 -35q39 -33 62 -33l20 4q68 0 68 -137q0 -15 2 -66t2 -67q0 -7 -2 -28t-2 -28h-299q0 8 -2 39.5t-2 40.5zM121 1860q0 -56 45 -56q21 0 55 -73q35 -72 55 -72q66 138 66 203q0 42 -43 36q-5 0 -18 -10t-15 -10 q-9 6 -55 49q-28 25 -43 25q-11 0 -29 -41t-18 -51zM430 1681q0 39 8 58q0 61 21 141q27 106 69 109q23 0 60 -37q40 -34 61 -31l21 4q54 0 63 -45q4 -16 4 -92q0 -15 2 -66t2 -67q0 -7 -2 -28t-2 -28h-299l-4 37q-4 28 -4 45zM481 1860q0 -56 45 -56q22 0 56 -73 q35 -72 55 -72q65 136 65 203q0 42 -43 36q-5 0 -17 -10t-15 -10q-13 8 -56 49q-28 25 -43 25q-10 0 -28 -41q-19 -43 -19 -51z" />
<glyph unicode="&#xa9;" horiz-adv-x="1390" d="M72 936q0 275 174 446q175 172 448 172q274 0 449 -172q174 -171 174 -446t-174 -449q-175 -172 -449 -172t-448 174t-174 447zM250 936q0 -201 121 -340q122 -137 323 -137q198 0 324 141q121 139 121 336q0 200 -123 338q-122 137 -322 137q-199 0 -321 -137 q-123 -138 -123 -338zM377 942q0 157 92 254.5t246 97.5q250 0 291 -250h-142q-21 109 -149 109q-168 0 -168 -209q0 -88 41 -147q47 -68 131 -68q145 0 145 115h148q-19 -118 -98 -188t-195 -70q-155 0 -248 100q-94 101 -94 256z" />
<glyph unicode="&#xaa;" horiz-adv-x="794" d="M66 1012q0 186 208 213l168 22q38 5 50 12t16 35q0 70 -123 70q-58 0 -78 -14q-28 -19 -37 -70h-178q12 133 98 186q70 43 218 43q280 0 280 -190v-354q0 -83 43 -101v-26h-201q-11 33 -16 77q-101 -94 -229 -94q-219 0 -219 191zM88 565v164h614v-164h-614zM258 1022 q0 -76 84 -76q67 0 116.5 35t49.5 94v82q-250 -50 -250 -135z" />
<glyph unicode="&#xab;" horiz-adv-x="894" d="M43 451v245l342 295v-237l-205 -181l205 -180v-237zM479 451v245l342 295v-237l-205 -181l205 -180v-237z" />
<glyph unicode="&#xac;" horiz-adv-x="1193" d="M6 827v185h1106v-672h-184v487h-922z" />
<glyph unicode="&#xad;" horiz-adv-x="811" d="M72 752q-3 54 59 90q55 30 111 30q19 0 55 -8q88 -18 102 -18q10 0 57.5 9t65.5 9q4 -2 29 -2h31q66 0 77 -14q15 -36 64 -62q22 -13 22 -20l-16 -156h-625l-24 8zM166 821q1 -1 4.5 -6t10 -14t12.5 -19q14 -20 14 -26q0 -11 -8 -19q100 -69 166 -69l8 14q0 -4 -3 3 q-6 12 -14 44q0 11 21 24t35 13q26 0 82 -16q56 -15 77 -15q20 0 36 16.5t16 36.5q0 38 -39 50q-9 3 -70 6q-52 -19 -106 -19q-49 0 -193 27q-21 0 -49 -31z" />
<glyph unicode="&#xae;" horiz-adv-x="1357" d="M57 936q0 277 172 446q175 172 451 172q272 0 446 -174q174 -171 174 -444q0 -275 -174 -449q-172 -172 -446 -172t-449 172q-174 174 -174 449zM236 936q0 -206 118 -336q127 -139 326 -139q197 0 324 139q118 133 118 336t-118 336q-127 139 -324 139q-200 0 -322 -137 t-122 -338zM434 602v668h250q131 0 193 -35q79 -46 79 -168q0 -172 -159 -172l170 -293h-168l-156 281h-65v-281h-144zM578 995h124q59 0 81 17.5t22 70.5q0 74 -129 74h-98v-162z" />
<glyph unicode="&#xaf;" horiz-adv-x="868" d="M80 1237v152h706v-152h-706z" />
<glyph unicode="&#xb0;" horiz-adv-x="698" d="M55 1350q0 120 86 206t207 86t207 -86t86 -206q0 -121 -86 -207t-207 -86t-207 86t-86 207zM170 1350q0 -75 51.5 -127t126.5 -52t126.5 52t51.5 127t-51.5 126.5t-126.5 51.5t-126.5 -51.5t-51.5 -126.5z" />
<glyph unicode="&#xb1;" horiz-adv-x="1091" d="M49 33v166q0 108 133 120q38 0 105 -20q34 -9 55 -6q69 14 100 14v307h-393v205h41v35q0 74 70 74q10 0 55 -8.5t61 -8.5q3 0 33 6.5t43 6.5q48 0 74 -39q5 -7 16 -39v352h201v-352q14 33 25 55q15 27 32 27q14 0 58.5 -8.5t56.5 -8.5q63 13 78 13l53 -2q28 -3 33 -11 l25 -57h32v-240h-393v-301l70 -10q16 0 66 4t63 4q122 0 125 -16t41 -43q36 -26 36 -37v-182h-995zM115 848q93 -72 133 -72q0 2 -12 49q0 7 14 15t22 8q13 0 54 -10.5t49 -10.5q30 0 33 35q0 35 -70 35q-38 -12 -70 -12q-14 0 -62.5 9t-60.5 9q-5 0 -18 -10q-1 0 -5 -3 t-7 -7v-35zM125 266q0 -2 18.5 -26t18.5 -37q-6 -9 -6 -19q0 -17 63 -43q62 -26 88 -26q8 8 8 14q1 6 -3 17.5t-8 20.5l-5 9q0 13 16.5 25t34.5 12q86 0 258 -12q187 -13 258 -13q39 0 43 2q49 3 52 50q3 25 -39 41q-33 10 -60 10q-70 -15 -129 -15q-29 0 -94 35l-193 -10 q-9 0 -100 -31q-53 0 -176 27q-13 2 -29 -8.5t-16 -22.5zM672 846q21 -6 71 -41q43 -29 74 -29q0 2 -12 49q0 23 37 23q8 0 49 -10.5t53 -10.5q33 0 33 35q0 25 -25 31q-1 0 -6 0.5t-15.5 1.5t-23.5 2q-37 -12 -69 -12q-16 0 -64 9t-59 9q-17 0 -33 -29l-4 -10 q-4 -10 -6 -18z" />
<glyph unicode="&#xb2;" horiz-adv-x="688" d="M76 858q-9 96 92 184q229 198 229 265q0 100 -53 100q-43 0 -55 -84q-4 -36 -4 -45q0 -23 2 -33q0 -4 4 -16h-209l-6 39q0 315 112 315q25 0 35 -16q46 32 76 32q20 -4 51 -28q6 -4 17 -15q30 24 108 33q103 0 103 -155q38 -61 38 -142q0 -124 -92 -186q-7 -4 -29 -17 t-63.5 -38t-83.5 -50q2 0 10 -0.5t11 -1t10 -1t10.5 -1.5t9.5 -2.5t9.5 -4t8 -5.5t7.5 -7t6 -9q26 20 55 20q9 0 38 -9t36 -9q6 0 8 2q36 -17 39 -88q0 -43 10 -115h-532zM106 1427q0 -14 11.5 -37.5t21.5 -23.5q5 0 35 47q35 47 45 47q11 0 33 -28q23 -26 27 -41 q27 108 63 108q16 0 45 -29q21 -21 27 -28q19 0 49 47q43 0 61 -66l29 -90l6 66l-8 53q8 19 8 33q0 22 -47 63q-28 25 -45 25q-42 0 -109 -43q-63 46 -71 43q-8 0 -34 -17.5t-34 -17.5l-45 25q-56 0 -68 -136zM270 907q-3 -15 9 -30q3 3 7 8t5 6q15 15 28 12q17 -3 31 -29 q1 -1 1.5 -3t1 -5.5t1.5 -5.5q10 3 35 35q11 14 25 14q35 0 59 -75q6 14 13 28.5t8 16.5q15 24 32 24q14 0 23 -26q0 -1 4 -13l14 74q0 16 -80 31q-53 -27 -65 -27q-7 7 -8 10q-15 27 -101 27q-11 0 -26 -26.5t-17 -45.5z" />
<glyph unicode="&#xb3;" horiz-adv-x="653" d="M63 1001q0 36 13 80q18 56 49 56q5 0 31 -11l43 -24q15 6 18 6l19 -6l4 92q4 54 8 70l-94 6q-10 -2 -25 -2q-61 0 -61 51q0 28 14 74q16 53 16 59l-6 39q0 18 23 51t43 47q8 0 84 -30q42 37 65 40h4.5h4.5h3.5t3.5 -1t3.5 -1.5t4.5 -2t5 -3.5t6 -5t7 -6.5t9 -8.5h60 q25 0 45 -4q0 -10 45 -58q45 -45 39 -79q24 -52 24 -111q0 -72 -41 -113q-10 -10 -41 -24q105 -62 105 -187q0 -130 -82 -182q-64 -43 -203 -43q-246 0 -246 231zM84 1063q0 -22 49 -86h17q0 46 30 61q9 -9 21 -57q12 -47 22 -57l17 96q0 31 -17 65q-6 -2 -20 -2 q-15 0 -40 17.5t-30 17.5q-12 0 -29.5 -20.5t-19.5 -34.5zM109 1466q0 -13 22.5 -31t36.5 -18q9 0 27 35t28 35q4 0 29 -24.5t35 -24.5q14 0 37 45q13 22 18 22q14 -5 33 -47q4 -7 8.5 -15.5t6.5 -12.5t3 -5q5 2 8.5 6.5t6 11.5t4 13t3.5 15t3 14q36 9 63 -55q13 -33 37 -91 l14 80q0 32 -38 76q-8 9 -25 28.5t-25 28.5l-84 -2q-8 0 -25 11.5t-24 11.5q-14 0 -39 -20.5t-28 -20.5t-36 13.5t-46 13.5q-32 0 -53 -93zM246 1096q0 -43 30 -43q0 -127 27 -154q20 -4 25 -4q25 0 34 18q0 9 2.5 41t2.5 41q0 19 -5 39q6 47 -36 56q-3 3 -80 6zM260 1247 q0 4 6 -5.5t21 -39.5l14 8q4 -1 35 -22q3 9 9 26.5t9 26.5q0 19 -20 19q-11 -11 -17 -13q-4 0 -17.5 18.5t-18.5 18.5q-4 0 -13 -18q-1 -2 -3.5 -8t-4.5 -11zM272 1341q0 -2 4 -30q13 0 43 -23q6 6 15 6t18 -6l4 92q-15 20 -28 33q-5 0 -17 -12q-6 -2 -14 -2l-8 6 q-17 -31 -17 -64z" />
<glyph unicode="&#xb4;" horiz-adv-x="487" d="M25 1536l116 209q-27 109 -22 127q27 49 65 49l23 -4q23 -3 63 37q41 38 70 35q55 -9 82 -109q18 -68 18 -143l-213 -201h-202zM147 1862q0 -44 72 -217q12 2 53 77q41 74 80 74q16 0 28.5 21t12.5 41q0 8 -22 57q-21 47 -31 47q-16 0 -59 -43q-41 -41 -50 -41 q-6 -1 -14.5 5.5t-14.5 12.5l-7 7q-48 -9 -48 -41z" />
<glyph unicode="&#xb6;" horiz-adv-x="1009" d="M31 1087q0 295 401 295h496v-1460h-185v1321h-163v-1321h-185v881q-158 0 -252 61q-112 72 -112 223z" />
<glyph unicode="&#xb7;" horiz-adv-x="348" d="M57 598q0 50 32.5 82.5t82.5 32.5t82.5 -32.5t32.5 -82.5t-32.5 -82.5t-82.5 -32.5t-82.5 32.5t-32.5 82.5z" />
<glyph unicode="&#xb8;" horiz-adv-x="464" d="M33 -154q0 66 67 66q9 0 42 -5t42 -5q16 3 54 53q18 22 36 53h115q21 -15 21 -45q0 -68 -57.5 -120t-127.5 -52q-5 0 -33 5.5t-38 4.5q-34 -3 -58 -12q-5 0 -14 -6q-49 9 -49 63z" />
<glyph unicode="&#xb9;" horiz-adv-x="471" d="M72 1473q0 59 43 59l32 -6q27 73 64 73q19 0 27 -8q4 -4 6 -10q16 0 16 12q9 -31 -20 -37q-5 0 -16.5 13.5t-16.5 13.5q-26 0 -41 -35l-19 -55l-12 12q-15 15 -20 13q-27 -9 -27 -56q0 -66 39 -92q34 64 49 70q15 -51 37 -51q30 0 45 45q15 47 37 47q29 -57 47 -72 q0 143 -33 199q-18 -9 -35 -9q-5 0 -8 3q3 13 56 22l24 -76q51 0 51 -53v-700h-192l2 497q0 -3 -41 6h-37q-10 0 -16 -2q-35 3 -35 27l4 23q0 52 -10 127z" />
<glyph unicode="&#xba;" horiz-adv-x="847" d="M61 1165q0 158 100 251t263 93q159 0 260 -94q102 -94 102 -250q0 -158 -99.5 -251t-262.5 -93q-159 0 -260 94q-103 95 -103 250zM117 565v164h614v-164h-614zM262 1165q0 -86 39 -137q44 -59 123 -59q77 0 123 61q39 51 39 135q0 88 -42.5 142.5t-119.5 54.5 q-76 0 -123 -62q-39 -51 -39 -135z" />
<glyph unicode="&#xbb;" horiz-adv-x="901" d="M80 156v237l205 180l-205 181v237l342 -295v-245zM516 156v237l205 180l-205 181v237l342 -295v-245z" />
<glyph unicode="&#xbc;" horiz-adv-x="1236" d="M63 1473q0 59 43 59l33 -6q27 73 64 73q18 0 26 -8q5 -6 7 -10q16 0 16 12q9 -30 -21 -37q-5 0 -16 13.5t-16 13.5q-26 0 -41 -35l-19 -55l-12 12q-16 16 -21 13q-26 -9 -26 -56q0 -66 39 -92q34 64 49 70q15 -51 37 -51q30 0 45 45q15 47 37 47q29 -57 47 -72 q0 143 -33 199q-18 -9 -35 -9q-5 0 -8 3q3 13 55 22l25 -76q51 0 51 -53v-700h-192l2 497q0 -3 -41 6h-37q-11 0 -17 -2q-34 3 -34 27l4 23q0 44 -11 127zM72 -23l825 1436h150l-824 -1436h-151zM610 176v148q181 190 181 399q0 5 -2.5 26.5t-2.5 26.5q18 53 64 53 q9 0 18 -12q29 -29 35 -29q4 4 9 9.5t13 13t13 12.5q65 0 106 -86q-82 -183 -258 -350q20 -20 72 -20q17 0 29 6l6 88q63 66 182 252q0 -39 15 -74v-264q0 -15 34 -15h21q10 -3 18 -20v-16q2 -8 5.5 -12t9.5 -3v-133h-88v-180h-197v166l-12 14h-271zM733 303l2 -51 q3 3 17 10q18 11 26 8q28 0 37 -22l19 18q20 20 22 19q16 -11 51 -31q-3 46 -33 92q-7 -7 -30 -4q-16 2 -47 10q-21 0 -31 -16q-12 2 -21 -2q-12 -9 -12 -31zM811 788q4 -24 4 -28q-2 -29 -2 -45q0 -39 27 -51q0 32 53 59l18 -49q3 5 8.5 15t6.5 13q12 21 39 21q28 0 34 -31 q21 27 21 60q-53 47 -74 47q-4 1 -9 -7t-9 -18t-6 -12q-10 3 -29 12.5t-34 18t-17 8.5q-9 3 -31 -13zM1094 319q18 -6 18 -40q0 -25 23 -35q6 10 10 20t5.5 18t1.5 14v12l-1 5q0 11 -51 37z" />
<glyph unicode="&#xbd;" horiz-adv-x="1296" d="M63 -23l826 1436h149l-823 -1436h-152zM96 1473q0 59 43 59l33 -6q27 73 64 73q18 0 26 -8q4 -4 6 -10q17 0 17 12q9 -30 -21 -37q-5 0 -16.5 13.5t-16.5 13.5q-26 0 -41 -35l-18 -55l-12 12q-16 16 -21 13q-26 -9 -26 -56q0 -66 39 -92q34 64 49 70q15 -51 37 -51 q30 0 45 45q15 47 36 47q28 -55 48 -72q0 143 -33 199q-18 -9 -35 -9q-5 0 -8 3q3 13 55 22l25 -76q51 0 51 -53v-700h-193l2 497q0 -3 -41 6h-36q-11 0 -17 -2q-35 3 -35 27l4 23q0 52 -10 127zM723 88q-9 96 92 184q229 198 229 265q0 100 -53 100q-43 0 -55 -84 q-4 -36 -4 -45q0 -23 2 -33q0 -4 4 -16h-209l-6 39q0 315 113 315q24 0 34 -16q46 32 76 32q20 -4 51 -28q6 -4 17 -15q30 24 108 33q103 0 103 -155q39 -62 39 -142q0 -123 -93 -186q-7 -4 -29 -17t-63.5 -38t-83.5 -50q2 0 10 -0.5t11 -1t10 -1t10.5 -1.5t9.5 -2.5t9.5 -4 t8 -5.5t7.5 -7t6 -9q26 20 56 20q9 0 38 -9t35 -9t8 2q36 -17 39 -88q0 -36 11 -115h-533zM754 657q0 -14 11 -37.5t21 -23.5q5 0 35 47q35 47 45 47q11 0 33 -28q23 -26 27 -41q27 108 63 108q16 0 45 -29q21 -21 27 -28q19 0 49 47q43 0 61 -66l29 -90l6 66l-8 53 q8 19 8 33q0 22 -47 63q-28 25 -45 25q-41 0 -108 -43q-64 46 -72 43q-8 0 -34 -17.5t-34 -17.5l-45 25q-55 0 -67 -136zM918 137q-3 -17 8 -31q4 4 8 9t4 6q15 15 29 12q16 -3 30 -29q1 -1 1.5 -3t1 -5.5t1.5 -5.5q10 3 35 35q11 14 25 14q35 0 59 -76q4 11 9 21t8 16.5 t4 8.5q15 24 33 24q13 0 22 -27l4 -12l14 74q0 16 -79 31q-53 -27 -66 -27q-7 7 -8 10q-15 27 -100 27q-11 0 -26 -26.5t-17 -45.5z" />
<glyph unicode="&#xbe;" horiz-adv-x="1284" d="M61 1001q0 36 13 80q18 56 49 56q5 0 31 -11l43 -24q15 6 18 6l18 -6l5 92q4 54 8 70l-94 6q-10 -2 -25 -2q-61 0 -61 51q0 28 14 74q16 53 16 59l-6 39q0 18 23 51t43 47q7 0 84 -30q42 37 65 40h4.5h4.5h3.5t3.5 -1t3.5 -1.5t4.5 -2t5 -3.5t6 -5t7 -6.5t9 -8.5h60 q25 0 45 -4q0 -10 45 -58q45 -45 39 -79q24 -52 24 -111q0 -72 -41 -113q-10 -10 -41 -24q105 -62 105 -187q0 -130 -82 -182q-64 -43 -203 -43q-246 0 -246 231zM82 1063q0 -22 49 -86h16q0 45 31 61q9 -9 21 -57q12 -47 22 -57l17 96q0 31 -17 65q-6 -2 -20 -2 q-15 0 -40 17.5t-30 17.5q-12 0 -29.5 -20.5t-19.5 -34.5zM106 1466q0 -13 23 -31t37 -18q9 0 27 35t28 35q4 0 29 -24.5t35 -24.5q14 0 37 45q13 22 18 22q14 -5 33 -47q4 -7 8.5 -15.5t6.5 -12.5t3 -5q5 2 8.5 6.5t6 11.5t4 13t3.5 15t3 14q36 9 63 -55q13 -33 37 -91 l14 80q0 32 -38 76q-8 9 -25 28.5t-25 28.5l-84 -2q-8 0 -25 11.5t-24 11.5q-14 0 -39 -20.5t-28 -20.5t-36 13.5t-46 13.5q-33 0 -54 -93zM162 -14l825 1433h152l-824 -1433h-153zM244 1096q0 -43 30 -43q0 -127 27 -154q20 -4 25 -4q25 0 34 18q0 9 2.5 41t2.5 41 q0 19 -5 39q6 47 -36 56q-3 3 -80 6zM258 1247q0 4 6 -5.5t21 -39.5l14 8q4 -1 35 -22q3 9 9 26.5t9 26.5q0 19 -20 19q-11 -11 -17 -13q-4 0 -17.5 18.5t-18.5 18.5q-4 0 -13 -18q-1 -2 -3.5 -8t-4.5 -11zM270 1341q0 -2 4 -30q13 0 43 -23q6 6 15 6t18 -6l4 92 q-15 20 -28 33q-5 0 -17 -12q-6 -2 -14 -2l-8 6q-17 -31 -17 -64zM678 182v148q180 189 180 399q0 5 -2 26.5t-2 26.5q19 54 64 54q8 0 18 -13q28 -28 35 -28q5 6 17.5 17.5t17.5 16.5q65 0 106 -86q-82 -183 -258 -350q20 -20 72 -20q16 0 28 6l7 88q63 66 182 252 q0 -42 14 -74v-264q0 -14 35 -14h20q10 -3 19 -21v-16q2 -8 5 -12t9 -3v-133h-88v-180h-196v166l-13 14h-270zM801 309l2 -51q4 4 16 10q18 11 27 8q28 0 37 -22l18 18q21 21 23 19q16 -11 51 -31q-3 46 -33 92q-7 -7 -31 -4q-16 2 -47 10q-20 0 -30 -16q-12 2 -21 -2 q-12 -9 -12 -31zM879 795q4 -24 4 -29q-2 -29 -2 -45q0 -39 26 -51q0 31 54 59l18 -49q13 26 14 29q11 20 39 20q29 0 35 -31q20 26 20 60q-53 47 -73 47q-4 1 -9 -7t-9.5 -18t-6.5 -12q-10 3 -29 12.5t-34 18t-17 8.5q-9 3 -30 -12zM1161 326q19 -6 19 -41q0 -26 22 -35 q5 8 9 17t5.5 15.5t2.5 13t1 10.5t-0.5 8t-0.5 5q0 10 -52 37z" />
<glyph unicode="&#xbf;" horiz-adv-x="1101" d="M35 414q0 164 96 268q10 8 70.5 57t107.5 86q99 83 99 230h301q0 -307 -228 -451q-108 -70 -108 -182q0 -189 182 -189q155 0 195 150l2 59q3 75 30 164q37 119 90 119q56 -86 105 -86l20 4q17 0 44.5 -21.5t27.5 -35.5l-8 -285q-47 -170 -182 -256q-131 -84 -306 -84 q-229 0 -374 109q-164 123 -164 344zM377 1272q0 35 2 45q0 128 59 217q18 27 62 65v-20q0 -11 45 -37q50 -29 59 -29l21 5q80 0 80 -166v-101q0 -63 2 -90h-324q0 13 -3 56t-3 55zM453 1438q0 -41 24 -41q36 0 64 -72q27 -71 41 -68q8 3 43 95q18 50 18 65q0 37 -22 43 q-6 1 -21.5 -9.5t-17.5 -10.5q-13 0 -50 37q-33 39 -43 36q-8 -3 -26 -51q-5 -16 -10 -24zM825 563q0 -38 25 -41q40 0 61 -71q24 -71 33 -68q14 3 41 80q31 79 31 98q0 15 -23 25q-8 1 -22.5 -10t-16.5 -11q-11 0 -57 49q-22 25 -35 25q-10 0 -23.5 -30.5t-13.5 -45.5z" />
<glyph unicode="&#xc0;" d="M37 0q0 33 76 371q59 268 147 639l90 387q-33 26 -33 73q0 123 95 123q33 0 45 -4q20 -12 30 -16q6 -3 24.5 20t33.5 23q14 0 24.5 10t15.5 20l5 11q17 -3 90 -6q56 -1 80 -17t24 -49l-4 -29q0 -24 39 -77q21 -30 21 -52q-3 -120 -13 -237q13 -61 68 -289 q76 -317 127 -555q71 -321 74 -346h-361l-69 254h-230l-74 -254h-325zM354 1511q0 -19 11 -45q38 -77 38 -161v-39q-2 -16 -2 -37q0 -31 11 -31q24 0 24 82v63q6 41 35 41q12 0 39 -79q28 -80 35 -82q0 141 20 141q6 0 27 -104q21 -103 53 -103q10 10 21 51q1 5 16 52 q0 8 -10 29t-10 26q0 31 12 28q1 0 13.5 -22t14.5 -27q15 -18 41 -135q27 -119 33 -119l7.5 45t7 45t4.5 31q20 137 20 195q0 94 -31 125q-16 16 -16 22l4 29q0 30 -22.5 61t-47.5 31q-13 -10 -28 -14q-1 0 -30.5 13.5t-37.5 12.5q-14 -4 -22 -34q-9 -33 -19 -33l-20 4 q-7 0 -17 -10q-18 -27 -28 -27q-19 0 -60 20q-26 13 -32 13q-54 0 -54 -58zM367 1880q0 60 24 145q30 111 76 111q16 0 61 -39q46 -37 72 -37l23 4q26 0 46.5 -20.5t20.5 -46.5q0 -16 -22 -109l114 -209h-202zM414 2001q0 -62 49 -62q21 0 74 -102q24 -49 51 -49q1 3 2 9.5 t2 8.5q8 16 57 127q3 10 10 43q9 70 -47 70l-6 -12q-10 -13 -31 -13q-18 0 -59 41q-37 43 -49 43q-5 0 -29 -47q-24 -46 -24 -57zM475 557q0 -7 10 -92q12 -78 15 -78q2 0 37 35q35 38 49 41q2 0 18 -4q2 0 10 -4q0 16 2 26q-3 24 -14 43l-20 -4q-10 0 -43 23q-31 22 -43 22 q-10 0 -21 -8zM483 612q110 -67 135 -51l-49 377q-13 -19 -61 -211q-24 -108 -25 -115zM610 1546q0 27 39 27q41 0 41 -8q0 -13 -33 -13q-7 -3 -21.5 -8t-21.5 -8q-4 4 -4 10z" />
<glyph unicode="&#xc1;" d="M29 0q0 37 75 371q45 202 148 639l90 387q-33 26 -33 73q0 123 94 123q34 0 46 -4q20 -12 30 -16q6 -3 24.5 20t33.5 23q14 0 24.5 10t15.5 20l5 11q17 -3 90 -6q56 -1 80 -17t24 -49l-4 -29q0 -24 39 -77q20 -29 20 -52q-3 -135 -12 -237q13 -61 68 -289 q76 -317 127 -555q70 -313 73 -346h-360l-70 254h-229l-74 -254h-325zM346 1511q0 -22 10 -45q39 -79 39 -161v-39q-2 -16 -2 -37q0 -31 10 -31q25 0 25 82v63q6 41 35 41q12 0 39 -79q28 -80 35 -82q0 141 20 141q6 0 27 -104q21 -103 53 -103q8 8 20 51q1 4 3.5 11.5 t6.5 19t7 21.5q0 8 -10.5 29t-10.5 26q0 31 13 28q1 0 13.5 -22t14.5 -27q15 -18 41 -135q27 -119 33 -119q11 69 18 121q21 144 21 195q0 94 -31 125q-16 16 -16 22l4 29q0 30 -22.5 61t-47.5 31q-13 -10 -28 -14q-1 0 -30.5 13.5t-37.5 12.5q-15 -4 -23 -34 q-9 -33 -18 -33l-20 4q-7 0 -17 -10q-18 -27 -28 -27q-19 0 -60 20q-26 13 -33 13q-53 0 -53 -58zM369 1663l116 209q-27 109 -22 127q27 49 65 49l23 -4q23 -3 63 37q41 38 70 35q55 -9 82 -109q18 -67 18 -143l-213 -201h-202zM467 557q0 -7 10 -92q12 -78 15 -78 q1 0 36 35q35 38 50 41q2 0 18 -4q2 0 10 -4q0 16 2 26q-3 24 -14 43l-21 -4q-10 0 -43 23q-31 22 -43 22q-9 0 -20 -8zM475 612q110 -67 135 -51l-49 377q-13 -19 -61 -211q-24 -108 -25 -115zM492 1989q0 -46 71 -217q12 2 53 77q41 74 80 74q16 0 28.5 21t12.5 41 q0 8 -22 57q-21 47 -31 47q-16 0 -59 -43q-41 -41 -50 -41q-6 -1 -14.5 5.5t-14.5 13.5l-7 6q-47 -9 -47 -41zM602 1546q0 27 39 27q41 0 41 -8q0 -13 -33 -13q-7 -3 -21.5 -8t-21.5 -8q-4 4 -4 10z" />
<glyph unicode="&#xc2;" horiz-adv-x="1132" d="M39 0q0 33 76 371q59 268 147 639l90 387q-33 26 -33 73q0 123 95 123q33 0 45 -4q20 -12 30 -16q6 -3 24.5 20t33.5 23q14 0 24.5 10t15.5 20l5 11q17 -3 90 -6q56 -1 80 -17t24 -49l-4 -29q0 -24 39 -77q21 -30 21 -52q-3 -120 -13 -237q13 -61 68 -289 q76 -317 127 -555q71 -321 74 -346h-361l-69 254h-230l-73 -254h-326zM205 1655l219 280q-4 9 -12 23q-33 56 -33 96q0 43 20.5 81t53.5 38q16 0 43 -43q27 -41 41 -41q45 25 63 25q20 0 62 -31q13 -13 38 -33q0 -31 11 -57l14 -37l-23 -12l226 -289h-232l-131 168 l-129 -168h-231zM356 1511q0 -19 11 -45q39 -79 39 -161v-39q-3 -24 -3 -37q0 -31 11 -31q24 0 24 82v63q6 41 35 41q12 0 39 -79q28 -80 35 -82q0 141 20 141q6 0 27 -104q21 -103 53 -103q10 10 21 51q1 5 16 52q0 8 -10 29t-10 26q0 31 12 28q1 0 14 -22t15 -27 q13 -17 40 -135q27 -119 33 -119l7.5 45t7 45t4.5 31q20 137 20 195q0 94 -31 125q-16 16 -16 22l4 29q0 31 -22 61.5t-47 30.5q-12 -10 -29 -14q-1 0 -30.5 13.5t-37.5 12.5q-14 -4 -22 -34q-9 -33 -19 -33l-20 4q-7 0 -17 -10q-18 -27 -28 -27q-19 0 -60 20q-26 13 -32 13 q-54 0 -54 -58zM410 2071q0 -22 26 -78q10 -20 13 -27l22 6q13 0 33 -39q21 -37 35 -37q5 0 19 23t17 23q20 0 70 -50q40 -40 57 -67q-22 80 -22 184l-31 31q-36 33 -51 33q-14 -7 -59 -27q-47 0 -64 51q-9 27 -26 27q-39 0 -39 -53zM477 557q0 -7 10 -92q12 -78 15 -78 q2 0 37 35q35 38 49 41q2 0 18 -4q2 0 10 -4q0 16 2 26q-3 24 -14 43l-20 -4q-10 0 -43 23q-31 22 -43 22q-10 0 -21 -8zM485 612q110 -67 136 -51l-50 377q-13 -19 -61 -211q-24 -108 -25 -115zM612 1546q0 27 39 27q41 0 41 -8q0 -13 -33 -13q-7 -3 -21.5 -8t-21.5 -8 q-4 4 -4 10z" />
<glyph unicode="&#xc3;" horiz-adv-x="1144" d="M41 0q0 33 76 371q59 268 147 639l90 387q-32 25 -32 73q0 123 94 123q33 0 45 -4q18 -11 31 -16q6 -3 24 20t33 23q14 0 24.5 10t15.5 20l5 11q17 -3 90 -6q56 -1 80 -17t24 -49l-4 -29q0 -24 39 -77q21 -30 21 -52q-3 -120 -13 -237q13 -61 68 -289q76 -317 127 -555 q71 -321 74 -346h-361l-69 254h-230l-73 -254h-326zM217 1688q15 106 76 176q69 75 172 75q45 0 143 -36q101 -37 131 -37q76 0 97 82h133q-37 -246 -224 -246q-61 0 -167 33q-14 5 -59 18t-75 23q-75 0 -96 -88h-131zM358 1511q0 -19 11 -45q39 -79 39 -161v-39 q-2 -16 -2 -37q0 -31 10 -31q24 0 24 82v63q6 41 35 41q12 0 39 -79q28 -80 35 -82q0 141 20 141q6 0 27 -104q21 -103 53 -103q10 10 21 51q1 5 16 52q0 8 -10 29t-10 26q0 31 12 28q1 0 14 -22t15 -27q15 -18 41 -135q27 -119 32 -119l7.5 45t7 45t4.5 31q20 137 20 195 q0 94 -31 125q-16 16 -16 22l4 29q0 31 -22 61.5t-47 30.5q-12 -10 -29 -14q-1 0 -30.5 13.5t-37.5 12.5q-14 -4 -22 -34q-9 -33 -19 -33l-20 4q-7 0 -17 -10q-18 -27 -28 -27q-19 0 -60 20q-26 13 -32 13q-54 0 -54 -58zM479 557q0 -7 10 -92q12 -78 15 -78q2 0 37 35 q35 38 49 41q2 0 18 -4q2 0 10 -4q0 11 3 26q-2 22 -15 43l-20 -4q-10 0 -43 23q-31 22 -43 22q-10 0 -21 -8zM487 612q110 -67 136 -51l-50 377q-13 -19 -61 -211q-24 -108 -25 -115zM614 1546q0 27 39 27q41 0 41 -8q0 -13 -32 -13q-7 -3 -22 -8t-22 -8q-4 4 -4 10z" />
<glyph unicode="&#xc4;" horiz-adv-x="1161" d="M51 0q0 33 76 371q59 268 147 639l91 387q-33 26 -33 73q0 123 94 123q33 0 45 -4q18 -11 31 -16q6 -3 24 20t33 23q14 0 24.5 10t15.5 20l5 11q17 -3 90 -6q56 -1 80.5 -17t24.5 -49l-4 -29q0 -24 39 -77q20 -29 20 -52q-3 -135 -12 -237q21 -96 67 -289 q76 -317 127 -555q71 -321 74 -346h-360l-70 254h-229l-74 -254h-326zM254 1741v31l4 28q0 66 21 142q26 105 69 108q19 0 60 -35q39 -33 61 -33l20 5q68 0 68 -138q0 -15 2 -66t2 -67q0 -7 -2 -27.5t-2 -27.5h-299q0 8 -2 39.5t-2 40.5zM301 1921q0 -55 45 -55q20 0 55 -74 q35 -72 56 -72q65 136 65 203q0 43 -43 37q-5 0 -18 -10.5t-15 -10.5q-5 4 -55 50q-27 24 -43 24q-11 0 -29 -41t-18 -51zM369 1511q0 -22 10 -45q39 -79 39 -161v-39q-2 -16 -2 -37q0 -31 10 -31q25 0 25 82v63q6 41 34 41q12 0 39 -79q28 -80 35 -82q0 141 21 141 q5 0 26 -104q21 -103 53 -103q10 10 21 51q1 5 16 52q0 8 -10 29t-10 26q0 31 12 28q1 0 14 -22t15 -27q15 -18 41 -135q27 -119 33 -119q11 69 18 121q20 137 20 195q0 95 -30 125q-17 17 -17 22l4 29q0 31 -22 61.5t-47 30.5q-12 -10 -29 -14q-1 0 -30 13.5t-37 12.5 q-15 -4 -23 -34q-9 -33 -18 -33l-21 4q-6 0 -16 -10q-18 -27 -29 -27q-18 0 -59 20q-26 13 -33 13q-53 0 -53 -58zM489 557q0 -4 1.5 -15t4.5 -34t5 -43q12 -78 14 -78t37 35q35 38 49 41q2 0 18 -4q3 0 11 -4q0 16 2 26q-2 22 -15 43l-20 -4q-10 0 -43 23q-31 22 -43 22 q-10 0 -21 -8zM498 612q110 -67 135 -51l-49 377q-15 -21 -62 -211q-21 -95 -24 -115zM610 1743q0 38 8 57q0 62 21 142q26 105 70 108q22 0 59 -37q40 -34 61 -31l21 5q54 0 63 -45q5 -20 5 -93q0 -15 2 -66t2 -67q0 -7 -2 -27.5t-2 -27.5h-300l-4 37q-4 28 -4 45z M625 1546q0 27 39 27q41 0 41 -8q0 -13 -33 -13q-7 -3 -21.5 -8t-21.5 -8q-4 4 -4 10zM662 1921q0 -55 45 -55q20 0 55 -74q35 -72 55 -72q66 138 66 203q0 43 -43 37q-6 0 -18 -10.5t-15 -10.5q-5 4 -55 50q-27 24 -43 24q-11 0 -29 -41t-18 -51z" />
<glyph unicode="&#xc5;" d="M35 0q0 33 76 371q59 268 147 639l90 387q-33 26 -33 73q0 123 95 123q33 0 45 -4q20 -12 30 -16q6 -3 24.5 20t33.5 23q14 0 24.5 10t15.5 20l5 11q17 -3 90 -6q56 -1 80 -17t24 -49l-4 -29q0 -24 39 -77q21 -30 21 -52q-3 -120 -13 -237q13 -61 68 -289 q76 -317 127 -555q71 -321 74 -346h-361l-69 254h-230l-74 -254h-325zM352 1511q0 -22 10 -45q39 -79 39 -161v-39q-2 -16 -2 -37q0 -31 11 -31q24 0 24 82v63q6 41 35 41q12 0 39 -79q28 -80 35 -82q0 141 20 141q6 0 27 -104q21 -103 53 -103q10 10 21 51q1 5 16 52 q0 8 -10.5 29t-10.5 26q0 31 13 28q1 0 13.5 -22t14.5 -27q15 -18 41 -135q27 -119 33 -119l7.5 45t7 45t4.5 31q20 137 20 195q0 94 -31 125q-16 16 -16 22l4 29q0 30 -22.5 61t-47.5 31q-13 -10 -28 -14q-1 0 -30.5 13.5t-37.5 12.5q-14 -4 -22 -34q-9 -33 -19 -33l-20 4 q-7 0 -17 -10q-18 -27 -28 -27q-19 0 -60 20q-26 13 -32 13q-54 0 -54 -58zM373 1841q0 67 48 112.5t116 45.5q66 0 113.5 -46t47.5 -112q0 -67 -46.5 -111t-114.5 -44q-67 0 -115.5 45t-48.5 110zM457 1841q0 -32 24 -55t56 -23t54.5 23t22.5 55q0 80 -77 80q-32 0 -56 -24 t-24 -56zM473 557q0 -7 10 -92q12 -78 15 -78q2 0 37 35q35 38 49 41q2 0 18 -4q2 0 10 -4q0 16 2 26q-3 24 -14 43l-20 -4q-10 0 -43 23q-31 22 -43 22q-10 0 -21 -8zM481 612q110 -67 135 -51l-49 377q-13 -19 -61 -211q-24 -108 -25 -115zM608 1546q0 27 39 27 q41 0 41 -8q0 -13 -33 -13q-7 -3 -21.5 -8t-21.5 -8q-4 4 -4 10z" />
<glyph unicode="&#xc6;" horiz-adv-x="1867" d="M53 0q0 33 76 371q59 268 147 639l91 387q-33 26 -33 73q0 123 94 123q33 0 45 -4q18 -11 31 -16q6 -3 24 20t33 23q14 0 24.5 10t15.5 20l5 11q31 -8 105 -8q71 0 86 -41q27 18 57 18q19 0 84 -33q68 -30 92 -30q20 0 103 59q38 28 51 25q109 -21 153 -80q123 0 197 22 q64 25 145 53q25 0 80 -34q0 -345 -28 -412l-365 -8q-45 -45 -66 -45q-32 37 -71 37q-64 0 -64 -99q0 -36 15 -141q27 49 98 49q61 0 78 -20q10 -13 18 -13q51 45 74 45q2 0 18 -4q5 0 13 -4q8 -91 8 -241v-58l-2 -12l-1.5 -9t-0.5 -5q-10 -13 -66 -19q-14 0 -26 -2 q-7 -7 -21 -67q-15 -65 -33 -74l-30 88q-14 34 -25 53l-63 -4q-35 -3 -48 -16l13 -162q27 0 37 2l79 10q80 0 115 -53q30 12 68 12q14 0 135 -26q63 -13 78 -13q4 -4 24 -43t43 -39q13 0 17 2q3 -128 12 -299l-29 -24l-1011 6l-70 254h-229l-74 -254h-326zM371 1511 q0 -22 10 -45q39 -79 39 -161v-39q-2 -16 -2 -37q0 -31 10 -31q25 0 25 82v63q6 41 34 41q12 0 39 -79q28 -80 35 -82q0 141 21 141q5 0 26 -104q21 -103 54 -103q8 8 20 51q1 5 16 52q0 8 -10 29t-10 26q0 31 12 28q1 0 7.5 -12t13.5 -24t8 -13q23 -33 33 -55l-4 43 q38 18 143 18q2 0 27 -8t34 -8q23 -3 45 64q24 65 56 65q54 0 69 -70q5 -47 13 -102q34 137 61 137q32 0 66 -69q8 -21 24.5 -59t18.5 -42q47 158 94 158q22 0 51 -20l33 -21q1 2 8.5 23.5t11.5 35.5q18 60 33 60q68 0 104 -39q50 52 66 74q25 42 25 96q0 6 -25 18.5 t-31 10.5q-168 -82 -309 -82q-52 0 -98 30q-48 31 -54 31q-51 0 -100 -37t-72 -37q-27 0 -81 31t-91 31q-8 0 -49 7t-53 7q-20 39 -49 39q-12 -10 -29 -14q-1 0 -30 13.5t-37 12.5q-15 -4 -23 -34q-9 -33 -18 -33l-21 4q-6 0 -16 -10q-18 -27 -29 -27q-18 0 -59 20 q-26 13 -33 13q-53 0 -53 -58zM492 557q0 -7 10 -92q12 -78 14 -78t37 35q35 38 49 41q3 0 19 -4q2 0 10 -4q0 16 2 26q-2 22 -15 43l-20 -4q-10 0 -43 23q-31 22 -43 22q-9 0 -20 -8zM500 612q110 -67 135 -51l-49 377q-15 -21 -62 -211q-21 -95 -24 -115zM627 1546 q0 27 39 27q41 0 41 -8q0 -13 -33 -13q-7 -3 -21.5 -8t-21.5 -8q-4 4 -4 10zM1196 330q0 -142 51 -142q48 0 84 39q38 41 35 41q2 0 59 -69q59 -68 78 -68q30 0 82 107q40 6 74 -52l37 -80q-6 15 -6 33q0 32 14 60l31 65q0 34 -107 86q-87 41 -125 47l-10 -10 q-17 -14 -78 -14q-13 0 -65 30q-50 33 -93 33q-22 0 -43 -41q-18 -40 -18 -65zM1204 844q12 -57 66 -66l67 -184q105 176 105 324q0 16 -2 26q-18 -35 -62 -35q-7 0 -47 19q-34 19 -57 16q-32 -6 -54 -37.5t-16 -62.5z" />
<glyph unicode="&#xc7;" horiz-adv-x="1120" d="M59 733q0 93 21 369q21 307 37 330q34 46 121 88q59 27 65 77q83 56 139 56q59 0 109 -33q54 -31 70 -31q7 0 33 6.5t34 6.5q55 0 107 -64q82 -118 100 -141q11 0 45 15t45 15q74 0 74 -141q0 -22 -10 -67q-9 -39 -11 -37q17 -192 17 -299h-367q-13 23 -16 55v14 q0 25 2 37q0 254 -107 254q-52 0 -78 -69l5 -719q21 37 65 37q23 0 64 -27q39 -26 32 -49l13 -17q10 24 37 234h368v-162q0 -234 -92 -346q-101 -125 -328 -125l4 -20q0 -68 -57 -120.5t-127 -52.5q-5 0 -33.5 6t-38.5 5q-29 -3 -57 -13q-5 0 -14 -6q-49 9 -49 64 q0 65 67 65q9 0 42 -5t42 -5q21 3 78 88q-193 18 -297 105q-110 93 -137 280q-17 122 -17 342zM113 1137q0 -85 63 -133q9 73 19 129q27 129 75 129q35 0 35 -66v-25q0 -6 -2 -10q13 -3 37 105q24 106 74 106q8 1 27.5 -3.5t21.5 -4.5q15 0 31 31q17 32 49 32q17 0 51 -51 q34 -49 39 -49q11 0 45 37t47 37q6 0 43 -119q37 -117 82 -117q8 0 28.5 18.5t28.5 18.5q21 0 51 -76q20 -46 43 -106q-2 12 -2 35v24q0 43 9 80q20 84 20 105q0 29 -22 84q-21 53 -50 53q-49 0 -49 -76q4 -28 4 -33q0 -57 -28 -57q-12 0 -21 25q8 16 8 30q0 9 -10 39 t-10 39l8 25q-6 33 -84 114q-54 54 -82 54l-4 -3l-12.5 -7.5t-16 -8.5t-19 -7t-19.5 -3q-15 0 -86 47q-70 49 -93 49q-56 0 -102 -49q-67 -100 -74 -109q-15 9 -33 9q-47 0 -81 -105q-39 -118 -39 -237zM313 1462q1 3 11 29q23 26 45 29q24 0 28 -4q0 -15 -39 -35 q-38 -21 -45 -19zM467 248q0 -43 31 -103l67 58q3 -27 45 -47q41 -19 58 -27q32 19 32 100v29q0 56 -53 115q-52 57 -108 69q-72 -97 -72 -194zM530 295v6q3 20 37 23q8 -8 8 -19q0 -5 -4.5 -8.5t-7.5 -3.5q-14 -3 -16 -10zM592 1470l4 9q2 2 6 2q6 0 16 -13q0 -7 3 -10h-9 q-16 0 -20 12zM702 1440q9 15 27 18q34 0 37 -14q0 -23 -14 -23q-4 0 -18 7.5t-17 7.5l-12 -4q-6 3 -3 8z" />
<glyph unicode="&#xc8;" horiz-adv-x="1181" d="M51 1536q35 30 64 57q45 39 86 39q19 0 84 -33q68 -30 92 -30q19 0 102 59q38 28 51 25q110 -21 154 -80q123 0 197 22q90 35 145 54q24 0 80 -35q0 -343 -29 -412l-364 -8q-45 -45 -66 -45q-33 37 -72 37q-63 0 -63 -99q0 -43 14 -141q27 49 99 49q60 0 77 -20 q9 -12 19 -12q51 45 74 45q2 0 18 -4q2 0 12 -5q9 -102 9 -241v-58l-2 -12t-2 -9t-1 -5q-10 -13 -65 -19q-15 0 -27 -2q-6 -6 -20 -67q-15 -65 -33 -74l-31 88q-16 39 -24 53l-64 -4q-34 -3 -47 -16l12 -162q27 0 37 2l80 10q80 0 115 -53q30 12 67 12q15 0 136 -26 q63 -13 77 -13q6 -6 25 -43q20 -38 43 -38q12 0 16 2q2 -95 13 -299l-29 -25h-977l-20 20v895q0 340 -62 621zM104 1479q0 -70 46 -215q47 -149 47 -207q-1 5 -2 18.5t-2 20.5q-7 68 -7 88q0 123 52 123q2 0 27 -8.5t34 -8.5q23 -3 45 64q24 65 55 65q55 0 70 -69 q9 -80 12 -103q34 137 62 137q31 0 65 -69q8 -21 24.5 -59t18.5 -42q47 158 94 158q23 0 52 -20l32 -21q1 4 9 25.5t12 34.5q18 59 33 59q68 0 104 -39q50 52 66 74q24 41 24 96q0 6 -24.5 18.5t-30.5 10.5q-168 -82 -309 -82q-51 0 -99 31q-47 30 -53 30q-51 0 -100 -37 q-48 -36 -72 -36q-29 0 -82 30q-54 31 -90 31q-77 0 -100 -29q-13 -16 -13 -69zM399 1864q0 56 25 145q30 111 76 111q16 0 61 -39q46 -37 72 -37l22 4q26 0 47 -21t21 -47q0 -11 -23 -108l115 -209h-203zM446 1985q0 -62 50 -62q20 0 73 -102q24 -49 52 -49q1 3 2 9.5 t2 8.5q8 16 57 127q4 11 10 43q9 70 -47 70l-6 -13q-9 -12 -31 -12q-18 0 -59 41q-37 43 -49 43q-5 0 -29 -47q-25 -48 -25 -57zM543 336q0 -141 51 -141q49 0 84 38q38 41 35 41q2 0 59 -69q59 -68 78 -68q30 0 82 107q40 6 74 -51l36 -80q-6 15 -6 32q0 30 15 60l30 65 q0 34 -106 86q-87 41 -125 47l-10 -10q-17 -14 -78 -14q-12 0 -66 31q-49 32 -92 32q-22 0 -43 -41q-18 -41 -18 -65zM551 850q12 -57 65 -66l68 -184q104 174 104 324q0 16 -2 26q-18 -35 -61 -35q-7 0 -47 19q-34 19 -57 16q-32 -6 -54 -37.5t-16 -62.5z" />
<glyph unicode="&#xc9;" horiz-adv-x="1183" d="M49 1536q35 30 64 57q45 39 86 39q19 0 84 -33q68 -30 92 -30q19 0 102 59q38 28 51 25q110 -21 154 -80q123 0 197 22q90 35 145 54q24 0 80 -35q0 -343 -29 -412l-364 -8q-45 -45 -66 -45q-33 37 -72 37q-63 0 -63 -99q0 -43 14 -141q27 49 99 49q60 0 77 -20 q9 -12 19 -12q51 45 74 45q2 0 18 -4q2 0 12 -5q8 -91 8 -241v-58l-2 -12l-1.5 -9t-0.5 -5q-10 -13 -65 -19q-15 0 -27 -2q-6 -6 -20 -67q-15 -65 -33 -74l-31 88q-16 39 -24 53l-64 -4q-34 -3 -47 -16l12 -162q27 0 37 2l80 10q80 0 115 -53q30 12 67 12q15 0 136 -26 q63 -13 77 -13q6 -6 25 -43q20 -38 43 -38q12 0 16 2q2 -95 13 -299l-29 -25h-977l-20 20v895q0 340 -62 621zM102 1479q0 -73 45 -215q48 -152 48 -207q0 2 -5 39q-6 58 -6 88q0 123 52 123q2 0 27 -8.5t34 -8.5q23 -3 45 64q24 65 55 65q55 0 70 -69q9 -80 12 -103 q34 137 62 137q31 0 65 -69q8 -21 24.5 -59t18.5 -42q47 158 94 158q23 0 52 -20l32 -21q1 4 9 25.5t12 34.5q18 59 33 59q68 0 104 -39q50 52 66 74q24 41 24 96q0 6 -24.5 18.5t-30.5 10.5q-168 -82 -309 -82q-51 0 -99 31q-47 30 -53 30q-51 0 -100 -37q-48 -36 -72 -36 q-29 0 -82 30q-54 31 -90 31q-77 0 -100 -29q-13 -16 -13 -69zM375 1663l117 209q-28 111 -23 127q27 49 66 49l22 -4q24 -3 64 37q41 38 69 35q55 -9 82 -109q19 -71 19 -143l-213 -201h-203zM498 1989q0 -46 71 -217q13 3 54 77t79 74q16 0 28.5 21t12.5 41q0 8 -22 57 q-21 47 -31 47q-16 0 -59 -43q-41 -41 -49 -41q-6 -1 -15 5.5t-15 13.5l-7 6q-47 -9 -47 -41zM541 336q0 -141 51 -141q49 0 84 38q38 41 35 41q2 0 59 -69q59 -68 78 -68q30 0 82 107q40 6 74 -51l36 -80q-6 15 -6 32q0 30 15 60l30 65q0 34 -106 86q-87 41 -125 47 l-10 -10q-17 -14 -78 -14q-12 0 -66 31q-49 32 -92 32q-22 0 -43 -41q-18 -41 -18 -65zM549 850q12 -57 65 -66l68 -184q104 174 104 324q0 16 -2 26q-18 -35 -61 -35q-7 0 -47 19q-35 19 -58 16q-32 -6 -53.5 -37.5t-15.5 -62.5z" />
<glyph unicode="&#xca;" horiz-adv-x="1183" d="M49 1536q35 30 64 57q45 39 86 39q19 0 84 -33q68 -30 92 -30q19 0 102 59q38 28 51 25q110 -21 154 -80q123 0 197 22q90 35 145 54q24 0 80 -35q0 -343 -29 -412l-364 -8q-45 -45 -66 -45q-33 37 -72 37q-63 0 -63 -99q0 -43 14 -141q27 49 99 49q60 0 77 -20 q9 -12 19 -12q51 45 74 45q2 0 18 -4q2 0 12 -5q8 -91 8 -241v-58l-2 -12l-1.5 -9t-0.5 -5q-10 -13 -65 -19q-15 0 -27 -2q-6 -6 -20 -67q-15 -65 -33 -74l-31 88q-16 39 -24 53l-64 -4q-34 -3 -47 -16l12 -162q27 0 37 2l80 10q80 0 115 -53q30 12 67 12q15 0 136 -26 q63 -13 77 -13q6 -6 25 -43q20 -38 43 -38q12 0 16 2q2 -95 13 -299l-29 -25h-977l-20 20v895q0 340 -62 621zM102 1479q0 -73 45 -215q48 -152 48 -207q0 2 -5 39q-6 58 -6 88q0 123 52 123q2 0 27 -8.5t34 -8.5q23 -3 45 64q24 65 55 65q55 0 70 -69q9 -80 12 -103 q34 137 62 137q31 0 65 -69q8 -21 24.5 -59t18.5 -42q47 158 94 158q23 0 52 -20l32 -21q1 4 9 25.5t12 34.5q18 59 33 59q68 0 104 -39q50 52 66 74q24 41 24 96q0 6 -24.5 18.5t-30.5 10.5q-168 -82 -309 -82q-51 0 -99 31q-47 30 -53 30q-51 0 -100 -37q-48 -36 -72 -36 q-29 0 -82 30q-54 31 -90 31q-77 0 -100 -29q-13 -16 -13 -69zM258 1663l219 281q-4 8 -12 22q-33 56 -33 96q0 43 20.5 81t53.5 38q16 0 43 -43q27 -41 41 -41q45 25 63 25q20 0 62 -31q9 -9 39 -33q0 -34 10 -57l14 -37l-22 -12l225 -289h-231l-132 168l-129 -168h-231z M463 2079q0 -22 26 -78q10 -20 13 -27l22 6q13 0 33 -38q21 -37 35 -37q6 0 20 22.5t17 22.5q20 0 69 -49q41 -41 58 -68q-23 84 -23 184l-31 31q-36 33 -51 33q-14 -7 -59 -27q-47 0 -64 51q-9 27 -26 27q-39 0 -39 -53zM541 336q0 -141 51 -141q49 0 84 38q38 41 35 41 q2 0 59 -69q59 -68 78 -68q30 0 82 107q40 6 74 -51l36 -80q-6 15 -6 32q0 30 15 60l30 65q0 34 -106 86q-87 41 -125 47l-10 -10q-17 -14 -78 -14q-12 0 -66 31q-49 32 -92 32q-22 0 -43 -41q-18 -41 -18 -65zM549 850q12 -57 65 -66l68 -184q104 174 104 324q0 16 -2 26 q-18 -35 -61 -35q-7 0 -47 19q-35 19 -58 16q-32 -6 -53.5 -37.5t-15.5 -62.5z" />
<glyph unicode="&#xcb;" horiz-adv-x="1204" d="M57 1536q35 30 64 57q45 39 86 39q19 0 84 -33q67 -30 92 -30q19 0 102 59q38 28 52 25q109 -21 153 -80q123 0 197 22q90 35 145 54q24 0 80 -35q0 -343 -29 -412l-364 -8q-45 -45 -66 -45q-32 37 -71 37q-64 0 -64 -99q0 -43 14 -141q27 49 99 49q61 0 78 -20 q9 -12 18 -12q51 45 74 45q2 0 18 -4q2 0 12 -5q9 -102 9 -241v-58l-2 -12l-1.5 -9t-0.5 -5q-10 -13 -66 -19q-15 0 -27 -2q-6 -6 -20 -67q-15 -65 -33 -74l-31 88q-16 39 -24 53l-64 -4q-34 -3 -47 -16l13 -162q26 0 36 2l80 10q80 0 115 -53q30 12 68 12q14 0 135 -26 q63 -13 78 -13q4 -4 24 -43q20 -38 43 -38q13 0 17 2q3 -128 12 -299l-29 -25h-977l-20 20v895q0 340 -62 621zM111 1479q0 -73 45 -215q47 -149 47 -207q-1 5 -2 18.5t-2 20.5q-6 58 -6 88q0 123 51 123q2 0 27 -8.5t34 -8.5q23 -3 45 64q24 65 56 65q54 0 69 -69 q9 -80 12 -103q34 137 62 137q31 0 65 -69q8 -21 24.5 -59t18.5 -42q47 158 95 158q22 0 51 -20l33 -21l20 60q18 59 33 59q68 0 104 -39q50 52 66 74q24 41 24 96q0 6 -24.5 18.5t-30.5 10.5q-168 -82 -309 -82q-50 0 -98 31q-47 30 -54 30q-51 0 -100 -37q-48 -36 -72 -36 q-29 0 -82 30q-54 31 -90 31q-77 0 -100 -29q-12 -15 -12 -69zM291 1741v31l4 28q0 69 20 142q26 105 70 108q18 0 59 -35q39 -33 62 -33l20 5q68 0 68 -138q0 -15 2 -66t2 -67q0 -7 -2 -27.5t-2 -27.5h-299q0 8 -2 39.5t-2 40.5zM338 1921q0 -55 45 -55q20 0 55 -74 q35 -72 56 -72q65 136 65 203q0 43 -43 37q-6 0 -18 -10.5t-15 -10.5q-5 4 -55 50q-27 24 -43 24q-11 0 -29 -41t-18 -51zM549 336q0 -141 51 -141q49 0 84 38q38 41 35 41q2 0 59 -69q59 -68 78 -68q30 0 82 107q40 6 74 -51l37 -80q-7 18 -7 32q0 30 15 60l30 65 q0 34 -106 86q-87 41 -125 47l-10 -10q-17 -14 -78 -14q-12 0 -66 31q-49 32 -92 32q-22 0 -43 -41q-18 -41 -18 -65zM557 850q12 -57 66 -66l67 -184q105 176 105 324q0 16 -2 26q-18 -35 -62 -35q-7 0 -47 19q-34 19 -57 16q-32 -6 -54 -37.5t-16 -62.5zM647 1743 q0 38 8 57q0 62 21 142q26 105 69 108q23 0 60 -37q40 -34 61 -31l21 5q54 0 63 -45q4 -16 4 -93q0 -15 2 -66t2 -67q0 -7 -2 -27.5t-2 -27.5h-299l-4 37q-4 28 -4 45zM698 1921q0 -55 45 -55q21 0 56 -74q35 -72 55 -72q66 138 66 203q0 43 -43 37q-5 0 -18 -10.5 t-15 -10.5q-9 6 -56 50q-27 24 -43 24q-10 0 -28 -41q-19 -43 -19 -51z" />
<glyph unicode="&#xcc;" horiz-adv-x="544" d="M57 1872q0 56 25 145q30 111 76 111q16 0 61 -39q46 -37 72 -37l22 4q26 0 47 -20.5t21 -46.5q0 -12 -23 -109l115 -209h-203zM98 1475q0 47 29 110q35 68 80 68l49 -8q14 0 64 6t63 6q62 0 92 -68l-2 -1589h-373zM104 1993q0 -62 50 -62q20 0 73 -102q24 -49 52 -49 q1 3 2 9.5t2 8.5q8 16 57 127q4 11 10 43q9 70 -47 70l-6 -13q-9 -12 -31 -12q-18 0 -59 41q-37 43 -49 43q-5 0 -29 -47q-25 -48 -25 -57zM137 1503q0 -35 33 -176q27 -15 33 -72q0 -20 -21 -122q0 -43 45 -76q17 24 17 71q0 32 -4 86q0 47 36 89q26 0 50 -37 q8 -17 23.5 -46.5t21.5 -41.5q90 128 90 387q-12 59 -78 59q-11 0 -52.5 -7t-54.5 -7q-15 0 -40 14l20 -47q-37 -15 -49 -12q-17 0 -17 16l5 29q-58 -24 -58 -107zM281 1491q10 13 30 16q39 0 64 -32v-9q-52 0 -94 25z" />
<glyph unicode="&#xcd;" horiz-adv-x="542" d="M59 1671l117 209q-27 109 -22 127q27 49 65 49l23 -4q23 -3 63 37q41 38 70 35q55 -9 82 -109q18 -67 18 -143l-213 -201h-203zM74 1475q0 49 28 110q35 68 80 68l49 -8q13 0 63 6t64 6q63 0 93 -68l-2 -1589h-373zM113 1503q0 -40 32 -176q27 -15 33 -72q0 -25 -20 -122 q0 -43 45 -76q16 22 16 71q0 32 -4 86q0 46 37 89q25 0 49 -37q8 -17 23.5 -46.5t21.5 -41.5q90 128 90 387q-12 59 -78 59q-11 0 -52 -7t-54 -7q-16 0 -41 14l20 -47q-37 -15 -49 -12q-16 0 -16 16l4 29q-57 -23 -57 -107zM182 1997q0 -44 72 -217q11 2 53 78q40 73 80 73 q16 0 28.5 21t12.5 41q0 8 -22 57q-21 47 -31 47q-17 0 -60 -43q-41 -41 -49 -41q-6 -1 -15 5.5t-15 13.5l-7 6q-47 -9 -47 -41zM256 1491q10 13 31 16q38 0 63 -32v-9q-52 0 -94 25z" />
<glyph unicode="&#xce;" horiz-adv-x="774" d="M25 1663l219 281q-5 8 -13 22q-32 54 -32 96q0 43 20 81t53 38q16 0 43 -43q27 -41 41 -41q46 25 64 25q19 0 61 -31q9 -9 39 -33q0 -34 10 -57l15 -37l-23 -12l226 -289h-232l-131 168l-129 -168h-231zM205 1475q0 49 28 110q35 68 80 68l49 -8q14 0 64 6t63 6 q63 0 93 -68l-2 -1589h-373zM229 2079q0 -19 27 -78q3 -6 12 -27l23 6q13 0 33 -38q21 -37 34 -37q6 0 20 22.5t17 22.5q21 0 70 -49q39 -39 57 -68q-22 80 -22 184l-31 31q-36 33 -51 33q-6 -3 -60 -27q-46 0 -63 51q-9 27 -27 27q-39 0 -39 -53zM244 1503q0 -40 32 -176 q27 -15 33 -72q0 -25 -20 -122q0 -43 45 -76q16 22 16 71q0 32 -4 86q0 46 37 89q25 0 49 -37q8 -17 23.5 -46.5t21.5 -41.5q90 128 90 387q-12 59 -78 59q-11 0 -52 -7t-54 -7q-16 0 -41 14l20 -47q-37 -15 -49 -12q-16 0 -16 16l4 29q-57 -23 -57 -107zM387 1491 q10 13 31 16q38 0 63 -32v-9q-52 0 -94 25z" />
<glyph unicode="&#xcf;" horiz-adv-x="765" d="M49 1757v31q4 28 4 29q0 65 21 141q26 105 69 108q20 0 60 -34q39 -33 61 -33l21 4q67 0 67 -137q0 -16 2 -67t2 -66q0 -7 -2 -28t-2 -28h-299q0 8 -2 39.5t-2 40.5zM96 1937q0 -55 45 -55q21 0 56 -74q35 -71 55 -71q65 136 65 202q0 43 -43 37q-6 0 -18 -10t-14 -10 q-13 8 -56 49q-28 25 -43 25q-10 0 -28 -41q-19 -43 -19 -52zM197 1475q0 49 28 110q35 68 80 68l49 -8q14 0 64 6t63 6q62 0 92 -68l-2 -1589h-372zM236 1503q0 -40 32 -176q27 -15 33 -72q0 -25 -20 -122q0 -43 45 -76q16 22 16 71q0 32 -4 86q0 46 37 89q25 0 49 -37 q8 -17 23.5 -46.5t21.5 -41.5q90 128 90 387q-12 59 -78 59q-11 0 -52 -7t-54 -7q-16 0 -41 14l20 -47q-37 -15 -49 -12q-16 0 -16 16l4 29q-57 -23 -57 -107zM379 1491q10 13 31 16q38 0 63 -32v-9q-52 0 -94 25zM406 1759q0 39 8 58q0 65 20 141q26 105 70 108 q23 0 59 -36q40 -34 62 -31l20 4q55 0 64 -45q4 -16 4 -92q0 -16 2 -67t2 -66q0 -7 -2 -28t-2 -28h-299l-4 37q-4 28 -4 45zM457 1937q0 -55 45 -55q20 0 55 -74q35 -71 55 -71q66 138 66 202q0 43 -43 37q-5 0 -18 -10t-15 -10q-9 6 -55 49q-28 25 -43 25q-11 0 -29 -41 t-18 -52z" />
<glyph unicode="&#xd0;" horiz-adv-x="1300" d="M53 688v227h160v330q0 2 -8 9.5t-8 15.5q0 40 -23 137q-22 93 -22 127q0 51 36.5 88t87.5 37q27 0 91 -49q68 -47 77 -47q35 0 50 41q17 3 81 -9q75 -16 89 -16q31 0 69 41q40 43 72 43q48 0 88 -37q13 -16 39 -46t39 -46q5 -1 35.5 5.5t33.5 6.5q47 0 105 -110 q50 -92 53 -127q29 -50 29 -674v-248l-2 -174q-12 -98 -76 -147q-75 -60 -211 -60h-725v682h-160zM213 1522l4 -109q37 -27 37 -129v-35q0 -8 -2 -14q6 61 53 61q37 0 47 -2q9 0 15 -2q0 27 45 72t73 45q11 0 78 -55q5 0 31 26q27 27 49 27q5 0 76 -53q40 -29 61 -29 q18 0 33 49q15 51 29 51q20 0 41 -30q23 -29 24 -29q7 -2 47 23q20 14 29 14q26 0 61 -53q7 -14 30 -57.5t36 -67.5l4 133q3 48 -16 96q-21 59 -66 59q-11 1 -31.5 -7.5t-21.5 -8.5q-39 0 -80 62t-111 71q-15 0 -55 -49q-38 -47 -69 -47q-26 0 -84 12q-63 13 -86 13 q-19 -54 -54 -54q-9 0 -82 54q-71 53 -98 53q-22 0 -34.5 -29t-12.5 -61zM614 1225l4 -310h99l6 -221l-102 -4l2 -289l110 7q69 3 88 14l-16 749q-12 66 -109 66q-30 0 -82 -12zM627 250q0 -15 22 -57q24 -37 41 -37q15 0 39 94q18 0 57 -45q42 -42 60 -49q-1 4 -2 9 l-1.5 7.5t-0.5 3.5q0 8 7 38t7 38q0 23 -33 43q-40 27 -43 35q-80 22 -100 22q-12 0 -16 -4q3 -27 -23 -63q-14 -17 -14 -35z" />
<glyph unicode="&#xd1;" horiz-adv-x="1144" d="M70 0l2 1372q0 277 92 277q18 0 47 -29q27 -27 45 -27l13 13l22 18q37 30 78 33q35 0 61 -33q3 -16 53 -63q53 -44 56 -56q1 -13 3 -31.5t5.5 -47t5.5 -50.5q15 -115 55 -170q26 33 70 33q29 0 39 -16l16 20v60q-2 27 -2 59q0 270 131 270q18 0 32.5 -4.5t28.5 -17 t20 -19.5t20.5 -27t17.5 -24l53 12q41 0 41 -12v-1536h-399l-236 600v-604h-370zM104 1487q0 -63 50 -252q19 19 67 117q16 -3 90 -109q9 9 21 57q24 99 53 115q102 -65 102 -151l19 4q24 46 24 96q0 66 -34 147q-25 0 -72 56q-45 57 -59 57q-15 0 -60 -39q-46 -37 -47 -37 q-7 0 -49 31t-55 31q-24 0 -39 -51q-11 -50 -11 -72zM215 1712q15 106 76 176q70 76 172 76q42 0 143 -37t131 -37q76 0 97 82h133q-37 -246 -224 -246q-62 0 -168 33q-15 5 -59 18.5t-74 22.5q-75 0 -96 -88h-131zM242 1475q-3 36 53 36v-8q-9 -16 -14 -18q-15 -12 -27 -12 q-8 0 -12 2zM629 1044l8 -174h12q-9 56 84 56h23q6 0 10 -2v30q0 -4 0.5 5.5t0.5 18t1 19.5q3 74 -39 150q-35 54 -72 59q-12 -12 -16 -20q-4 -6 6 -23t10 -18q-31 -76 -28 -101zM766 1462q43 -55 113 -139q49 -72 86 -166q0 64 36 168q37 107 37 145q0 28 -8 41 q-3 -2 -8 -4.5t-6 -3.5q-13 -8 -27 -8q-21 0 -65 53q-45 54 -74 45q-29 -3 -53 -53q-5 -14 -15.5 -39t-15.5 -39z" />
<glyph unicode="&#xd2;" horiz-adv-x="1132" d="M53 627q0 219 8 268q0 207 54 324q0 14 -19 79q-18 62 -18 86q0 50 51 101q52 55 98 55q19 -8 33 -8q45 45 105 45q12 0 23 -5t18.5 -12.5t13 -14.5t8.5 -12l4 -5q20 -3 68 39t57 39q6 -1 20 -7t25 -12t12 -6q19 0 74 37q56 36 72 39q52 0 108 -33q58 -34 70 -80 q5 -5 68 -237q53 -196 57 -209q22 -222 22 -400q0 -440 -155 -589q-112 -109 -373 -109q-504 0 -504 627zM106 1393q-6 -27 19 -88q24 -60 53 -66q6 -2 47 25q41 28 51 30q27 0 43 -22q22 6 60 59q41 53 61 53q26 0 74 -36q49 -37 68 -37q23 0 32 51q9 53 33 53 q60 0 113 -90q2 -3 61 -106q21 92 56 92q25 0 114 -391l-8 237q18 15 18 45q-1 6 -26 90q-11 38 -8 51q-29 15 -45 97q-14 96 -19 106q-10 24 -74 51q-67 31 -90 31q-9 -10 -26.5 -30.5t-26.5 -30.5q-41 -47 -55 -47l-4 5q-4 5 -10 12t-14 14.5t-18 12.5t-20 5 q-12 0 -65 -47q-46 -43 -68 -47q-27 49 -70 49q-10 0 -65 -19q-49 -18 -70 -18l-24 8q-21 -6 -60 -45q-37 -40 -37 -57zM231 1401l5 14q14 0 33.5 -13.5t19.5 -25.5q-8 -4 -15 -4q-10 0 -20 10zM322 1862q0 60 24 145q30 111 76 111q16 0 61 -39q46 -37 72 -37l23 4 q26 0 46.5 -21t20.5 -47q0 -15 -22 -108l114 -209h-202zM369 1982q0 -61 49 -61q22 0 74 -102q24 -50 51 -50q1 3 2 10t2 9q8 16 57 127q4 10 10 43q9 70 -47 70l-6 -13q-9 -12 -31 -12q-18 0 -59 41q-37 43 -49 43q-5 0 -29 -47t-24 -58zM500 233q0 -31 8 -47q4 2 14 2 q33 0 62 -45q11 -17 30 -59q17 88 25 135q3 86 -102 143q-15 -3 -27 -59q-10 -52 -10 -70zM500 399q14 14 37 17q15 0 125 -101v887q0 49 -27 49q-6 0 -23 -26q-18 -27 -32 -27q-5 -2 -9.5 6t-7.5 23q-6 34 -14 37q-18 6 -33.5 -17t-15.5 -45v-803zM698 1495h9q9 -15 36 -33 l45 21l-6 -27q-12 -24 -34 -24l-9 4q-12 4 -22 14z" />
<glyph unicode="&#xd3;" horiz-adv-x="1130" d="M45 627q0 219 8 268q0 209 53 324q0 17 -18 79t-18 86q0 50 51 101q52 55 98 55q19 -8 33 -8q45 45 104 45q12 0 23 -5t19 -12.5t13.5 -14.5t8.5 -12l4 -5q20 -3 68 39t57 39q6 -1 20 -7t25 -12t12 -6q19 0 74 37q56 36 72 39q52 0 108 -33q58 -34 70 -80q3 -3 67 -237 q47 -176 58 -209q22 -222 22 -400q0 -440 -155 -589q-112 -109 -373 -109q-504 0 -504 627zM98 1393q-6 -27 19 -88q24 -60 53 -66q6 -2 47 25q41 28 51 30q27 0 43 -22q22 6 60 59q41 53 61 53q26 0 74 -36q49 -37 67 -37q24 0 33 51q9 53 33 53q60 0 113 -90q2 -3 61 -106 q21 92 55 92q26 0 115 -391l-8 237q18 15 18 45q-1 6 -26 90q-12 40 -9 51q-29 15 -45 97q-15 99 -18 106q-10 24 -74 51q-67 31 -90 31q-9 -10 -26.5 -30.5t-26.5 -30.5q-41 -47 -55 -47l-4 5q-4 5 -10 12t-14 14.5t-18 12.5t-20 5q-12 0 -65 -47q-46 -43 -68 -47 q-27 49 -70 49q-10 0 -65 -19q-50 -18 -70 -18l-24 8q-21 -6 -60 -45q-37 -40 -37 -57zM223 1401l4 14q14 0 34 -13.5t20 -25.5q-8 -4 -15 -4q-10 0 -20 10zM369 1663l116 209q-27 109 -22 127q27 49 65 49l23 -4q23 -3 63 37q41 38 70 35q55 -9 82 -109q18 -67 18 -143 l-213 -201h-202zM492 233q0 -31 8 -47q4 2 14 2q32 0 61 -45q14 -21 31 -59q17 88 25 135q3 86 -103 143q-14 -3 -26 -59q-10 -52 -10 -70zM492 399q14 14 36 17q15 0 125 -101v887q0 49 -26 49q-6 0 -23 -26q-18 -27 -33 -27q-10 -3 -16 29q-6 34 -14 37q-18 6 -33.5 -17 t-15.5 -45v-803zM492 1989q0 -46 71 -217q12 2 53 77q41 74 80 74q16 0 28.5 21t12.5 41q0 8 -22 57q-21 47 -31 47q-16 0 -59 -43q-41 -41 -50 -41q-6 -1 -14.5 5.5t-14.5 13.5l-7 6q-47 -9 -47 -41zM690 1495h8q8 -14 37 -33l45 21l-6 -27q-12 -24 -35 -24l-8 4 q-12 4 -22 14z" />
<glyph unicode="&#xd4;" horiz-adv-x="1134" d="M51 627q0 219 8 268q0 207 54 324q0 14 -19 79q-18 62 -18 86q0 50 51 101q52 55 98 55q19 -8 33 -8q45 45 104 45q12 0 23 -5t19 -12.5t13.5 -14.5t8.5 -12l4 -5q20 -3 68 39t57 39q6 -1 20 -7t25 -12t12 -6q19 0 74 37q56 36 72 39q52 0 108 -33q58 -34 70 -80 q5 -5 68 -237q53 -196 57 -209q22 -222 22 -400q0 -440 -155 -589q-112 -109 -373 -109q-504 0 -504 627zM104 1393q-6 -27 19 -88q24 -60 53 -66q6 -2 47 25q41 28 51 30q27 0 43 -22q22 6 60 59q41 53 61 53q26 0 74 -36q49 -37 68 -37q23 0 32 51q9 53 33 53 q60 0 113 -90q2 -3 61 -106q21 92 55 92q26 0 115 -391l-8 237q18 15 18 45q-1 6 -26 90q-11 38 -8 51q-29 15 -45 97q-14 96 -19 106q-10 24 -74 51q-67 31 -90 31q-9 -10 -26.5 -30.5t-26.5 -30.5q-41 -47 -55 -47l-4 5q-4 5 -10 12t-14 14.5t-18 12.5t-20 5 q-12 0 -65 -47q-46 -43 -68 -47q-27 49 -70 49q-10 0 -65 -19q-50 -18 -70 -18l-24 8q-21 -6 -60 -45q-37 -40 -37 -57zM209 1663l219 281q-4 8 -12 22q-33 56 -33 96q0 43 20.5 81t53.5 38q16 0 43 -43q27 -41 41 -41q45 25 63 25q20 0 62 -31q9 -9 39 -33q0 -34 10 -57 l14 -37l-22 -12l225 -289h-232l-131 168l-129 -168h-231zM229 1401l4 14q14 0 34 -13.5t20 -25.5q-8 -4 -15 -4q-10 0 -20 10zM414 2079q0 -22 26 -78q10 -20 13 -27l22 6q13 0 33 -38q21 -37 35 -37q5 0 20 22.5t17 22.5q20 0 69 -49q41 -41 58 -68q-23 84 -23 184l-31 31 q-36 33 -51 33q-14 -7 -59 -27q-47 0 -64 51q-9 27 -26 27q-39 0 -39 -53zM498 233q0 -31 8 -47q4 2 14 2q33 0 62 -45q11 -17 30 -59q17 88 25 135q3 86 -102 143q-15 -3 -27 -59q-10 -52 -10 -70zM498 399q14 14 37 17q14 0 124 -101v887q0 49 -26 49q-6 0 -23 -26 q-18 -27 -32 -27q-5 -2 -9.5 6t-7.5 23q-6 34 -14 37q-18 6 -33.5 -17t-15.5 -45v-803zM696 1495h9q9 -15 36 -33l45 21l-6 -27q-12 -24 -35 -24l-8 4q-12 4 -22 14z" />
<glyph unicode="&#xd5;" horiz-adv-x="1148" d="M57 627q0 212 9 268q0 209 53 324q0 14 -19 79q-18 62 -18 86q0 50 51 101q52 55 98 55q19 -8 33 -8q45 45 105 45q12 0 23 -5t18.5 -12.5t13 -14.5t8.5 -12l4 -5q20 -3 68 39t57 39q6 -1 20 -7t25 -12t12 -6q19 0 74 37q56 36 72 39q52 0 108 -33q58 -34 70 -80 q5 -5 68 -237q53 -196 57 -209q23 -232 23 -400q0 -439 -156 -589q-112 -109 -373 -109q-504 0 -504 627zM111 1393q-6 -29 18 -88q24 -60 53 -66q6 -2 47 25t52 30q27 0 43 -22q21 6 59 59q41 53 61 53q26 0 74 -36q49 -37 68 -37q23 0 32 51q9 53 33 53q60 0 113 -90 q2 -3 61 -106q21 92 56 92q25 0 114 -391l-8 237q19 16 19 45q-1 5 -4.5 16.5t-10.5 33.5t-12 40q-11 38 -8 51q-29 15 -45 97q-14 96 -19 106q-11 25 -73 51q-67 31 -91 31q-9 -10 -26.5 -30.5t-26.5 -30.5q-41 -47 -55 -47l-4 5q-4 5 -10 12t-14 14.5t-18 12.5t-20 5 q-12 0 -65 -47q-46 -43 -68 -47q-27 49 -69 49q-11 0 -66 -19q-49 -18 -70 -18l-24 8q-21 -6 -60 -45q-36 -39 -36 -57zM207 1714q15 106 76 176q70 76 172 76q42 0 143 -37t131 -37q75 0 96 82h133q-37 -245 -223 -245q-65 0 -168 32q-15 5 -59 18.5t-74 22.5 q-75 0 -96 -88h-131zM236 1401l4 14q14 0 33.5 -13.5t19.5 -25.5q-8 -4 -14 -4q-11 0 -21 10zM504 233q0 -31 8 -47q4 2 14 2q33 0 62 -45q11 -17 30 -59q17 88 25 135q3 86 -102 143q-15 -3 -27 -59q-10 -52 -10 -70zM504 399q14 14 37 17q15 0 125 -101v887q0 49 -27 49 q-6 0 -23 -26q-18 -27 -32 -27q-5 -2 -9.5 6t-7.5 23q-6 34 -14 37q-18 6 -33.5 -17t-15.5 -45v-803zM702 1495h9q8 -14 37 -33l45 21l-7 -27q-12 -24 -34 -24l-9 4q-12 4 -22 14z" />
<glyph unicode="&#xd6;" horiz-adv-x="1148" d="M59 627q0 212 9 268q0 209 53 324q0 14 -19 79q-18 62 -18 86q0 50 51 101q52 55 98 55q19 -8 33 -8q45 45 105 45q12 0 23 -5t18.5 -12.5t13 -14.5t8.5 -12l4 -5q20 -3 68 39t57 39q6 -1 20 -7t25.5 -12t12.5 -6q18 0 73 37q56 36 72 39q52 0 108 -33q58 -34 70 -80 q5 -5 68 -237q53 -196 57 -209q23 -232 23 -400q0 -439 -156 -589q-112 -109 -373 -109q-504 0 -504 627zM113 1393q-6 -29 18 -88q24 -60 53 -66q6 -2 47 25t52 30q27 0 43 -22q21 6 59 59q41 53 61 53q26 0 74 -36q49 -37 68 -37q24 0 33 51q9 53 32 53q60 0 113 -90 q2 -3 61 -106q21 92 56 92q25 0 114 -391l-8 237q19 16 19 45q-1 5 -4.5 16.5t-10.5 33.5t-12 40q-11 38 -8 51q-29 15 -45 97q-14 96 -19 106q-11 25 -73 51q-67 31 -91 31q-9 -10 -26.5 -30.5t-26.5 -30.5q-41 -47 -55 -47l-4 5q-4 5 -10 12t-14 14.5t-18 12.5t-20 5 q-12 0 -65 -47q-46 -43 -68 -47q-27 49 -69 49q-11 0 -66 -19q-49 -18 -70 -18l-24 8q-20 -6 -59 -45q-37 -40 -37 -57zM223 1761v31q4 28 4 29q0 65 21 141q27 106 69 109q19 0 60 -35q39 -33 61 -33l21 4q67 0 67 -137q0 -16 2 -67t2 -66q0 -7 -2 -28t-2 -28h-299 q0 8 -2 39.5t-2 40.5zM238 1401l4 14q14 0 33.5 -13.5t19.5 -25.5q-8 -4 -14 -4q-11 0 -21 10zM270 1942q0 -56 45 -56q21 0 56 -74q35 -71 55 -71q66 138 66 203q0 42 -43 36q-5 0 -18 -10t-15 -10q-13 8 -56 49q-28 25 -43 25q-10 0 -28 -41q-19 -43 -19 -51zM506 233 q0 -31 8 -47q4 2 14 2q33 0 62 -45q14 -21 31 -59q9 46 24 135q3 86 -102 143q-15 -3 -27 -59q-10 -52 -10 -70zM506 399q14 14 37 17q15 0 125 -101v887q0 49 -27 49q-6 0 -23 -26q-18 -27 -32 -27q-5 -2 -9.5 6t-7.5 23q-6 34 -14 37q-18 6 -33.5 -17t-15.5 -45v-803z M580 1763q0 39 8 58q0 65 20 141q26 106 70 109q22 0 59 -37q40 -34 62 -31l20 4q55 0 64 -45q4 -16 4 -92q0 -16 2 -67t2 -66q0 -7 -2 -28t-2 -28h-299l-4 37q-4 28 -4 45zM631 1942q0 -56 45 -56q20 0 55 -74q35 -71 55 -71q66 138 66 203q0 42 -43 36q-5 0 -18 -10 t-15 -10q-9 6 -55 49q-28 25 -43 25q-11 0 -29 -41t-18 -51zM705 1495h8q8 -14 37 -33l45 21l-7 -27q-12 -24 -34 -24l-9 4q-12 4 -22 14z" />
<glyph unicode="&#xd7;" horiz-adv-x="995" d="M59 1069q15 68 80 68q18 0 54 -25l34 -25q13 0 48.5 9.5t43.5 9.5q38 0 78 -43q42 -42 45 -80l50 -55l12 -68l49 86l55 68q-12 15 -12 41q0 63 68 63q5 0 69 -31q9 -1 40.5 18t43.5 19q31 0 84 -84q33 -50 33 -96q0 -105 -29 -108q-23 -4 -48.5 23t-20.5 50l-189 -192 l277 -277l-150 -151l-274 282l-267 -266l-141 141l266 267l-278 278q-7 11 -12 27q-12 28 -9 51zM106 1073q0 -13 14.5 -37t24.5 -24l19 2q16 0 39 -29q24 -27 30 -27q19 10 23 17q13 16 23 16q15 0 61 -30q50 -29 55 -29q-1 6 -3.5 32t-4.5 46q-4 17 -33 36t-49 21 q-9 1 -34 -9.5t-31 -10.5q-52 0 -78 36q-13 19 -17 19q-23 0 -32 -15q-3 -3 -7 -14zM635 1067q3 -8 7 -14t6.5 -8t12 -8.5t15.5 -10.5l-12 -20q-3 -15 16 -31q8 0 12 2q-6 16 66 16q59 0 86 -37q18 -44 39 -84q3 -1 5 3t3.5 13.5t1.5 22.5q0 8 -8 27.5t-8 22.5v36 q-6 55 -21 52q-14 -3 -41 12q-26 16 -39 16q-8 0 -32.5 -16.5t-32.5 -16.5q-10 0 -32 24.5t-26 25.5q-7 1 -11.5 -6t-6.5 -21z" />
<glyph unicode="&#xd8;" horiz-adv-x="1351" d="M74 6q-26 36 76 113q100 75 77 114q-86 160 -86 394q0 212 9 268q0 209 53 324q0 14 -19 79q-18 62 -18 86q0 50 51 101q52 55 98 55q19 -8 33 -8q45 45 105 45q12 0 23 -5t18.5 -12.5t13 -14.5t8.5 -12l4 -5q20 -3 68 39t57 39q6 -1 20 -7t25 -12t12 -6q19 0 74 37 q56 36 72 39q46 0 102 -33q61 -36 74 -72q2 -3 14 -41q20 -58 25 -79q11 16 42 64t50 77l148 -6q0 -41 -97 -176q-65 -92 -76 -119q7 -47 21 -174q23 -225 23 -400q0 -439 -156 -589q-112 -109 -373 -109q-183 0 -338 104q-13 0 -47 -61t-45 -61h-37q-25 0 -35 -2 q-52 0 -69 26zM195 1393q-6 -29 18 -88q24 -60 53 -66q6 -2 47 25t52 30q27 0 43 -22q21 6 59 59q41 53 61 53q26 0 74 -36q49 -37 68 -37q23 0 32 51q9 53 33 53q60 0 113 -90q2 -3 61 -106q21 92 56 92q25 0 114 -391l-8 237q19 16 19 45q-1 5 -4.5 16.5t-10.5 33.5 t-12 40q-11 38 -8 51q-29 15 -45 97q-14 96 -19 106q-11 25 -73 51q-67 31 -91 31q-9 -10 -26.5 -30.5t-26.5 -30.5q-41 -47 -55 -47l-4 5q-4 5 -10 12t-14 14.5t-18 12.5t-20 5q-12 0 -65 -47q-46 -43 -68 -47q-27 49 -69 49q-11 0 -66 -19q-49 -18 -70 -18l-24 8 q-21 -6 -60 -45q-36 -39 -36 -57zM319 1401l5 14q14 0 33.5 -13.5t19.5 -25.5q-8 -4 -15 -4q-10 0 -20 10zM588 233q0 -31 8 -47q4 2 14 2q33 0 62 -45q11 -17 30 -59q17 88 25 135q3 86 -102 143q-15 -3 -27 -59q-10 -52 -10 -70zM588 399q14 14 37 17q15 0 125 -101l6 459 l-166 -239zM588 1202l2 -422l160 203v219q0 49 -27 49q-6 0 -23 -26q-18 -27 -32 -27q-5 -2 -9.5 6t-7.5 23q-6 34 -14 37q-17 6 -33 -17.5t-16 -44.5zM786 1495h9q9 -15 36 -33l46 21l-7 -27q-12 -24 -34 -24l-9 4q-12 4 -22 14z" />
<glyph unicode="&#xd9;" horiz-adv-x="1081" d="M61 1454q0 43 13 113q18 90 49 90q117 0 117 -68q0 -33 4 -33q27 68 73 68q33 0 56 -45q24 -43 63 -43q21 0 21 -45v-975l12 -121q7 18 18 49q15 43 48 43q59 0 79 -36q45 -73 48 -76v1083q0 20 45 88q47 72 61 72q104 0 104 -45q0 -59 21 -62q6 9 20 25q20 26 33 29 q30 0 58 -72q24 -64 24 -100v-1182q0 -110 -186 -168q-133 -43 -273 -43q-146 0 -295 41q-211 58 -211 170zM102 1520q0 -7 4.5 -33t4.5 -33q-1 -9 -2 -22.5t-2 -22.5t-1 -16q5 -31 17 -68q2 -2 8 -2q0 59 6 74q9 39 53 39q28 0 50 -25q26 -37 65 -80q4 -5 8.5 -10t6.5 -7 t2 -3l-5 -21q0 -14 17 -45t22 -45q8 -19 11 -22q13 -3 19.5 5.5t8.5 30.5l8 285q-31 9 -43 31q-2 4 -5 12t-5 14t-5.5 12t-7 9.5t-7.5 3.5q-42 0 -54 -27q-12 -26 -36 -26q-36 0 -45 33q4 16 4 20q-9 43 -49 43q-19 3 -31.5 -23t-16.5 -81zM281 1458q3 12 16 12q41 0 41 -26 q0 -5 -16 -8q-5 -1 -15.5 2.5t-18.5 9t-7 10.5zM315 1880q0 56 25 145q30 111 76 111q16 0 61 -39q46 -37 72 -37l22 4q26 0 47 -20.5t21 -46.5q0 -12 -23 -109l115 -209h-203zM362 2001q0 -62 50 -62q20 0 73 -102q24 -49 52 -49q1 3 2 9.5t2 8.5q8 16 57 127q4 10 10 43 q9 70 -47 70l-6 -12q-10 -13 -31 -13q-18 0 -59 41q-37 43 -49 43q-5 0 -29 -47q-25 -48 -25 -57zM481 315l47 -104q12 -4 31 -47q21 -43 39 -43q33 141 33 178q0 13 -31 80q-2 4 -6 11.5t-11.5 21.5t-13.5 26h-24q-19 0 -37 -55q-20 -61 -27 -68zM719 1491q0 -43 80 -135 q43 -49 55 -76q27 -152 51 -152q25 0 25 158q0 30 18 74l19 43q2 5 -13 55q-7 51 -8 52q-1 2 -4 1q-2 0 -19 -20.5t-26 -20.5q-33 0 -57 28t-17 58q0 24 -39 21q-65 -12 -65 -86z" />
<glyph unicode="&#xda;" horiz-adv-x="1085" d="M51 1454q0 48 12 113q18 90 50 90q116 0 116 -68q0 -33 4 -33q27 68 74 68q32 0 55 -45q24 -43 64 -43q20 0 20 -45v-975l13 -121q7 18 18 49q15 43 47 43q60 0 80 -36l47 -76v1083q0 20 45 88q47 72 62 72q104 0 104 -45q0 -59 21 -62q6 9 20 25q20 26 33 29 q29 0 57 -72q25 -67 25 -100v-1182q0 -110 -187 -168q-133 -43 -272 -43q-146 0 -295 41q-211 58 -211 170zM92 1520q0 -7 4 -33t4 -33q-4 -50 -4 -61q5 -31 17 -68q2 -2 8 -2q0 59 6 74q9 39 53 39q27 0 49 -25q23 -33 66 -80q16 -19 16 -20l-4 -21q0 -14 17 -45t22 -45 q9 -21 10 -22q14 -3 21 5.5t8 30.5l8 285q-31 9 -43 31q-2 4 -5 12t-5.5 14t-6 12t-7 9.5t-7.5 3.5q-41 0 -53 -27q-12 -26 -37 -26q-36 0 -45 33q4 16 4 20q-9 43 -49 43q-19 3 -31 -23t-16 -81zM270 1458q3 12 17 12q41 0 41 -26q0 -5 -17 -8q-5 -1 -15.5 2.5t-18.5 9 t-7 10.5zM453 1661l116 209q-27 109 -22 127q27 49 65 49l23 -4q23 -3 63 37q41 38 70 35q55 -9 82 -109q18 -68 18 -143l-213 -201h-202zM471 315l47 -104q12 -4 31 -47q21 -43 39 -43q33 141 33 178q0 13 -31 80q-2 4 -6 11.5t-11.5 21.5t-13.5 26h-24q-19 0 -37 -55 q-20 -61 -27 -68zM575 1987q0 -45 72 -218q11 2 53 78q41 74 80 74q16 0 28.5 20.5t12.5 40.5q0 9 -22 58q-21 47 -31 47q-16 0 -59 -43q-41 -41 -50 -41q-6 -1 -14.5 5.5t-14.5 13.5l-7 6q-48 -9 -48 -41zM709 1491q0 -44 79 -135q45 -51 56 -76q27 -152 51 -152 q25 0 25 158q0 30 18 74l18 43q3 6 -12 55q-7 51 -8 52q-1 2 -4 1q-2 0 -19 -20.5t-26 -20.5q-33 0 -57 28t-17 58q0 24 -39 21q-65 -12 -65 -86z" />
<glyph unicode="&#xdb;" horiz-adv-x="1085" d="M59 1454q0 43 13 113q18 90 49 90q117 0 117 -68q0 -33 4 -33q27 68 73 68q33 0 56 -45q24 -43 63 -43q21 0 21 -45v-975l12 -121q7 18 18 49q15 43 47 43q60 0 80 -36l47 -76v1083q0 18 46 88q47 72 61 72q104 0 104 -45q0 -59 21 -62q6 9 20 25q20 26 33 29 q29 0 57 -72q25 -67 25 -100v-1182q0 -110 -186 -168q-133 -43 -273 -43q-146 0 -295 41q-211 58 -211 170zM100 1520q0 -7 4.5 -33t4.5 -33q-1 -9 -2 -22.5t-2 -22.5t-1 -16q5 -31 17 -68q2 -2 8 -2q0 59 6 74q9 39 53 39q28 0 50 -25q26 -37 65 -80q16 -19 16 -20l-4 -21 q0 -14 17 -45t22 -45q8 -19 11 -22q13 -3 19.5 5.5t8.5 30.5l8 285q-31 9 -43 31q-2 4 -5 12t-5 14t-5.5 12t-7 9.5t-7.5 3.5q-42 0 -54 -27q-12 -26 -36 -26q-36 0 -45 33q4 16 4 20q-9 43 -50 43q-19 3 -31 -23t-16 -81zM211 1686l219 280q-4 9 -12 23q-33 56 -33 96 q0 43 20.5 81t53.5 38q16 0 43 -43q27 -41 41 -41q45 24 63 24q22 0 62 -30q9 -9 39 -33q0 -35 10 -58l14 -36l-22 -13l225 -288h-232l-131 167l-129 -167h-231zM279 1458q3 12 16 12q41 0 41 -26q0 -5 -17 -8q-8 -2 -24.5 6.5t-15.5 15.5zM416 2101q0 -22 26 -78l13 -26 l22 6q13 0 33 -39q21 -37 35 -37q5 0 20 22.5t17 22.5q20 0 69 -49q41 -41 58 -68q-23 84 -23 185l-31 31q-35 32 -51 32q-12 -6 -34.5 -15.5t-24.5 -10.5q-47 0 -64 51q-9 26 -26 26q-39 0 -39 -53zM479 315l47 -104q12 -4 31 -47q21 -43 39 -43q33 141 33 178q0 13 -31 80 q-2 4 -6 11.5t-11.5 21.5t-13.5 26h-24q-19 0 -37 -55q-20 -61 -27 -68zM717 1491q0 -43 80 -135q43 -49 55 -76q27 -152 51 -152q25 0 25 158q0 30 18 74l19 43q2 5 -13 55q-7 51 -8 52q-1 2 -4 1q-2 0 -19 -20.5t-26 -20.5q-33 0 -57 28t-17 58q0 24 -39 21 q-65 -12 -65 -86z" />
<glyph unicode="&#xdc;" horiz-adv-x="1103" d="M68 1454q0 48 12 113q18 90 49 90q117 0 117 -68q0 -33 4 -33q27 68 74 68q32 0 55 -45q24 -43 63 -43q21 0 21 -45v-975l12 -121q15 37 19 49q15 43 47 43q60 0 80 -36l47 -76v1083q0 20 45 88q47 72 61 72q105 0 105 -45q0 -59 20 -62q7 9 21 25q20 26 32 29 q30 0 58 -72q24 -64 24 -100v-1182q0 -110 -186 -168q-133 -43 -273 -43q-145 0 -294 41q-211 58 -211 170zM109 1520q0 -7 4 -33t4 -33q-4 -50 -4 -61q5 -36 16 -68q2 -2 8 -2q0 59 6 74q9 39 54 39q27 0 49 -25q26 -37 65 -80q4 -5 8.5 -10t6.5 -7t2 -3l-4 -21 q0 -16 16 -45q17 -31 22 -45q8 -19 11 -22q13 -3 19.5 5.5t8.5 30.5l9 285q-31 9 -43 31q-2 4 -5 12t-5.5 14t-6 12t-7 9.5t-7.5 3.5q-41 0 -53 -27q-12 -26 -37 -26q-36 0 -45 33q4 16 4 20q-9 43 -49 43q-19 3 -31 -23t-16 -81zM252 1767v31q4 28 4 29q0 68 20 141 q26 106 70 109q19 0 60 -35q39 -33 61 -33l20 4q68 0 68 -137q0 -16 2 -67t2 -66q0 -7 -2 -27.5t-2 -27.5h-299q0 8 -2 39t-2 40zM287 1458q3 12 16 12q41 0 41 -26q0 -5 -16 -8q-5 -1 -15.5 2.5t-18.5 9t-7 10.5zM299 1948q0 -56 45 -56q21 0 55 -73q35 -72 56 -72 q65 136 65 203q0 43 -43 37q-5 0 -18 -10.5t-15 -10.5q-9 6 -55 49q-28 25 -43 25q-11 0 -29 -41t-18 -51zM487 315l48 -104q10 -3 30 -47q21 -43 39 -43q33 141 33 178q0 13 -31 80q-2 4 -6 11.5t-11.5 21.5t-13.5 26h-24q-19 0 -37 -55q-20 -61 -27 -68zM608 1769 q0 39 8 58q0 61 21 141q27 106 70 109q22 0 59 -37q40 -34 61 -31l21 4q54 0 63 -45q4 -16 4 -92q0 -16 2.5 -67t2.5 -66q0 -7 -2.5 -27.5t-2.5 -27.5h-299l-4 36q-4 28 -4 45zM659 1948q0 -56 46 -56q21 0 55 -73q35 -72 55 -72q66 138 66 203q0 43 -43 37q-6 0 -18 -10.5 t-15 -10.5q-9 6 -55 49q-28 25 -43 25q-11 0 -29 -41q-19 -43 -19 -51zM725 1491q0 -43 80 -135q43 -49 55 -76q27 -152 51 -152q25 0 25 158q0 30 18 74l19 43q3 6 -12 55q-7 50 -9 52t-4 1q-2 0 -19 -20.5t-26 -20.5q-33 0 -57 28t-17 58q0 24 -38 21q-66 -12 -66 -86z " />
<glyph unicode="&#xdd;" horiz-adv-x="1210" d="M18 1368q0 66 29 148q40 94 98 94q35 0 56 -35l37 -80q64 102 94 102q72 0 119 -102q37 -88 84 -192q5 0 37.5 8.5t45.5 7.5q31 -3 50 -35q5 -9 14 -28.5t14 -28.5q21 0 56 78q32 65 32 102q0 38 41 131q52 119 111 119q30 0 68 -47q36 -45 45 -45q1 0 8 4t17 8t16 4 q37 0 67 -61q3 -20 10 -50q3 -4 7 -11l8 -9q0 -50 -27 -170q-26 -112 -49 -160l-53 25l-244 -475v-672h-381l-6 684l-283 541q-18 -18 -39 -21q-32 0 -59 70q-23 64 -23 96zM51 1376q-2 -20 8 -63q12 -45 33 -45q3 10 12 31.5t13 33.5q28 67 47 64q30 -3 61 -60 q14 -26 25 -26q24 0 37 8q50 24 53 24q50 0 74 -67q9 -23 18 -47.5t12.5 -33t4.5 -9.5q8 96 8 203q-22 45 -39 75q-49 79 -90 88q-11 2 -22 -10t-21 -37q-20 -51 -56 -51q-5 0 -49 80q-20 39 -45 39q-27 0 -57 -86q-24 -71 -27 -111zM461 1657l117 209q-28 111 -23 127 q27 49 66 49l22 -4q24 -3 64 37q40 37 69 34q55 -9 82 -108q19 -71 19 -143l-213 -201h-203zM580 1227q52 -63 61 -144q3 -48 10 -77q16 -42 45 -60q21 82 21 135q0 58 -25 113q-29 10 -43 41q-12 33 -26 39q-5 -3 -12 -8t-9 -6q-22 -19 -22 -33zM584 1982q0 -46 71 -217 q12 2 54 78q41 74 79 74q16 0 28.5 20.5t12.5 40.5q0 9 -22 58q-21 47 -31 47q-16 0 -59 -43q-41 -41 -49 -41q-6 -1 -15 5t-15 12l-7 7q-47 -9 -47 -41zM825 1432q0 -20 19 -91q18 -66 30 -69q9 -3 44 57q38 60 61 60q31 0 61 -99q35 -96 54 -96q11 49 18 86q21 102 21 143 q0 117 -56 117q-8 0 -27 -12t-22 -12q-14 -2 -29 17t-28 56q-7 20 -15 28.5t-16 6.5q-24 -7 -70 -86q-45 -74 -45 -106z" />
<glyph unicode="&#xde;" horiz-adv-x="1230" d="M80 0v1470h280q17 23 64 29q24 0 92 -47q69 -46 86 -49q4 0 31 14.5t37 14.5q58 -6 118 -93q60 -84 97 -84l53 17q35 -3 57 -60q213 -118 213 -417q0 -205 -133 -338q-131 -131 -336 -131h-352v-326h-307zM344 1350q0 -80 8 -111q15 -68 66 -68q35 0 59 35q22 28 37 31 q21 0 51 -49q33 -48 43 -51q18 -3 45 34q26 39 47 39q31 -50 56 -82q65 -84 108 -92q17 -29 74 -137q26 -51 33 -51q18 0 30 90q11 82 11 109q0 20 -2 26q-6 71 -29 113q-15 24 -49 24q-7 0 -32 -13t-32 -13q-25 0 -108 123q-41 59 -74 59q-13 0 -90 -25q-13 0 -86 48 q-70 49 -92 49q-65 0 -74 -88zM356 575q38 -74 58 -94q21 0 30 39q1 6 6.5 24.5t8.5 30.5q19 -4 57 -45q40 -43 59 -49l9 109q-13 40 -61.5 64t-102.5 24q-10 0 -47 -70q-2 -4 -8.5 -15.5t-8.5 -17.5zM387 700q78 0 111 -8q112 -24 112 -112h62q123 0 176 53t53 176t-78 170 q-58 37 -192 37h-244v-316z" />
<glyph unicode="&#xdf;" horiz-adv-x="2689" d="M70 262v29l190 250q21 -9 45 -9q42 0 66 41q75 -12 110 -24q63 -21 76 -70q19 0 76 31t69 31q33 0 97 -58q36 -28 53 -28q29 0 29 20q0 44 -201 88q-263 56 -373 117q-201 112 -201 324q0 59 25 165q-37 70 -37 134q0 91 43 161q50 80 135 80q24 0 84 60q59 59 101 53 q58 -9 73 -33q10 -13 15 -10q22 16 69 31q24 3 70 -23q45 -25 55 -25q110 39 187 39q45 0 151 -145q78 -113 144 -143q-9 -70 -82 -177q-9 -12 -34.5 -48.5t-43.5 -61.5q-119 12 -119 63q-101 39 -145 52q-82 26 -138 26q-139 0 -139 -78q0 -84 205 -133q316 -75 385 -110 q207 -103 207 -316q0 -270 -147.5 -417.5t-417.5 -147.5q-402 0 -682 262zM121 1325q0 -60 14 -82q6 12 27 12l78 -12q42 57 73 60q16 0 68 -107q51 -105 80 -115q16 32 37 191q18 135 47 135q21 -21 49 -45q59 -47 84 -47q6 0 27 67q21 68 55 68q83 0 147 -125 q14 -34 40.5 -100.5t39.5 -100.5q0 35 -31 250q0 37 23 37q32 0 76 -29q11 -9 32 -27.5t33 -27.5q9 0 6 19q-2 10 -2 26q0 23 -90 119t-116 102q-15 3 -74 -18q-64 -24 -80 -27q-35 0 -154 58q-7 0 -32 -19t-33 -22q-15 -3 -41 26q-14 20 -27 33q-5 -1 -19 -5t-20 -5 q-32 -9 -67 -29q-10 -3 -25 -49q-10 -32 -78 -41q-147 -21 -147 -170zM338 463l139 -227q3 7 27 47q34 49 65 49q43 0 58 -37q0 -3 24 -76q15 0 33 43q17 45 35 45q32 0 78 -49q35 -50 84 -113q-13 41 -13 68q0 26 11 76l22 82q0 28 -39 37q-56 11 -65 16q-7 4 -35 45 q-18 27 -55 27q-8 0 -138 -62q-31 0 -55 37q-21 40 -53 43l-90 14q-33 -47 -33 -65zM362 1397q-3 6 3 9t20 3q34 0 31 -16q-6 -14 -33 -17q-18 0 -21 21zM1376 262v29l191 250q21 -9 45 -9q41 0 65 41q77 -12 111 -24q63 -21 76 -70q18 0 75 31t70 31q32 0 96 -58 q36 -28 54 -28q28 0 28 20q0 44 -200 88q-263 56 -373 117q-201 112 -201 324q0 59 25 165q-37 70 -37 134q0 91 43 161q50 80 135 80q24 0 84 60q59 59 100 53q59 -9 74 -33q9 -12 14 -10q21 15 70 31q24 3 70 -23q45 -25 55 -25q110 39 186 39q46 0 152 -145 q79 -113 143 -143q-9 -70 -82 -177q-9 -12 -34.5 -48.5t-43.5 -61.5q-118 12 -118 63q-98 38 -146 52q-82 26 -137 26q-139 0 -139 -78q0 -84 205 -133q316 -75 385 -110q206 -102 206 -316q0 -270 -147.5 -417.5t-417.5 -147.5q-402 0 -682 262zM1427 1325q0 -58 15 -82 q6 12 26 12l78 -12q42 57 74 60q16 0 68 -107q51 -106 79 -115q16 32 37 191q18 135 47 135q15 -15 50 -45q59 -47 84 -47q5 0 26 67q21 68 55 68q84 0 148 -125q14 -34 40.5 -100.5t39.5 -100.5q0 35 -31 250q0 37 23 37q32 0 75 -29q11 -9 33 -27.5t33 -27.5q9 0 6 19 q-2 10 -2 26q0 23 -90 119t-117 102q-15 3 -74 -18q-65 -24 -79 -27q-35 0 -154 58q-7 0 -32.5 -19t-33.5 -22q-15 -3 -41 26q-16 23 -26 33q-6 -1 -19.5 -5t-19.5 -5q-34 -10 -68 -29q-9 -3 -24 -49q-10 -32 -78 -41q-148 -21 -148 -170zM1645 463l139 -227q6 13 26 47 q34 49 66 49q42 0 57 -37q0 -1 2.5 -8.5t9.5 -27.5t13 -40q15 0 33 43q17 45 34 45q32 0 78 -49q35 -50 84 -113q-12 38 -12 68q0 31 10 76l23 82q0 28 -39 37q-58 12 -66 16q-7 4 -35 45q-18 27 -55 27q-7 0 -137 -62q-31 0 -55 37q-21 40 -54 43l-90 14q-32 -46 -32 -65z M1669 1397q-3 6 3 9t20 3q17 0 24.5 -4t5.5 -12q-6 -14 -32 -17q-18 0 -21 21z" />
<glyph unicode="&#xe0;" d="M37 0q0 33 76 371q59 268 147 639l90 387q-33 26 -33 73q0 123 95 123q33 0 45 -4q20 -12 30 -16q6 -3 24.5 20t33.5 23q14 0 24.5 10t15.5 20l5 11q17 -3 90 -6q56 -1 80 -17t24 -49l-4 -29q0 -24 39 -77q21 -30 21 -52q-3 -120 -13 -237q13 -61 68 -289 q76 -317 127 -555q71 -321 74 -346h-361l-69 254h-230l-74 -254h-325zM354 1511q0 -19 11 -45q38 -77 38 -161v-39q-2 -16 -2 -37q0 -31 11 -31q24 0 24 82v63q6 41 35 41q12 0 39 -79q28 -80 35 -82q0 141 20 141q6 0 27 -104q21 -103 53 -103q10 10 21 51q1 5 16 52 q0 8 -10 29t-10 26q0 31 12 28q1 0 13.5 -22t14.5 -27q15 -18 41 -135q27 -119 33 -119l7.5 45t7 45t4.5 31q20 137 20 195q0 94 -31 125q-16 16 -16 22l4 29q0 30 -22.5 61t-47.5 31q-13 -10 -28 -14q-1 0 -30.5 13.5t-37.5 12.5q-14 -4 -22 -34q-9 -33 -19 -33l-20 4 q-7 0 -17 -10q-18 -27 -28 -27q-19 0 -60 20q-26 13 -32 13q-54 0 -54 -58zM367 1880q0 60 24 145q30 111 76 111q16 0 61 -39q46 -37 72 -37l23 4q26 0 46.5 -20.5t20.5 -46.5q0 -16 -22 -109l114 -209h-202zM414 2001q0 -62 49 -62q21 0 74 -102q24 -49 51 -49q1 3 2 9.5 t2 8.5q8 16 57 127q3 10 10 43q9 70 -47 70l-6 -12q-10 -13 -31 -13q-18 0 -59 41q-37 43 -49 43q-5 0 -29 -47q-24 -46 -24 -57zM475 557q0 -7 10 -92q12 -78 15 -78q2 0 37 35q35 38 49 41q2 0 18 -4q2 0 10 -4q0 16 2 26q-3 24 -14 43l-20 -4q-10 0 -43 23q-31 22 -43 22 q-10 0 -21 -8zM483 612q110 -67 135 -51l-49 377q-13 -19 -61 -211q-24 -108 -25 -115zM610 1546q0 27 39 27q41 0 41 -8q0 -13 -33 -13q-7 -3 -21.5 -8t-21.5 -8q-4 4 -4 10z" />
<glyph unicode="&#xe1;" d="M29 0q0 37 75 371q45 202 148 639l90 387q-33 26 -33 73q0 123 94 123q34 0 46 -4q20 -12 30 -16q6 -3 24.5 20t33.5 23q14 0 24.5 10t15.5 20l5 11q17 -3 90 -6q56 -1 80 -17t24 -49l-4 -29q0 -24 39 -77q20 -29 20 -52q-3 -135 -12 -237q13 -61 68 -289 q76 -317 127 -555q70 -313 73 -346h-360l-70 254h-229l-74 -254h-325zM346 1511q0 -22 10 -45q39 -79 39 -161v-39q-2 -16 -2 -37q0 -31 10 -31q25 0 25 82v63q6 41 35 41q12 0 39 -79q28 -80 35 -82q0 141 20 141q6 0 27 -104q21 -103 53 -103q8 8 20 51q1 4 3.5 11.5 t6.5 19t7 21.5q0 8 -10.5 29t-10.5 26q0 31 13 28q1 0 13.5 -22t14.5 -27q15 -18 41 -135q27 -119 33 -119q11 69 18 121q21 144 21 195q0 94 -31 125q-16 16 -16 22l4 29q0 30 -22.5 61t-47.5 31q-13 -10 -28 -14q-1 0 -30.5 13.5t-37.5 12.5q-15 -4 -23 -34 q-9 -33 -18 -33l-20 4q-7 0 -17 -10q-18 -27 -28 -27q-19 0 -60 20q-26 13 -33 13q-53 0 -53 -58zM369 1663l116 209q-27 109 -22 127q27 49 65 49l23 -4q23 -3 63 37q41 38 70 35q55 -9 82 -109q18 -67 18 -143l-213 -201h-202zM467 557q0 -7 10 -92q12 -78 15 -78 q1 0 36 35q35 38 50 41q2 0 18 -4q2 0 10 -4q0 16 2 26q-3 24 -14 43l-21 -4q-10 0 -43 23q-31 22 -43 22q-9 0 -20 -8zM475 612q110 -67 135 -51l-49 377q-13 -19 -61 -211q-24 -108 -25 -115zM492 1989q0 -46 71 -217q12 2 53 77q41 74 80 74q16 0 28.5 21t12.5 41 q0 8 -22 57q-21 47 -31 47q-16 0 -59 -43q-41 -41 -50 -41q-6 -1 -14.5 5.5t-14.5 13.5l-7 6q-47 -9 -47 -41zM602 1546q0 27 39 27q41 0 41 -8q0 -13 -33 -13q-7 -3 -21.5 -8t-21.5 -8q-4 4 -4 10z" />
<glyph unicode="&#xe2;" horiz-adv-x="1132" d="M39 0q0 33 76 371q59 268 147 639l90 387q-33 26 -33 73q0 123 95 123q33 0 45 -4q20 -12 30 -16q6 -3 24.5 20t33.5 23q14 0 24.5 10t15.5 20l5 11q17 -3 90 -6q56 -1 80 -17t24 -49l-4 -29q0 -24 39 -77q21 -30 21 -52q-3 -120 -13 -237q13 -61 68 -289 q76 -317 127 -555q71 -321 74 -346h-361l-69 254h-230l-73 -254h-326zM205 1655l219 280q-4 9 -12 23q-33 56 -33 96q0 43 20.5 81t53.5 38q16 0 43 -43q27 -41 41 -41q45 25 63 25q20 0 62 -31q13 -13 38 -33q0 -31 11 -57l14 -37l-23 -12l226 -289h-232l-131 168 l-129 -168h-231zM356 1511q0 -19 11 -45q39 -79 39 -161v-39q-3 -24 -3 -37q0 -31 11 -31q24 0 24 82v63q6 41 35 41q12 0 39 -79q28 -80 35 -82q0 141 20 141q6 0 27 -104q21 -103 53 -103q10 10 21 51q1 5 16 52q0 8 -10 29t-10 26q0 31 12 28q1 0 14 -22t15 -27 q13 -17 40 -135q27 -119 33 -119l7.5 45t7 45t4.5 31q20 137 20 195q0 94 -31 125q-16 16 -16 22l4 29q0 31 -22 61.5t-47 30.5q-12 -10 -29 -14q-1 0 -30.5 13.5t-37.5 12.5q-14 -4 -22 -34q-9 -33 -19 -33l-20 4q-7 0 -17 -10q-18 -27 -28 -27q-19 0 -60 20q-26 13 -32 13 q-54 0 -54 -58zM410 2071q0 -22 26 -78q10 -20 13 -27l22 6q13 0 33 -39q21 -37 35 -37q5 0 19 23t17 23q20 0 70 -50q40 -40 57 -67q-22 80 -22 184l-31 31q-36 33 -51 33q-14 -7 -59 -27q-47 0 -64 51q-9 27 -26 27q-39 0 -39 -53zM477 557q0 -7 10 -92q12 -78 15 -78 q2 0 37 35q35 38 49 41q2 0 18 -4q2 0 10 -4q0 16 2 26q-3 24 -14 43l-20 -4q-10 0 -43 23q-31 22 -43 22q-10 0 -21 -8zM485 612q110 -67 136 -51l-50 377q-13 -19 -61 -211q-24 -108 -25 -115zM612 1546q0 27 39 27q41 0 41 -8q0 -13 -33 -13q-7 -3 -21.5 -8t-21.5 -8 q-4 4 -4 10z" />
<glyph unicode="&#xe3;" horiz-adv-x="1144" d="M41 0q0 33 76 371q59 268 147 639l90 387q-32 25 -32 73q0 123 94 123q33 0 45 -4q18 -11 31 -16q6 -3 24 20t33 23q14 0 24.5 10t15.5 20l5 11q17 -3 90 -6q56 -1 80 -17t24 -49l-4 -29q0 -24 39 -77q21 -30 21 -52q-3 -120 -13 -237q13 -61 68 -289q76 -317 127 -555 q71 -321 74 -346h-361l-69 254h-230l-73 -254h-326zM217 1688q15 106 76 176q69 75 172 75q45 0 143 -36q101 -37 131 -37q76 0 97 82h133q-37 -246 -224 -246q-61 0 -167 33q-14 5 -59 18t-75 23q-75 0 -96 -88h-131zM358 1511q0 -19 11 -45q39 -79 39 -161v-39 q-2 -16 -2 -37q0 -31 10 -31q24 0 24 82v63q6 41 35 41q12 0 39 -79q28 -80 35 -82q0 141 20 141q6 0 27 -104q21 -103 53 -103q10 10 21 51q1 5 16 52q0 8 -10 29t-10 26q0 31 12 28q1 0 14 -22t15 -27q15 -18 41 -135q27 -119 32 -119l7.5 45t7 45t4.5 31q20 137 20 195 q0 94 -31 125q-16 16 -16 22l4 29q0 31 -22 61.5t-47 30.5q-12 -10 -29 -14q-1 0 -30.5 13.5t-37.5 12.5q-14 -4 -22 -34q-9 -33 -19 -33l-20 4q-7 0 -17 -10q-18 -27 -28 -27q-19 0 -60 20q-26 13 -32 13q-54 0 -54 -58zM479 557q0 -7 10 -92q12 -78 15 -78q2 0 37 35 q35 38 49 41q2 0 18 -4q2 0 10 -4q0 11 3 26q-2 22 -15 43l-20 -4q-10 0 -43 23q-31 22 -43 22q-10 0 -21 -8zM487 612q110 -67 136 -51l-50 377q-13 -19 -61 -211q-24 -108 -25 -115zM614 1546q0 27 39 27q41 0 41 -8q0 -13 -32 -13q-7 -3 -22 -8t-22 -8q-4 4 -4 10z" />
<glyph unicode="&#xe4;" horiz-adv-x="1161" d="M51 0q0 33 76 371q59 268 147 639l91 387q-33 26 -33 73q0 123 94 123q33 0 45 -4q18 -11 31 -16q6 -3 24 20t33 23q14 0 24.5 10t15.5 20l5 11q17 -3 90 -6q56 -1 80.5 -17t24.5 -49l-4 -29q0 -24 39 -77q20 -29 20 -52q-3 -135 -12 -237q21 -96 67 -289 q76 -317 127 -555q71 -321 74 -346h-360l-70 254h-229l-74 -254h-326zM254 1741v31l4 28q0 66 21 142q26 105 69 108q19 0 60 -35q39 -33 61 -33l20 5q68 0 68 -138q0 -15 2 -66t2 -67q0 -7 -2 -27.5t-2 -27.5h-299q0 8 -2 39.5t-2 40.5zM301 1921q0 -55 45 -55q20 0 55 -74 q35 -72 56 -72q65 136 65 203q0 43 -43 37q-5 0 -18 -10.5t-15 -10.5q-5 4 -55 50q-27 24 -43 24q-11 0 -29 -41t-18 -51zM369 1511q0 -22 10 -45q39 -79 39 -161v-39q-2 -16 -2 -37q0 -31 10 -31q25 0 25 82v63q6 41 34 41q12 0 39 -79q28 -80 35 -82q0 141 21 141 q5 0 26 -104q21 -103 53 -103q10 10 21 51q1 5 16 52q0 8 -10 29t-10 26q0 31 12 28q1 0 14 -22t15 -27q15 -18 41 -135q27 -119 33 -119q11 69 18 121q20 137 20 195q0 95 -30 125q-17 17 -17 22l4 29q0 31 -22 61.5t-47 30.5q-12 -10 -29 -14q-1 0 -30 13.5t-37 12.5 q-15 -4 -23 -34q-9 -33 -18 -33l-21 4q-6 0 -16 -10q-18 -27 -29 -27q-18 0 -59 20q-26 13 -33 13q-53 0 -53 -58zM489 557q0 -4 1.5 -15t4.5 -34t5 -43q12 -78 14 -78t37 35q35 38 49 41q2 0 18 -4q3 0 11 -4q0 16 2 26q-2 22 -15 43l-20 -4q-10 0 -43 23q-31 22 -43 22 q-10 0 -21 -8zM498 612q110 -67 135 -51l-49 377q-15 -21 -62 -211q-21 -95 -24 -115zM610 1743q0 38 8 57q0 62 21 142q26 105 70 108q22 0 59 -37q40 -34 61 -31l21 5q54 0 63 -45q5 -20 5 -93q0 -15 2 -66t2 -67q0 -7 -2 -27.5t-2 -27.5h-300l-4 37q-4 28 -4 45z M625 1546q0 27 39 27q41 0 41 -8q0 -13 -33 -13q-7 -3 -21.5 -8t-21.5 -8q-4 4 -4 10zM662 1921q0 -55 45 -55q20 0 55 -74q35 -72 55 -72q66 138 66 203q0 43 -43 37q-6 0 -18 -10.5t-15 -10.5q-5 4 -55 50q-27 24 -43 24q-11 0 -29 -41t-18 -51z" />
<glyph unicode="&#xe5;" d="M35 0q0 33 76 371q59 268 147 639l90 387q-33 26 -33 73q0 123 95 123q33 0 45 -4q20 -12 30 -16q6 -3 24.5 20t33.5 23q14 0 24.5 10t15.5 20l5 11q17 -3 90 -6q56 -1 80 -17t24 -49l-4 -29q0 -24 39 -77q21 -30 21 -52q-3 -120 -13 -237q13 -61 68 -289 q76 -317 127 -555q71 -321 74 -346h-361l-69 254h-230l-74 -254h-325zM352 1511q0 -22 10 -45q39 -79 39 -161v-39q-2 -16 -2 -37q0 -31 11 -31q24 0 24 82v63q6 41 35 41q12 0 39 -79q28 -80 35 -82q0 141 20 141q6 0 27 -104q21 -103 53 -103q10 10 21 51q1 5 16 52 q0 8 -10.5 29t-10.5 26q0 31 13 28q1 0 13.5 -22t14.5 -27q15 -18 41 -135q27 -119 33 -119l7.5 45t7 45t4.5 31q20 137 20 195q0 94 -31 125q-16 16 -16 22l4 29q0 30 -22.5 61t-47.5 31q-13 -10 -28 -14q-1 0 -30.5 13.5t-37.5 12.5q-14 -4 -22 -34q-9 -33 -19 -33l-20 4 q-7 0 -17 -10q-18 -27 -28 -27q-19 0 -60 20q-26 13 -32 13q-54 0 -54 -58zM373 1841q0 67 48 112.5t116 45.5q66 0 113.5 -46t47.5 -112q0 -67 -46.5 -111t-114.5 -44q-67 0 -115.5 45t-48.5 110zM457 1841q0 -32 24 -55t56 -23t54.5 23t22.5 55q0 80 -77 80q-32 0 -56 -24 t-24 -56zM473 557q0 -7 10 -92q12 -78 15 -78q2 0 37 35q35 38 49 41q2 0 18 -4q2 0 10 -4q0 16 2 26q-3 24 -14 43l-20 -4q-10 0 -43 23q-31 22 -43 22q-10 0 -21 -8zM481 612q110 -67 135 -51l-49 377q-13 -19 -61 -211q-24 -108 -25 -115zM608 1546q0 27 39 27 q41 0 41 -8q0 -13 -33 -13q-7 -3 -21.5 -8t-21.5 -8q-4 4 -4 10z" />
<glyph unicode="&#xe6;" horiz-adv-x="1867" d="M53 0q0 33 76 371q59 268 147 639l91 387q-33 26 -33 73q0 123 94 123q33 0 45 -4q18 -11 31 -16q6 -3 24 20t33 23q14 0 24.5 10t15.5 20l5 11q31 -8 105 -8q71 0 86 -41q27 18 57 18q19 0 84 -33q68 -30 92 -30q20 0 103 59q38 28 51 25q109 -21 153 -80q123 0 197 22 q64 25 145 53q25 0 80 -34q0 -345 -28 -412l-365 -8q-45 -45 -66 -45q-32 37 -71 37q-64 0 -64 -99q0 -36 15 -141q27 49 98 49q61 0 78 -20q10 -13 18 -13q51 45 74 45q2 0 18 -4q5 0 13 -4q8 -91 8 -241v-58l-2 -12l-1.5 -9t-0.5 -5q-10 -13 -66 -19q-14 0 -26 -2 q-7 -7 -21 -67q-15 -65 -33 -74l-30 88q-14 34 -25 53l-63 -4q-35 -3 -48 -16l13 -162q27 0 37 2l79 10q80 0 115 -53q30 12 68 12q14 0 135 -26q63 -13 78 -13q4 -4 24 -43t43 -39q13 0 17 2q3 -128 12 -299l-29 -24l-1011 6l-70 254h-229l-74 -254h-326zM371 1511 q0 -22 10 -45q39 -79 39 -161v-39q-2 -16 -2 -37q0 -31 10 -31q25 0 25 82v63q6 41 34 41q12 0 39 -79q28 -80 35 -82q0 141 21 141q5 0 26 -104q21 -103 54 -103q8 8 20 51q1 5 16 52q0 8 -10 29t-10 26q0 31 12 28q1 0 7.5 -12t13.5 -24t8 -13q23 -33 33 -55l-4 43 q38 18 143 18q2 0 27 -8t34 -8q23 -3 45 64q24 65 56 65q54 0 69 -70q5 -47 13 -102q34 137 61 137q32 0 66 -69q8 -21 24.5 -59t18.5 -42q47 158 94 158q22 0 51 -20l33 -21q1 2 8.5 23.5t11.5 35.5q18 60 33 60q68 0 104 -39q50 52 66 74q25 42 25 96q0 6 -25 18.5 t-31 10.5q-168 -82 -309 -82q-52 0 -98 30q-48 31 -54 31q-51 0 -100 -37t-72 -37q-27 0 -81 31t-91 31q-8 0 -49 7t-53 7q-20 39 -49 39q-12 -10 -29 -14q-1 0 -30 13.5t-37 12.5q-15 -4 -23 -34q-9 -33 -18 -33l-21 4q-6 0 -16 -10q-18 -27 -29 -27q-18 0 -59 20 q-26 13 -33 13q-53 0 -53 -58zM492 557q0 -7 10 -92q12 -78 14 -78t37 35q35 38 49 41q3 0 19 -4q2 0 10 -4q0 16 2 26q-2 22 -15 43l-20 -4q-10 0 -43 23q-31 22 -43 22q-9 0 -20 -8zM500 612q110 -67 135 -51l-49 377q-15 -21 -62 -211q-21 -95 -24 -115zM627 1546 q0 27 39 27q41 0 41 -8q0 -13 -33 -13q-7 -3 -21.5 -8t-21.5 -8q-4 4 -4 10zM1196 330q0 -142 51 -142q48 0 84 39q38 41 35 41q2 0 59 -69q59 -68 78 -68q30 0 82 107q40 6 74 -52l37 -80q-6 15 -6 33q0 32 14 60l31 65q0 34 -107 86q-87 41 -125 47l-10 -10 q-17 -14 -78 -14q-13 0 -65 30q-50 33 -93 33q-22 0 -43 -41q-18 -40 -18 -65zM1204 844q12 -57 66 -66l67 -184q105 176 105 324q0 16 -2 26q-18 -35 -62 -35q-7 0 -47 19q-34 19 -57 16q-32 -6 -54 -37.5t-16 -62.5z" />
<glyph unicode="&#xe7;" horiz-adv-x="1120" d="M59 733q0 93 21 369q21 307 37 330q34 46 121 88q59 27 65 77q83 56 139 56q59 0 109 -33q54 -31 70 -31q7 0 33 6.5t34 6.5q55 0 107 -64q82 -118 100 -141q11 0 45 15t45 15q74 0 74 -141q0 -22 -10 -67q-9 -39 -11 -37q17 -192 17 -299h-367q-13 23 -16 55v14 q0 25 2 37q0 254 -107 254q-52 0 -78 -69l5 -719q21 37 65 37q23 0 64 -27q39 -26 32 -49l13 -17q10 24 37 234h368v-162q0 -234 -92 -346q-101 -125 -328 -125l4 -20q0 -68 -57 -120.5t-127 -52.5q-5 0 -33.5 6t-38.5 5q-29 -3 -57 -13q-5 0 -14 -6q-49 9 -49 64 q0 65 67 65q9 0 42 -5t42 -5q21 3 78 88q-193 18 -297 105q-110 93 -137 280q-17 122 -17 342zM113 1137q0 -85 63 -133q9 73 19 129q27 129 75 129q35 0 35 -66v-25q0 -6 -2 -10q13 -3 37 105q24 106 74 106q8 1 27.5 -3.5t21.5 -4.5q15 0 31 31q17 32 49 32q17 0 51 -51 q34 -49 39 -49q11 0 45 37t47 37q6 0 43 -119q37 -117 82 -117q8 0 28.5 18.5t28.5 18.5q21 0 51 -76q20 -46 43 -106q-2 12 -2 35v24q0 43 9 80q20 84 20 105q0 29 -22 84q-21 53 -50 53q-49 0 -49 -76q4 -28 4 -33q0 -57 -28 -57q-12 0 -21 25q8 16 8 30q0 9 -10 39 t-10 39l8 25q-6 33 -84 114q-54 54 -82 54l-4 -3l-12.5 -7.5t-16 -8.5t-19 -7t-19.5 -3q-15 0 -86 47q-70 49 -93 49q-56 0 -102 -49q-67 -100 -74 -109q-15 9 -33 9q-47 0 -81 -105q-39 -118 -39 -237zM313 1462q1 3 11 29q23 26 45 29q24 0 28 -4q0 -15 -39 -35 q-38 -21 -45 -19zM467 248q0 -43 31 -103l67 58q3 -27 45 -47q41 -19 58 -27q32 19 32 100v29q0 56 -53 115q-52 57 -108 69q-72 -97 -72 -194zM530 295v6q3 20 37 23q8 -8 8 -19q0 -5 -4.5 -8.5t-7.5 -3.5q-14 -3 -16 -10zM592 1470l4 9q2 2 6 2q6 0 16 -13q0 -7 3 -10h-9 q-16 0 -20 12zM702 1440q9 15 27 18q34 0 37 -14q0 -23 -14 -23q-4 0 -18 7.5t-17 7.5l-12 -4q-6 3 -3 8z" />
<glyph unicode="&#xe8;" horiz-adv-x="1181" d="M51 1536q35 30 64 57q45 39 86 39q19 0 84 -33q68 -30 92 -30q19 0 102 59q38 28 51 25q110 -21 154 -80q123 0 197 22q90 35 145 54q24 0 80 -35q0 -343 -29 -412l-364 -8q-45 -45 -66 -45q-33 37 -72 37q-63 0 -63 -99q0 -43 14 -141q27 49 99 49q60 0 77 -20 q9 -12 19 -12q51 45 74 45q2 0 18 -4q2 0 12 -5q9 -102 9 -241v-58l-2 -12t-2 -9t-1 -5q-10 -13 -65 -19q-15 0 -27 -2q-6 -6 -20 -67q-15 -65 -33 -74l-31 88q-16 39 -24 53l-64 -4q-34 -3 -47 -16l12 -162q27 0 37 2l80 10q80 0 115 -53q30 12 67 12q15 0 136 -26 q63 -13 77 -13q6 -6 25 -43q20 -38 43 -38q12 0 16 2q2 -95 13 -299l-29 -25h-977l-20 20v895q0 340 -62 621zM104 1479q0 -70 46 -215q47 -149 47 -207q-1 5 -2 18.5t-2 20.5q-7 68 -7 88q0 123 52 123q2 0 27 -8.5t34 -8.5q23 -3 45 64q24 65 55 65q55 0 70 -69 q9 -80 12 -103q34 137 62 137q31 0 65 -69q8 -21 24.5 -59t18.5 -42q47 158 94 158q23 0 52 -20l32 -21q1 4 9 25.5t12 34.5q18 59 33 59q68 0 104 -39q50 52 66 74q24 41 24 96q0 6 -24.5 18.5t-30.5 10.5q-168 -82 -309 -82q-51 0 -99 31q-47 30 -53 30q-51 0 -100 -37 q-48 -36 -72 -36q-29 0 -82 30q-54 31 -90 31q-77 0 -100 -29q-13 -16 -13 -69zM399 1864q0 56 25 145q30 111 76 111q16 0 61 -39q46 -37 72 -37l22 4q26 0 47 -21t21 -47q0 -11 -23 -108l115 -209h-203zM446 1985q0 -62 50 -62q20 0 73 -102q24 -49 52 -49q1 3 2 9.5 t2 8.5q8 16 57 127q4 11 10 43q9 70 -47 70l-6 -13q-9 -12 -31 -12q-18 0 -59 41q-37 43 -49 43q-5 0 -29 -47q-25 -48 -25 -57zM543 336q0 -141 51 -141q49 0 84 38q38 41 35 41q2 0 59 -69q59 -68 78 -68q30 0 82 107q40 6 74 -51l36 -80q-6 15 -6 32q0 30 15 60l30 65 q0 34 -106 86q-87 41 -125 47l-10 -10q-17 -14 -78 -14q-12 0 -66 31q-49 32 -92 32q-22 0 -43 -41q-18 -41 -18 -65zM551 850q12 -57 65 -66l68 -184q104 174 104 324q0 16 -2 26q-18 -35 -61 -35q-7 0 -47 19q-34 19 -57 16q-32 -6 -54 -37.5t-16 -62.5z" />
<glyph unicode="&#xe9;" horiz-adv-x="1183" d="M49 1536q35 30 64 57q45 39 86 39q19 0 84 -33q68 -30 92 -30q19 0 102 59q38 28 51 25q110 -21 154 -80q123 0 197 22q90 35 145 54q24 0 80 -35q0 -343 -29 -412l-364 -8q-45 -45 -66 -45q-33 37 -72 37q-63 0 -63 -99q0 -43 14 -141q27 49 99 49q60 0 77 -20 q9 -12 19 -12q51 45 74 45q2 0 18 -4q2 0 12 -5q8 -91 8 -241v-58l-2 -12l-1.5 -9t-0.5 -5q-10 -13 -65 -19q-15 0 -27 -2q-6 -6 -20 -67q-15 -65 -33 -74l-31 88q-16 39 -24 53l-64 -4q-34 -3 -47 -16l12 -162q27 0 37 2l80 10q80 0 115 -53q30 12 67 12q15 0 136 -26 q63 -13 77 -13q6 -6 25 -43q20 -38 43 -38q12 0 16 2q2 -95 13 -299l-29 -25h-977l-20 20v895q0 340 -62 621zM102 1479q0 -73 45 -215q48 -152 48 -207q0 2 -5 39q-6 58 -6 88q0 123 52 123q2 0 27 -8.5t34 -8.5q23 -3 45 64q24 65 55 65q55 0 70 -69q9 -80 12 -103 q34 137 62 137q31 0 65 -69q8 -21 24.5 -59t18.5 -42q47 158 94 158q23 0 52 -20l32 -21q1 4 9 25.5t12 34.5q18 59 33 59q68 0 104 -39q50 52 66 74q24 41 24 96q0 6 -24.5 18.5t-30.5 10.5q-168 -82 -309 -82q-51 0 -99 31q-47 30 -53 30q-51 0 -100 -37q-48 -36 -72 -36 q-29 0 -82 30q-54 31 -90 31q-77 0 -100 -29q-13 -16 -13 -69zM375 1663l117 209q-28 111 -23 127q27 49 66 49l22 -4q24 -3 64 37q41 38 69 35q55 -9 82 -109q19 -71 19 -143l-213 -201h-203zM498 1989q0 -46 71 -217q13 3 54 77t79 74q16 0 28.5 21t12.5 41q0 8 -22 57 q-21 47 -31 47q-16 0 -59 -43q-41 -41 -49 -41q-6 -1 -15 5.5t-15 13.5l-7 6q-47 -9 -47 -41zM541 336q0 -141 51 -141q49 0 84 38q38 41 35 41q2 0 59 -69q59 -68 78 -68q30 0 82 107q40 6 74 -51l36 -80q-6 15 -6 32q0 30 15 60l30 65q0 34 -106 86q-87 41 -125 47 l-10 -10q-17 -14 -78 -14q-12 0 -66 31q-49 32 -92 32q-22 0 -43 -41q-18 -41 -18 -65zM549 850q12 -57 65 -66l68 -184q104 174 104 324q0 16 -2 26q-18 -35 -61 -35q-7 0 -47 19q-35 19 -58 16q-32 -6 -53.5 -37.5t-15.5 -62.5z" />
<glyph unicode="&#xea;" horiz-adv-x="1183" d="M49 1536q35 30 64 57q45 39 86 39q19 0 84 -33q68 -30 92 -30q19 0 102 59q38 28 51 25q110 -21 154 -80q123 0 197 22q90 35 145 54q24 0 80 -35q0 -343 -29 -412l-364 -8q-45 -45 -66 -45q-33 37 -72 37q-63 0 -63 -99q0 -43 14 -141q27 49 99 49q60 0 77 -20 q9 -12 19 -12q51 45 74 45q2 0 18 -4q2 0 12 -5q8 -91 8 -241v-58l-2 -12l-1.5 -9t-0.5 -5q-10 -13 -65 -19q-15 0 -27 -2q-6 -6 -20 -67q-15 -65 -33 -74l-31 88q-16 39 -24 53l-64 -4q-34 -3 -47 -16l12 -162q27 0 37 2l80 10q80 0 115 -53q30 12 67 12q15 0 136 -26 q63 -13 77 -13q6 -6 25 -43q20 -38 43 -38q12 0 16 2q2 -95 13 -299l-29 -25h-977l-20 20v895q0 340 -62 621zM102 1479q0 -73 45 -215q48 -152 48 -207q0 2 -5 39q-6 58 -6 88q0 123 52 123q2 0 27 -8.5t34 -8.5q23 -3 45 64q24 65 55 65q55 0 70 -69q9 -80 12 -103 q34 137 62 137q31 0 65 -69q8 -21 24.5 -59t18.5 -42q47 158 94 158q23 0 52 -20l32 -21q1 4 9 25.5t12 34.5q18 59 33 59q68 0 104 -39q50 52 66 74q24 41 24 96q0 6 -24.5 18.5t-30.5 10.5q-168 -82 -309 -82q-51 0 -99 31q-47 30 -53 30q-51 0 -100 -37q-48 -36 -72 -36 q-29 0 -82 30q-54 31 -90 31q-77 0 -100 -29q-13 -16 -13 -69zM258 1663l219 281q-4 8 -12 22q-33 56 -33 96q0 43 20.5 81t53.5 38q16 0 43 -43q27 -41 41 -41q45 25 63 25q20 0 62 -31q9 -9 39 -33q0 -34 10 -57l14 -37l-22 -12l225 -289h-231l-132 168l-129 -168h-231z M463 2079q0 -22 26 -78q10 -20 13 -27l22 6q13 0 33 -38q21 -37 35 -37q6 0 20 22.5t17 22.5q20 0 69 -49q41 -41 58 -68q-23 84 -23 184l-31 31q-36 33 -51 33q-14 -7 -59 -27q-47 0 -64 51q-9 27 -26 27q-39 0 -39 -53zM541 336q0 -141 51 -141q49 0 84 38q38 41 35 41 q2 0 59 -69q59 -68 78 -68q30 0 82 107q40 6 74 -51l36 -80q-6 15 -6 32q0 30 15 60l30 65q0 34 -106 86q-87 41 -125 47l-10 -10q-17 -14 -78 -14q-12 0 -66 31q-49 32 -92 32q-22 0 -43 -41q-18 -41 -18 -65zM549 850q12 -57 65 -66l68 -184q104 174 104 324q0 16 -2 26 q-18 -35 -61 -35q-7 0 -47 19q-35 19 -58 16q-32 -6 -53.5 -37.5t-15.5 -62.5z" />
<glyph unicode="&#xeb;" horiz-adv-x="1204" d="M57 1536q35 30 64 57q45 39 86 39q19 0 84 -33q67 -30 92 -30q19 0 102 59q38 28 52 25q109 -21 153 -80q123 0 197 22q90 35 145 54q24 0 80 -35q0 -343 -29 -412l-364 -8q-45 -45 -66 -45q-32 37 -71 37q-64 0 -64 -99q0 -43 14 -141q27 49 99 49q61 0 78 -20 q9 -12 18 -12q51 45 74 45q2 0 18 -4q2 0 12 -5q9 -102 9 -241v-58l-2 -12l-1.5 -9t-0.5 -5q-10 -13 -66 -19q-15 0 -27 -2q-6 -6 -20 -67q-15 -65 -33 -74l-31 88q-16 39 -24 53l-64 -4q-34 -3 -47 -16l13 -162q26 0 36 2l80 10q80 0 115 -53q30 12 68 12q14 0 135 -26 q63 -13 78 -13q4 -4 24 -43q20 -38 43 -38q13 0 17 2q3 -128 12 -299l-29 -25h-977l-20 20v895q0 340 -62 621zM111 1479q0 -73 45 -215q47 -149 47 -207q-1 5 -2 18.5t-2 20.5q-6 58 -6 88q0 123 51 123q2 0 27 -8.5t34 -8.5q23 -3 45 64q24 65 56 65q54 0 69 -69 q9 -80 12 -103q34 137 62 137q31 0 65 -69q8 -21 24.5 -59t18.5 -42q47 158 95 158q22 0 51 -20l33 -21l20 60q18 59 33 59q68 0 104 -39q50 52 66 74q24 41 24 96q0 6 -24.5 18.5t-30.5 10.5q-168 -82 -309 -82q-50 0 -98 31q-47 30 -54 30q-51 0 -100 -37q-48 -36 -72 -36 q-29 0 -82 30q-54 31 -90 31q-77 0 -100 -29q-12 -15 -12 -69zM291 1741v31l4 28q0 69 20 142q26 105 70 108q18 0 59 -35q39 -33 62 -33l20 5q68 0 68 -138q0 -15 2 -66t2 -67q0 -7 -2 -27.5t-2 -27.5h-299q0 8 -2 39.5t-2 40.5zM338 1921q0 -55 45 -55q20 0 55 -74 q35 -72 56 -72q65 136 65 203q0 43 -43 37q-6 0 -18 -10.5t-15 -10.5q-5 4 -55 50q-27 24 -43 24q-11 0 -29 -41t-18 -51zM549 336q0 -141 51 -141q49 0 84 38q38 41 35 41q2 0 59 -69q59 -68 78 -68q30 0 82 107q40 6 74 -51l37 -80q-7 18 -7 32q0 30 15 60l30 65 q0 34 -106 86q-87 41 -125 47l-10 -10q-17 -14 -78 -14q-12 0 -66 31q-49 32 -92 32q-22 0 -43 -41q-18 -41 -18 -65zM557 850q12 -57 66 -66l67 -184q105 176 105 324q0 16 -2 26q-18 -35 -62 -35q-7 0 -47 19q-34 19 -57 16q-32 -6 -54 -37.5t-16 -62.5zM647 1743 q0 38 8 57q0 62 21 142q26 105 69 108q23 0 60 -37q40 -34 61 -31l21 5q54 0 63 -45q4 -16 4 -93q0 -15 2 -66t2 -67q0 -7 -2 -27.5t-2 -27.5h-299l-4 37q-4 28 -4 45zM698 1921q0 -55 45 -55q21 0 56 -74q35 -72 55 -72q66 138 66 203q0 43 -43 37q-5 0 -18 -10.5 t-15 -10.5q-9 6 -56 50q-27 24 -43 24q-10 0 -28 -41q-19 -43 -19 -51z" />
<glyph unicode="&#xec;" horiz-adv-x="544" d="M57 1872q0 56 25 145q30 111 76 111q16 0 61 -39q46 -37 72 -37l22 4q26 0 47 -20.5t21 -46.5q0 -12 -23 -109l115 -209h-203zM98 1475q0 47 29 110q35 68 80 68l49 -8q14 0 64 6t63 6q62 0 92 -68l-2 -1589h-373zM104 1993q0 -62 50 -62q20 0 73 -102q24 -49 52 -49 q1 3 2 9.5t2 8.5q8 16 57 127q4 11 10 43q9 70 -47 70l-6 -13q-9 -12 -31 -12q-18 0 -59 41q-37 43 -49 43q-5 0 -29 -47q-25 -48 -25 -57zM137 1503q0 -35 33 -176q27 -15 33 -72q0 -20 -21 -122q0 -43 45 -76q17 24 17 71q0 32 -4 86q0 47 36 89q26 0 50 -37 q8 -17 23.5 -46.5t21.5 -41.5q90 128 90 387q-12 59 -78 59q-11 0 -52.5 -7t-54.5 -7q-15 0 -40 14l20 -47q-37 -15 -49 -12q-17 0 -17 16l5 29q-58 -24 -58 -107zM281 1491q10 13 30 16q39 0 64 -32v-9q-52 0 -94 25z" />
<glyph unicode="&#xed;" horiz-adv-x="542" d="M59 1671l117 209q-27 109 -22 127q27 49 65 49l23 -4q23 -3 63 37q41 38 70 35q55 -9 82 -109q18 -67 18 -143l-213 -201h-203zM74 1475q0 49 28 110q35 68 80 68l49 -8q13 0 63 6t64 6q63 0 93 -68l-2 -1589h-373zM113 1503q0 -40 32 -176q27 -15 33 -72q0 -25 -20 -122 q0 -43 45 -76q16 22 16 71q0 32 -4 86q0 46 37 89q25 0 49 -37q8 -17 23.5 -46.5t21.5 -41.5q90 128 90 387q-12 59 -78 59q-11 0 -52 -7t-54 -7q-16 0 -41 14l20 -47q-37 -15 -49 -12q-16 0 -16 16l4 29q-57 -23 -57 -107zM182 1997q0 -44 72 -217q11 2 53 78q40 73 80 73 q16 0 28.5 21t12.5 41q0 8 -22 57q-21 47 -31 47q-17 0 -60 -43q-41 -41 -49 -41q-6 -1 -15 5.5t-15 13.5l-7 6q-47 -9 -47 -41zM256 1491q10 13 31 16q38 0 63 -32v-9q-52 0 -94 25z" />
<glyph unicode="&#xee;" horiz-adv-x="774" d="M25 1663l219 281q-5 8 -13 22q-32 54 -32 96q0 43 20 81t53 38q16 0 43 -43q27 -41 41 -41q46 25 64 25q19 0 61 -31q9 -9 39 -33q0 -34 10 -57l15 -37l-23 -12l226 -289h-232l-131 168l-129 -168h-231zM205 1475q0 49 28 110q35 68 80 68l49 -8q14 0 64 6t63 6 q63 0 93 -68l-2 -1589h-373zM229 2079q0 -19 27 -78q3 -6 12 -27l23 6q13 0 33 -38q21 -37 34 -37q6 0 20 22.5t17 22.5q21 0 70 -49q39 -39 57 -68q-22 80 -22 184l-31 31q-36 33 -51 33q-6 -3 -60 -27q-46 0 -63 51q-9 27 -27 27q-39 0 -39 -53zM244 1503q0 -40 32 -176 q27 -15 33 -72q0 -25 -20 -122q0 -43 45 -76q16 22 16 71q0 32 -4 86q0 46 37 89q25 0 49 -37q8 -17 23.5 -46.5t21.5 -41.5q90 128 90 387q-12 59 -78 59q-11 0 -52 -7t-54 -7q-16 0 -41 14l20 -47q-37 -15 -49 -12q-16 0 -16 16l4 29q-57 -23 -57 -107zM387 1491 q10 13 31 16q38 0 63 -32v-9q-52 0 -94 25z" />
<glyph unicode="&#xef;" horiz-adv-x="765" d="M49 1757v31q4 28 4 29q0 65 21 141q26 105 69 108q20 0 60 -34q39 -33 61 -33l21 4q67 0 67 -137q0 -16 2 -67t2 -66q0 -7 -2 -28t-2 -28h-299q0 8 -2 39.5t-2 40.5zM96 1937q0 -55 45 -55q21 0 56 -74q35 -71 55 -71q65 136 65 202q0 43 -43 37q-6 0 -18 -10t-14 -10 q-13 8 -56 49q-28 25 -43 25q-10 0 -28 -41q-19 -43 -19 -52zM197 1475q0 49 28 110q35 68 80 68l49 -8q14 0 64 6t63 6q62 0 92 -68l-2 -1589h-372zM236 1503q0 -40 32 -176q27 -15 33 -72q0 -25 -20 -122q0 -43 45 -76q16 22 16 71q0 32 -4 86q0 46 37 89q25 0 49 -37 q8 -17 23.5 -46.5t21.5 -41.5q90 128 90 387q-12 59 -78 59q-11 0 -52 -7t-54 -7q-16 0 -41 14l20 -47q-37 -15 -49 -12q-16 0 -16 16l4 29q-57 -23 -57 -107zM379 1491q10 13 31 16q38 0 63 -32v-9q-52 0 -94 25zM406 1759q0 39 8 58q0 65 20 141q26 105 70 108 q23 0 59 -36q40 -34 62 -31l20 4q55 0 64 -45q4 -16 4 -92q0 -16 2 -67t2 -66q0 -7 -2 -28t-2 -28h-299l-4 37q-4 28 -4 45zM457 1937q0 -55 45 -55q20 0 55 -74q35 -71 55 -71q66 138 66 202q0 43 -43 37q-5 0 -18 -10t-15 -10q-9 6 -55 49q-28 25 -43 25q-11 0 -29 -41 t-18 -52z" />
<glyph unicode="&#xf0;" horiz-adv-x="1300" d="M53 688v227h160v330q0 2 -8 9.5t-8 15.5q0 40 -23 137q-22 93 -22 127q0 51 36.5 88t87.5 37q27 0 91 -49q68 -47 77 -47q35 0 50 41q17 3 81 -9q75 -16 89 -16q31 0 69 41q40 43 72 43q48 0 88 -37q13 -16 39 -46t39 -46q5 -1 35.5 5.5t33.5 6.5q47 0 105 -110 q50 -92 53 -127q29 -50 29 -674v-248l-2 -174q-12 -98 -76 -147q-75 -60 -211 -60h-725v682h-160zM213 1522l4 -109q37 -27 37 -129v-35q0 -8 -2 -14q6 61 53 61q37 0 47 -2q9 0 15 -2q0 27 45 72t73 45q11 0 78 -55q5 0 31 26q27 27 49 27q5 0 76 -53q40 -29 61 -29 q18 0 33 49q15 51 29 51q20 0 41 -30q23 -29 24 -29q7 -2 47 23q20 14 29 14q26 0 61 -53q7 -14 30 -57.5t36 -67.5l4 133q3 48 -16 96q-21 59 -66 59q-11 1 -31.5 -7.5t-21.5 -8.5q-39 0 -80 62t-111 71q-15 0 -55 -49q-38 -47 -69 -47q-26 0 -84 12q-63 13 -86 13 q-19 -54 -54 -54q-9 0 -82 54q-71 53 -98 53q-22 0 -34.5 -29t-12.5 -61zM614 1225l4 -310h99l6 -221l-102 -4l2 -289l110 7q69 3 88 14l-16 749q-12 66 -109 66q-30 0 -82 -12zM627 250q0 -15 22 -57q24 -37 41 -37q15 0 39 94q18 0 57 -45q42 -42 60 -49q-1 4 -2 9 l-1.5 7.5t-0.5 3.5q0 8 7 38t7 38q0 23 -33 43q-40 27 -43 35q-80 22 -100 22q-12 0 -16 -4q3 -27 -23 -63q-14 -17 -14 -35z" />
<glyph unicode="&#xf1;" horiz-adv-x="1144" d="M70 0l2 1372q0 277 92 277q18 0 47 -29q27 -27 45 -27l13 13l22 18q37 30 78 33q35 0 61 -33q3 -16 53 -63q53 -44 56 -56q1 -13 3 -31.5t5.5 -47t5.5 -50.5q15 -115 55 -170q26 33 70 33q29 0 39 -16l16 20v60q-2 27 -2 59q0 270 131 270q18 0 32.5 -4.5t28.5 -17 t20 -19.5t20.5 -27t17.5 -24l53 12q41 0 41 -12v-1536h-399l-236 600v-604h-370zM104 1487q0 -63 50 -252q19 19 67 117q16 -3 90 -109q9 9 21 57q24 99 53 115q102 -65 102 -151l19 4q24 46 24 96q0 66 -34 147q-25 0 -72 56q-45 57 -59 57q-15 0 -60 -39q-46 -37 -47 -37 q-7 0 -49 31t-55 31q-24 0 -39 -51q-11 -50 -11 -72zM215 1712q15 106 76 176q70 76 172 76q42 0 143 -37t131 -37q76 0 97 82h133q-37 -246 -224 -246q-62 0 -168 33q-15 5 -59 18.5t-74 22.5q-75 0 -96 -88h-131zM242 1475q-3 36 53 36v-8q-9 -16 -14 -18q-15 -12 -27 -12 q-8 0 -12 2zM629 1044l8 -174h12q-9 56 84 56h23q6 0 10 -2v30q0 -4 0.5 5.5t0.5 18t1 19.5q3 74 -39 150q-35 54 -72 59q-12 -12 -16 -20q-4 -6 6 -23t10 -18q-31 -76 -28 -101zM766 1462q43 -55 113 -139q49 -72 86 -166q0 64 36 168q37 107 37 145q0 28 -8 41 q-3 -2 -8 -4.5t-6 -3.5q-13 -8 -27 -8q-21 0 -65 53q-45 54 -74 45q-29 -3 -53 -53q-5 -14 -15.5 -39t-15.5 -39z" />
<glyph unicode="&#xf2;" horiz-adv-x="1132" d="M53 627q0 219 8 268q0 207 54 324q0 14 -19 79q-18 62 -18 86q0 50 51 101q52 55 98 55q19 -8 33 -8q45 45 105 45q12 0 23 -5t18.5 -12.5t13 -14.5t8.5 -12l4 -5q20 -3 68 39t57 39q6 -1 20 -7t25 -12t12 -6q19 0 74 37q56 36 72 39q52 0 108 -33q58 -34 70 -80 q5 -5 68 -237q53 -196 57 -209q22 -222 22 -400q0 -440 -155 -589q-112 -109 -373 -109q-504 0 -504 627zM106 1393q-6 -27 19 -88q24 -60 53 -66q6 -2 47 25q41 28 51 30q27 0 43 -22q22 6 60 59q41 53 61 53q26 0 74 -36q49 -37 68 -37q23 0 32 51q9 53 33 53 q60 0 113 -90q2 -3 61 -106q21 92 56 92q25 0 114 -391l-8 237q18 15 18 45q-1 6 -26 90q-11 38 -8 51q-29 15 -45 97q-14 96 -19 106q-10 24 -74 51q-67 31 -90 31q-9 -10 -26.5 -30.5t-26.5 -30.5q-41 -47 -55 -47l-4 5q-4 5 -10 12t-14 14.5t-18 12.5t-20 5 q-12 0 -65 -47q-46 -43 -68 -47q-27 49 -70 49q-10 0 -65 -19q-49 -18 -70 -18l-24 8q-21 -6 -60 -45q-37 -40 -37 -57zM231 1401l5 14q14 0 33.5 -13.5t19.5 -25.5q-8 -4 -15 -4q-10 0 -20 10zM322 1862q0 60 24 145q30 111 76 111q16 0 61 -39q46 -37 72 -37l23 4 q26 0 46.5 -21t20.5 -47q0 -15 -22 -108l114 -209h-202zM369 1982q0 -61 49 -61q22 0 74 -102q24 -50 51 -50q1 3 2 10t2 9q8 16 57 127q4 10 10 43q9 70 -47 70l-6 -13q-9 -12 -31 -12q-18 0 -59 41q-37 43 -49 43q-5 0 -29 -47t-24 -58zM500 233q0 -31 8 -47q4 2 14 2 q33 0 62 -45q11 -17 30 -59q17 88 25 135q3 86 -102 143q-15 -3 -27 -59q-10 -52 -10 -70zM500 399q14 14 37 17q15 0 125 -101v887q0 49 -27 49q-6 0 -23 -26q-18 -27 -32 -27q-5 -2 -9.5 6t-7.5 23q-6 34 -14 37q-18 6 -33.5 -17t-15.5 -45v-803zM698 1495h9q9 -15 36 -33 l45 21l-6 -27q-12 -24 -34 -24l-9 4q-12 4 -22 14z" />
<glyph unicode="&#xf3;" horiz-adv-x="1130" d="M45 627q0 219 8 268q0 209 53 324q0 17 -18 79t-18 86q0 50 51 101q52 55 98 55q19 -8 33 -8q45 45 104 45q12 0 23 -5t19 -12.5t13.5 -14.5t8.5 -12l4 -5q20 -3 68 39t57 39q6 -1 20 -7t25 -12t12 -6q19 0 74 37q56 36 72 39q52 0 108 -33q58 -34 70 -80q3 -3 67 -237 q47 -176 58 -209q22 -222 22 -400q0 -440 -155 -589q-112 -109 -373 -109q-504 0 -504 627zM98 1393q-6 -27 19 -88q24 -60 53 -66q6 -2 47 25q41 28 51 30q27 0 43 -22q22 6 60 59q41 53 61 53q26 0 74 -36q49 -37 67 -37q24 0 33 51q9 53 33 53q60 0 113 -90q2 -3 61 -106 q21 92 55 92q26 0 115 -391l-8 237q18 15 18 45q-1 6 -26 90q-12 40 -9 51q-29 15 -45 97q-15 99 -18 106q-10 24 -74 51q-67 31 -90 31q-9 -10 -26.5 -30.5t-26.5 -30.5q-41 -47 -55 -47l-4 5q-4 5 -10 12t-14 14.5t-18 12.5t-20 5q-12 0 -65 -47q-46 -43 -68 -47 q-27 49 -70 49q-10 0 -65 -19q-50 -18 -70 -18l-24 8q-21 -6 -60 -45q-37 -40 -37 -57zM223 1401l4 14q14 0 34 -13.5t20 -25.5q-8 -4 -15 -4q-10 0 -20 10zM369 1663l116 209q-27 109 -22 127q27 49 65 49l23 -4q23 -3 63 37q41 38 70 35q55 -9 82 -109q18 -67 18 -143 l-213 -201h-202zM492 233q0 -31 8 -47q4 2 14 2q32 0 61 -45q14 -21 31 -59q17 88 25 135q3 86 -103 143q-14 -3 -26 -59q-10 -52 -10 -70zM492 399q14 14 36 17q15 0 125 -101v887q0 49 -26 49q-6 0 -23 -26q-18 -27 -33 -27q-10 -3 -16 29q-6 34 -14 37q-18 6 -33.5 -17 t-15.5 -45v-803zM492 1989q0 -46 71 -217q12 2 53 77q41 74 80 74q16 0 28.5 21t12.5 41q0 8 -22 57q-21 47 -31 47q-16 0 -59 -43q-41 -41 -50 -41q-6 -1 -14.5 5.5t-14.5 13.5l-7 6q-47 -9 -47 -41zM690 1495h8q8 -14 37 -33l45 21l-6 -27q-12 -24 -35 -24l-8 4 q-12 4 -22 14z" />
<glyph unicode="&#xf4;" horiz-adv-x="1134" d="M51 627q0 219 8 268q0 207 54 324q0 14 -19 79q-18 62 -18 86q0 50 51 101q52 55 98 55q19 -8 33 -8q45 45 104 45q12 0 23 -5t19 -12.5t13.5 -14.5t8.5 -12l4 -5q20 -3 68 39t57 39q6 -1 20 -7t25 -12t12 -6q19 0 74 37q56 36 72 39q52 0 108 -33q58 -34 70 -80 q5 -5 68 -237q53 -196 57 -209q22 -222 22 -400q0 -440 -155 -589q-112 -109 -373 -109q-504 0 -504 627zM104 1393q-6 -27 19 -88q24 -60 53 -66q6 -2 47 25q41 28 51 30q27 0 43 -22q22 6 60 59q41 53 61 53q26 0 74 -36q49 -37 68 -37q23 0 32 51q9 53 33 53 q60 0 113 -90q2 -3 61 -106q21 92 55 92q26 0 115 -391l-8 237q18 15 18 45q-1 6 -26 90q-11 38 -8 51q-29 15 -45 97q-14 96 -19 106q-10 24 -74 51q-67 31 -90 31q-9 -10 -26.5 -30.5t-26.5 -30.5q-41 -47 -55 -47l-4 5q-4 5 -10 12t-14 14.5t-18 12.5t-20 5 q-12 0 -65 -47q-46 -43 -68 -47q-27 49 -70 49q-10 0 -65 -19q-50 -18 -70 -18l-24 8q-21 -6 -60 -45q-37 -40 -37 -57zM209 1663l219 281q-4 8 -12 22q-33 56 -33 96q0 43 20.5 81t53.5 38q16 0 43 -43q27 -41 41 -41q45 25 63 25q20 0 62 -31q9 -9 39 -33q0 -34 10 -57 l14 -37l-22 -12l225 -289h-232l-131 168l-129 -168h-231zM229 1401l4 14q14 0 34 -13.5t20 -25.5q-8 -4 -15 -4q-10 0 -20 10zM414 2079q0 -22 26 -78q10 -20 13 -27l22 6q13 0 33 -38q21 -37 35 -37q5 0 20 22.5t17 22.5q20 0 69 -49q41 -41 58 -68q-23 84 -23 184l-31 31 q-36 33 -51 33q-14 -7 -59 -27q-47 0 -64 51q-9 27 -26 27q-39 0 -39 -53zM498 233q0 -31 8 -47q4 2 14 2q33 0 62 -45q11 -17 30 -59q17 88 25 135q3 86 -102 143q-15 -3 -27 -59q-10 -52 -10 -70zM498 399q14 14 37 17q14 0 124 -101v887q0 49 -26 49q-6 0 -23 -26 q-18 -27 -32 -27q-5 -2 -9.5 6t-7.5 23q-6 34 -14 37q-18 6 -33.5 -17t-15.5 -45v-803zM696 1495h9q9 -15 36 -33l45 21l-6 -27q-12 -24 -35 -24l-8 4q-12 4 -22 14z" />
<glyph unicode="&#xf5;" horiz-adv-x="1148" d="M57 627q0 212 9 268q0 209 53 324q0 14 -19 79q-18 62 -18 86q0 50 51 101q52 55 98 55q19 -8 33 -8q45 45 105 45q12 0 23 -5t18.5 -12.5t13 -14.5t8.5 -12l4 -5q20 -3 68 39t57 39q6 -1 20 -7t25 -12t12 -6q19 0 74 37q56 36 72 39q52 0 108 -33q58 -34 70 -80 q5 -5 68 -237q53 -196 57 -209q23 -232 23 -400q0 -439 -156 -589q-112 -109 -373 -109q-504 0 -504 627zM111 1393q-6 -29 18 -88q24 -60 53 -66q6 -2 47 25t52 30q27 0 43 -22q21 6 59 59q41 53 61 53q26 0 74 -36q49 -37 68 -37q23 0 32 51q9 53 33 53q60 0 113 -90 q2 -3 61 -106q21 92 56 92q25 0 114 -391l-8 237q19 16 19 45q-1 5 -4.5 16.5t-10.5 33.5t-12 40q-11 38 -8 51q-29 15 -45 97q-14 96 -19 106q-11 25 -73 51q-67 31 -91 31q-9 -10 -26.5 -30.5t-26.5 -30.5q-41 -47 -55 -47l-4 5q-4 5 -10 12t-14 14.5t-18 12.5t-20 5 q-12 0 -65 -47q-46 -43 -68 -47q-27 49 -69 49q-11 0 -66 -19q-49 -18 -70 -18l-24 8q-21 -6 -60 -45q-36 -39 -36 -57zM207 1714q15 106 76 176q70 76 172 76q42 0 143 -37t131 -37q75 0 96 82h133q-37 -245 -223 -245q-65 0 -168 32q-15 5 -59 18.5t-74 22.5 q-75 0 -96 -88h-131zM236 1401l4 14q14 0 33.5 -13.5t19.5 -25.5q-8 -4 -14 -4q-11 0 -21 10zM504 233q0 -31 8 -47q4 2 14 2q33 0 62 -45q11 -17 30 -59q17 88 25 135q3 86 -102 143q-15 -3 -27 -59q-10 -52 -10 -70zM504 399q14 14 37 17q15 0 125 -101v887q0 49 -27 49 q-6 0 -23 -26q-18 -27 -32 -27q-5 -2 -9.5 6t-7.5 23q-6 34 -14 37q-18 6 -33.5 -17t-15.5 -45v-803zM702 1495h9q8 -14 37 -33l45 21l-7 -27q-12 -24 -34 -24l-9 4q-12 4 -22 14z" />
<glyph unicode="&#xf6;" horiz-adv-x="1148" d="M59 627q0 212 9 268q0 209 53 324q0 14 -19 79q-18 62 -18 86q0 50 51 101q52 55 98 55q19 -8 33 -8q45 45 105 45q12 0 23 -5t18.5 -12.5t13 -14.5t8.5 -12l4 -5q20 -3 68 39t57 39q6 -1 20 -7t25.5 -12t12.5 -6q18 0 73 37q56 36 72 39q52 0 108 -33q58 -34 70 -80 q5 -5 68 -237q53 -196 57 -209q23 -232 23 -400q0 -439 -156 -589q-112 -109 -373 -109q-504 0 -504 627zM113 1393q-6 -29 18 -88q24 -60 53 -66q6 -2 47 25t52 30q27 0 43 -22q21 6 59 59q41 53 61 53q26 0 74 -36q49 -37 68 -37q24 0 33 51q9 53 32 53q60 0 113 -90 q2 -3 61 -106q21 92 56 92q25 0 114 -391l-8 237q19 16 19 45q-1 5 -4.5 16.5t-10.5 33.5t-12 40q-11 38 -8 51q-29 15 -45 97q-14 96 -19 106q-11 25 -73 51q-67 31 -91 31q-9 -10 -26.5 -30.5t-26.5 -30.5q-41 -47 -55 -47l-4 5q-4 5 -10 12t-14 14.5t-18 12.5t-20 5 q-12 0 -65 -47q-46 -43 -68 -47q-27 49 -69 49q-11 0 -66 -19q-49 -18 -70 -18l-24 8q-20 -6 -59 -45q-37 -40 -37 -57zM223 1761v31q4 28 4 29q0 65 21 141q27 106 69 109q19 0 60 -35q39 -33 61 -33l21 4q67 0 67 -137q0 -16 2 -67t2 -66q0 -7 -2 -28t-2 -28h-299 q0 8 -2 39.5t-2 40.5zM238 1401l4 14q14 0 33.5 -13.5t19.5 -25.5q-8 -4 -14 -4q-11 0 -21 10zM270 1942q0 -56 45 -56q21 0 56 -74q35 -71 55 -71q66 138 66 203q0 42 -43 36q-5 0 -18 -10t-15 -10q-13 8 -56 49q-28 25 -43 25q-10 0 -28 -41q-19 -43 -19 -51zM506 233 q0 -31 8 -47q4 2 14 2q33 0 62 -45q14 -21 31 -59q9 46 24 135q3 86 -102 143q-15 -3 -27 -59q-10 -52 -10 -70zM506 399q14 14 37 17q15 0 125 -101v887q0 49 -27 49q-6 0 -23 -26q-18 -27 -32 -27q-5 -2 -9.5 6t-7.5 23q-6 34 -14 37q-18 6 -33.5 -17t-15.5 -45v-803z M580 1763q0 39 8 58q0 65 20 141q26 106 70 109q22 0 59 -37q40 -34 62 -31l20 4q55 0 64 -45q4 -16 4 -92q0 -16 2 -67t2 -66q0 -7 -2 -28t-2 -28h-299l-4 37q-4 28 -4 45zM631 1942q0 -56 45 -56q20 0 55 -74q35 -71 55 -71q66 138 66 203q0 42 -43 36q-5 0 -18 -10 t-15 -10q-9 6 -55 49q-28 25 -43 25q-11 0 -29 -41t-18 -51zM705 1495h8q8 -14 37 -33l45 21l-7 -27q-12 -24 -34 -24l-9 4q-12 4 -22 14z" />
<glyph unicode="&#xf7;" horiz-adv-x="1036" d="M20 651v166q0 109 134 121q37 0 104 -20q37 -10 55 -7q69 14 119 19l119 8q-3 0 9.5 -2t46 -5.5t77.5 -8.5q16 0 66 4t63 4q122 0 125 -17q3 -16 41 -43q37 -27 37 -36v-183h-996zM96 885q0 -2 18.5 -26.5t18.5 -37.5q-6 -9 -6 -18q0 -17 63 -43q64 -27 89 -27q8 8 8 15 q1 6 -3.5 17.5t-9.5 20.5l-4 9q0 13 17 24.5t35 11.5q86 0 258 -12t258 -12q39 0 43 2q48 3 51 49q3 25 -39 41q-33 10 -59 10q-66 -14 -129 -14q-33 0 -80 8q-55 10 -70 10q-47 0 -238 -24q-58 0 -176 26q-13 2 -29 -8.5t-16 -21.5zM348 332q0 72 50 122t122 50t122 -50 t50 -122t-50 -122t-122 -50t-122 50t-50 122zM348 1212q0 72 50 122t122 50t122 -50t50 -122t-50 -122t-122 -50t-122 50t-50 122z" />
<glyph unicode="&#xf8;" horiz-adv-x="1351" d="M74 6q-26 36 76 113q100 75 77 114q-86 160 -86 394q0 212 9 268q0 209 53 324q0 14 -19 79q-18 62 -18 86q0 50 51 101q52 55 98 55q19 -8 33 -8q45 45 105 45q12 0 23 -5t18.5 -12.5t13 -14.5t8.5 -12l4 -5q20 -3 68 39t57 39q6 -1 20 -7t25 -12t12 -6q19 0 74 37 q56 36 72 39q46 0 102 -33q61 -36 74 -72q2 -3 14 -41q20 -58 25 -79q11 16 42 64t50 77l148 -6q0 -41 -97 -176q-65 -92 -76 -119q7 -47 21 -174q23 -225 23 -400q0 -439 -156 -589q-112 -109 -373 -109q-183 0 -338 104q-13 0 -47 -61t-45 -61h-37q-25 0 -35 -2 q-52 0 -69 26zM195 1393q-6 -29 18 -88q24 -60 53 -66q6 -2 47 25t52 30q27 0 43 -22q21 6 59 59q41 53 61 53q26 0 74 -36q49 -37 68 -37q23 0 32 51q9 53 33 53q60 0 113 -90q2 -3 61 -106q21 92 56 92q25 0 114 -391l-8 237q19 16 19 45q-1 5 -4.5 16.5t-10.5 33.5 t-12 40q-11 38 -8 51q-29 15 -45 97q-14 96 -19 106q-11 25 -73 51q-67 31 -91 31q-9 -10 -26.5 -30.5t-26.5 -30.5q-41 -47 -55 -47l-4 5q-4 5 -10 12t-14 14.5t-18 12.5t-20 5q-12 0 -65 -47q-46 -43 -68 -47q-27 49 -69 49q-11 0 -66 -19q-49 -18 -70 -18l-24 8 q-21 -6 -60 -45q-36 -39 -36 -57zM319 1401l5 14q14 0 33.5 -13.5t19.5 -25.5q-8 -4 -15 -4q-10 0 -20 10zM588 233q0 -31 8 -47q4 2 14 2q33 0 62 -45q11 -17 30 -59q17 88 25 135q3 86 -102 143q-15 -3 -27 -59q-10 -52 -10 -70zM588 399q14 14 37 17q15 0 125 -101l6 459 l-166 -239zM588 1202l2 -422l160 203v219q0 49 -27 49q-6 0 -23 -26q-18 -27 -32 -27q-5 -2 -9.5 6t-7.5 23q-6 34 -14 37q-17 6 -33 -17.5t-16 -44.5zM786 1495h9q9 -15 36 -33l46 21l-7 -27q-12 -24 -34 -24l-9 4q-12 4 -22 14z" />
<glyph unicode="&#xf9;" horiz-adv-x="1081" d="M61 1454q0 43 13 113q18 90 49 90q117 0 117 -68q0 -33 4 -33q27 68 73 68q33 0 56 -45q24 -43 63 -43q21 0 21 -45v-975l12 -121q7 18 18 49q15 43 48 43q59 0 79 -36q45 -73 48 -76v1083q0 20 45 88q47 72 61 72q104 0 104 -45q0 -59 21 -62q6 9 20 25q20 26 33 29 q30 0 58 -72q24 -64 24 -100v-1182q0 -110 -186 -168q-133 -43 -273 -43q-146 0 -295 41q-211 58 -211 170zM102 1520q0 -7 4.5 -33t4.5 -33q-1 -9 -2 -22.5t-2 -22.5t-1 -16q5 -31 17 -68q2 -2 8 -2q0 59 6 74q9 39 53 39q28 0 50 -25q26 -37 65 -80q4 -5 8.5 -10t6.5 -7 t2 -3l-5 -21q0 -14 17 -45t22 -45q8 -19 11 -22q13 -3 19.5 5.5t8.5 30.5l8 285q-31 9 -43 31q-2 4 -5 12t-5 14t-5.5 12t-7 9.5t-7.5 3.5q-42 0 -54 -27q-12 -26 -36 -26q-36 0 -45 33q4 16 4 20q-9 43 -49 43q-19 3 -31.5 -23t-16.5 -81zM281 1458q3 12 16 12q41 0 41 -26 q0 -5 -16 -8q-5 -1 -15.5 2.5t-18.5 9t-7 10.5zM315 1880q0 56 25 145q30 111 76 111q16 0 61 -39q46 -37 72 -37l22 4q26 0 47 -20.5t21 -46.5q0 -12 -23 -109l115 -209h-203zM362 2001q0 -62 50 -62q20 0 73 -102q24 -49 52 -49q1 3 2 9.5t2 8.5q8 16 57 127q4 10 10 43 q9 70 -47 70l-6 -12q-10 -13 -31 -13q-18 0 -59 41q-37 43 -49 43q-5 0 -29 -47q-25 -48 -25 -57zM481 315l47 -104q12 -4 31 -47q21 -43 39 -43q33 141 33 178q0 13 -31 80q-2 4 -6 11.5t-11.5 21.5t-13.5 26h-24q-19 0 -37 -55q-20 -61 -27 -68zM719 1491q0 -43 80 -135 q43 -49 55 -76q27 -152 51 -152q25 0 25 158q0 30 18 74l19 43q2 5 -13 55q-7 51 -8 52q-1 2 -4 1q-2 0 -19 -20.5t-26 -20.5q-33 0 -57 28t-17 58q0 24 -39 21q-65 -12 -65 -86z" />
<glyph unicode="&#xfa;" horiz-adv-x="1085" d="M51 1454q0 48 12 113q18 90 50 90q116 0 116 -68q0 -33 4 -33q27 68 74 68q32 0 55 -45q24 -43 64 -43q20 0 20 -45v-975l13 -121q7 18 18 49q15 43 47 43q60 0 80 -36l47 -76v1083q0 20 45 88q47 72 62 72q104 0 104 -45q0 -59 21 -62q6 9 20 25q20 26 33 29 q29 0 57 -72q25 -67 25 -100v-1182q0 -110 -187 -168q-133 -43 -272 -43q-146 0 -295 41q-211 58 -211 170zM92 1520q0 -7 4 -33t4 -33q-4 -50 -4 -61q5 -31 17 -68q2 -2 8 -2q0 59 6 74q9 39 53 39q27 0 49 -25q23 -33 66 -80q16 -19 16 -20l-4 -21q0 -14 17 -45t22 -45 q9 -21 10 -22q14 -3 21 5.5t8 30.5l8 285q-31 9 -43 31q-2 4 -5 12t-5.5 14t-6 12t-7 9.5t-7.5 3.5q-41 0 -53 -27q-12 -26 -37 -26q-36 0 -45 33q4 16 4 20q-9 43 -49 43q-19 3 -31 -23t-16 -81zM270 1458q3 12 17 12q41 0 41 -26q0 -5 -17 -8q-5 -1 -15.5 2.5t-18.5 9 t-7 10.5zM453 1661l116 209q-27 109 -22 127q27 49 65 49l23 -4q23 -3 63 37q41 38 70 35q55 -9 82 -109q18 -68 18 -143l-213 -201h-202zM471 315l47 -104q12 -4 31 -47q21 -43 39 -43q33 141 33 178q0 13 -31 80q-2 4 -6 11.5t-11.5 21.5t-13.5 26h-24q-19 0 -37 -55 q-20 -61 -27 -68zM575 1987q0 -45 72 -218q11 2 53 78q41 74 80 74q16 0 28.5 20.5t12.5 40.5q0 9 -22 58q-21 47 -31 47q-16 0 -59 -43q-41 -41 -50 -41q-6 -1 -14.5 5.5t-14.5 13.5l-7 6q-48 -9 -48 -41zM709 1491q0 -44 79 -135q45 -51 56 -76q27 -152 51 -152 q25 0 25 158q0 30 18 74l18 43q3 6 -12 55q-7 51 -8 52q-1 2 -4 1q-2 0 -19 -20.5t-26 -20.5q-33 0 -57 28t-17 58q0 24 -39 21q-65 -12 -65 -86z" />
<glyph unicode="&#xfb;" horiz-adv-x="1085" d="M59 1454q0 43 13 113q18 90 49 90q117 0 117 -68q0 -33 4 -33q27 68 73 68q33 0 56 -45q24 -43 63 -43q21 0 21 -45v-975l12 -121q7 18 18 49q15 43 47 43q60 0 80 -36l47 -76v1083q0 18 46 88q47 72 61 72q104 0 104 -45q0 -59 21 -62q6 9 20 25q20 26 33 29 q29 0 57 -72q25 -67 25 -100v-1182q0 -110 -186 -168q-133 -43 -273 -43q-146 0 -295 41q-211 58 -211 170zM100 1520q0 -7 4.5 -33t4.5 -33q-1 -9 -2 -22.5t-2 -22.5t-1 -16q5 -31 17 -68q2 -2 8 -2q0 59 6 74q9 39 53 39q28 0 50 -25q26 -37 65 -80q16 -19 16 -20l-4 -21 q0 -14 17 -45t22 -45q8 -19 11 -22q13 -3 19.5 5.5t8.5 30.5l8 285q-31 9 -43 31q-2 4 -5 12t-5 14t-5.5 12t-7 9.5t-7.5 3.5q-42 0 -54 -27q-12 -26 -36 -26q-36 0 -45 33q4 16 4 20q-9 43 -50 43q-19 3 -31 -23t-16 -81zM211 1686l219 280q-4 9 -12 23q-33 56 -33 96 q0 43 20.5 81t53.5 38q16 0 43 -43q27 -41 41 -41q45 24 63 24q22 0 62 -30q9 -9 39 -33q0 -35 10 -58l14 -36l-22 -13l225 -288h-232l-131 167l-129 -167h-231zM279 1458q3 12 16 12q41 0 41 -26q0 -5 -17 -8q-8 -2 -24.5 6.5t-15.5 15.5zM416 2101q0 -22 26 -78l13 -26 l22 6q13 0 33 -39q21 -37 35 -37q5 0 20 22.5t17 22.5q20 0 69 -49q41 -41 58 -68q-23 84 -23 185l-31 31q-35 32 -51 32q-12 -6 -34.5 -15.5t-24.5 -10.5q-47 0 -64 51q-9 26 -26 26q-39 0 -39 -53zM479 315l47 -104q12 -4 31 -47q21 -43 39 -43q33 141 33 178q0 13 -31 80 q-2 4 -6 11.5t-11.5 21.5t-13.5 26h-24q-19 0 -37 -55q-20 -61 -27 -68zM717 1491q0 -43 80 -135q43 -49 55 -76q27 -152 51 -152q25 0 25 158q0 30 18 74l19 43q2 5 -13 55q-7 51 -8 52q-1 2 -4 1q-2 0 -19 -20.5t-26 -20.5q-33 0 -57 28t-17 58q0 24 -39 21 q-65 -12 -65 -86z" />
<glyph unicode="&#xfc;" horiz-adv-x="1103" d="M68 1454q0 48 12 113q18 90 49 90q117 0 117 -68q0 -33 4 -33q27 68 74 68q32 0 55 -45q24 -43 63 -43q21 0 21 -45v-975l12 -121q15 37 19 49q15 43 47 43q60 0 80 -36l47 -76v1083q0 20 45 88q47 72 61 72q105 0 105 -45q0 -59 20 -62q7 9 21 25q20 26 32 29 q30 0 58 -72q24 -64 24 -100v-1182q0 -110 -186 -168q-133 -43 -273 -43q-145 0 -294 41q-211 58 -211 170zM109 1520q0 -7 4 -33t4 -33q-4 -50 -4 -61q5 -36 16 -68q2 -2 8 -2q0 59 6 74q9 39 54 39q27 0 49 -25q26 -37 65 -80q4 -5 8.5 -10t6.5 -7t2 -3l-4 -21 q0 -16 16 -45q17 -31 22 -45q8 -19 11 -22q13 -3 19.5 5.5t8.5 30.5l9 285q-31 9 -43 31q-2 4 -5 12t-5.5 14t-6 12t-7 9.5t-7.5 3.5q-41 0 -53 -27q-12 -26 -37 -26q-36 0 -45 33q4 16 4 20q-9 43 -49 43q-19 3 -31 -23t-16 -81zM252 1767v31q4 28 4 29q0 68 20 141 q26 106 70 109q19 0 60 -35q39 -33 61 -33l20 4q68 0 68 -137q0 -16 2 -67t2 -66q0 -7 -2 -27.5t-2 -27.5h-299q0 8 -2 39t-2 40zM287 1458q3 12 16 12q41 0 41 -26q0 -5 -16 -8q-5 -1 -15.5 2.5t-18.5 9t-7 10.5zM299 1948q0 -56 45 -56q21 0 55 -73q35 -72 56 -72 q65 136 65 203q0 43 -43 37q-5 0 -18 -10.5t-15 -10.5q-9 6 -55 49q-28 25 -43 25q-11 0 -29 -41t-18 -51zM487 315l48 -104q10 -3 30 -47q21 -43 39 -43q33 141 33 178q0 13 -31 80q-2 4 -6 11.5t-11.5 21.5t-13.5 26h-24q-19 0 -37 -55q-20 -61 -27 -68zM608 1769 q0 39 8 58q0 61 21 141q27 106 70 109q22 0 59 -37q40 -34 61 -31l21 4q54 0 63 -45q4 -16 4 -92q0 -16 2.5 -67t2.5 -66q0 -7 -2.5 -27.5t-2.5 -27.5h-299l-4 36q-4 28 -4 45zM659 1948q0 -56 46 -56q21 0 55 -73q35 -72 55 -72q66 138 66 203q0 43 -43 37q-6 0 -18 -10.5 t-15 -10.5q-9 6 -55 49q-28 25 -43 25q-11 0 -29 -41q-19 -43 -19 -51zM725 1491q0 -43 80 -135q43 -49 55 -76q27 -152 51 -152q25 0 25 158q0 30 18 74l19 43q3 6 -12 55q-7 50 -9 52t-4 1q-2 0 -19 -20.5t-26 -20.5q-33 0 -57 28t-17 58q0 24 -38 21q-66 -12 -66 -86z " />
<glyph unicode="&#xfd;" horiz-adv-x="1210" d="M18 1368q0 66 29 148q40 94 98 94q35 0 56 -35l37 -80q64 102 94 102q72 0 119 -102q37 -88 84 -192q5 0 37.5 8.5t45.5 7.5q31 -3 50 -35q5 -9 14 -28.5t14 -28.5q21 0 56 78q32 65 32 102q0 38 41 131q52 119 111 119q30 0 68 -47q36 -45 45 -45q1 0 8 4t17 8t16 4 q37 0 67 -61q3 -20 10 -50q3 -4 7 -11l8 -9q0 -50 -27 -170q-26 -112 -49 -160l-53 25l-244 -475v-672h-381l-6 684l-283 541q-18 -18 -39 -21q-32 0 -59 70q-23 64 -23 96zM51 1376q-2 -20 8 -63q12 -45 33 -45q3 10 12 31.5t13 33.5q28 67 47 64q30 -3 61 -60 q14 -26 25 -26q24 0 37 8q50 24 53 24q50 0 74 -67q9 -23 18 -47.5t12.5 -33t4.5 -9.5q8 96 8 203q-22 45 -39 75q-49 79 -90 88q-11 2 -22 -10t-21 -37q-20 -51 -56 -51q-5 0 -49 80q-20 39 -45 39q-27 0 -57 -86q-24 -71 -27 -111zM461 1657l117 209q-28 111 -23 127 q27 49 66 49l22 -4q24 -3 64 37q40 37 69 34q55 -9 82 -108q19 -71 19 -143l-213 -201h-203zM580 1227q52 -63 61 -144q3 -48 10 -77q16 -42 45 -60q21 82 21 135q0 58 -25 113q-29 10 -43 41q-12 33 -26 39q-5 -3 -12 -8t-9 -6q-22 -19 -22 -33zM584 1982q0 -46 71 -217 q12 2 54 78q41 74 79 74q16 0 28.5 20.5t12.5 40.5q0 9 -22 58q-21 47 -31 47q-16 0 -59 -43q-41 -41 -49 -41q-6 -1 -15 5t-15 12l-7 7q-47 -9 -47 -41zM825 1432q0 -20 19 -91q18 -66 30 -69q9 -3 44 57q38 60 61 60q31 0 61 -99q35 -96 54 -96q11 49 18 86q21 102 21 143 q0 117 -56 117q-8 0 -27 -12t-22 -12q-14 -2 -29 17t-28 56q-7 20 -15 28.5t-16 6.5q-24 -7 -70 -86q-45 -74 -45 -106z" />
<glyph unicode="&#xfe;" horiz-adv-x="1230" d="M80 0v1470h280q17 23 64 29q24 0 92 -47q69 -46 86 -49q4 0 31 14.5t37 14.5q58 -6 118 -93q60 -84 97 -84l53 17q35 -3 57 -60q213 -118 213 -417q0 -205 -133 -338q-131 -131 -336 -131h-352v-326h-307zM344 1350q0 -80 8 -111q15 -68 66 -68q35 0 59 35q22 28 37 31 q21 0 51 -49q33 -48 43 -51q18 -3 45 34q26 39 47 39q31 -50 56 -82q65 -84 108 -92q17 -29 74 -137q26 -51 33 -51q18 0 30 90q11 82 11 109q0 20 -2 26q-6 71 -29 113q-15 24 -49 24q-7 0 -32 -13t-32 -13q-25 0 -108 123q-41 59 -74 59q-13 0 -90 -25q-13 0 -86 48 q-70 49 -92 49q-65 0 -74 -88zM356 575q38 -74 58 -94q21 0 30 39q1 6 6.5 24.5t8.5 30.5q19 -4 57 -45q40 -43 59 -49l9 109q-13 40 -61.5 64t-102.5 24q-10 0 -47 -70q-1 -3 -3.5 -7.5t-6.5 -12t-7 -13.5zM387 700q78 0 111 -8q112 -24 112 -112h62q123 0 176 53t53 176 t-78 170q-58 37 -192 37h-244v-316z" />
</font>
</defs>
</svg>
